G04*
G04 #@! TF.GenerationSoftware,Altium Limited,Altium Designer,19.0.15 (446)*
G04*
G04 Layer_Color=8421504*
%FSLAX44Y44*%
%MOMM*%
G71*
G01*
G75*
%ADD17R,1.9000X2.4000*%
%ADD18R,1.4000X0.4000*%
%ADD19R,1.4000X1.0000*%
%ADD20R,0.2000X0.2000*%
%ADD21O,2.5000X1.0000*%
%ADD22O,1.0000X2.5000*%
%ADD23R,1.2000X1.4000*%
%ADD25R,2.1000X4.5500*%
%ADD26R,1.5000X2.5000*%
%ADD27R,0.6000X0.5000*%
%ADD28R,1.0000X1.1000*%
%ADD29R,1.0000X3.0000*%
%ADD30R,1.1000X0.8000*%
%ADD31R,1.1000X2.1000*%
%ADD32R,0.6000X0.5000*%
%ADD33R,0.8500X0.7000*%
%ADD34R,0.7500X1.3000*%
%ADD35R,0.6500X0.8000*%
%ADD36R,1.0500X2.2000*%
%ADD37R,1.0000X1.0500*%
%ADD38R,1.4000X0.6000*%
%ADD39R,0.4000X0.6500*%
%ADD40R,1.5500X1.3000*%
%ADD41R,1.0000X1.6000*%
G04:AMPARAMS|DCode=42|XSize=1mm|YSize=1.6mm|CornerRadius=0.25mm|HoleSize=0mm|Usage=FLASHONLY|Rotation=0.000|XOffset=0mm|YOffset=0mm|HoleType=Round|Shape=RoundedRectangle|*
%AMROUNDEDRECTD42*
21,1,1.0000,1.1000,0,0,0.0*
21,1,0.5000,1.6000,0,0,0.0*
1,1,0.5000,0.2500,-0.5500*
1,1,0.5000,-0.2500,-0.5500*
1,1,0.5000,-0.2500,0.5500*
1,1,0.5000,0.2500,0.5500*
%
%ADD42ROUNDEDRECTD42*%
%ADD43R,3.8000X2.0300*%
%ADD44R,1.1000X0.6000*%
%ADD45O,0.8500X0.2500*%
%ADD46O,0.2500X0.8500*%
%ADD47R,5.6000X5.6000*%
%ADD48R,1.5000X1.5000*%
%ADD49R,0.2500X0.5000*%
%ADD50R,0.5000X0.2500*%
%ADD51R,1.7500X2.5000*%
%ADD52R,0.7000X0.4500*%
%ADD53C,0.2200*%
%ADD54R,0.2750X0.2500*%
%ADD55R,0.2500X0.2750*%
%ADD56R,1.5000X1.2000*%
%ADD57R,0.4000X0.3000*%
%ADD58R,0.3500X0.5000*%
%ADD59R,0.2500X0.6500*%
%ADD60R,0.2000X1.0000*%
%ADD61R,1.0000X0.2000*%
%ADD62R,0.5250X0.2500*%
%ADD63R,1.8000X1.0000*%
%ADD64R,1.4000X8.5000*%
%ADD65R,0.2700X0.8000*%
%ADD66R,0.2700X0.9000*%
%ADD67R,0.6000X0.6500*%
%ADD68R,0.6500X0.4000*%
%ADD70R,0.6500X0.6000*%
%ADD71R,0.5000X0.6000*%
%ADD72R,0.8000X1.1000*%
%ADD73R,2.1000X1.1000*%
%ADD74R,2.5000X1.5000*%
%ADD75R,0.8000X0.6500*%
%ADD76R,0.2500X0.5250*%
G04:AMPARAMS|DCode=77|XSize=0.6mm|YSize=0.65mm|CornerRadius=0mm|HoleSize=0mm|Usage=FLASHONLY|Rotation=135.000|XOffset=0mm|YOffset=0mm|HoleType=Round|Shape=Rectangle|*
%AMROTATEDRECTD77*
4,1,4,0.4419,0.0177,-0.0177,-0.4419,-0.4419,-0.0177,0.0177,0.4419,0.4419,0.0177,0.0*
%
%ADD77ROTATEDRECTD77*%

G04:AMPARAMS|DCode=78|XSize=0.6mm|YSize=0.65mm|CornerRadius=0mm|HoleSize=0mm|Usage=FLASHONLY|Rotation=225.000|XOffset=0mm|YOffset=0mm|HoleType=Round|Shape=Rectangle|*
%AMROTATEDRECTD78*
4,1,4,-0.0177,0.4419,0.4419,-0.0177,0.0177,-0.4419,-0.4419,0.0177,-0.0177,0.4419,0.0*
%
%ADD78ROTATEDRECTD78*%

%ADD79R,0.5000X0.6000*%
%ADD87R,0.6250X1.0000*%
%ADD88R,0.6250X1.0000*%
%ADD89R,0.6250X1.0000*%
%ADD90R,0.6250X1.0000*%
%ADD91R,1.0000X0.5000*%
D17*
X450460Y839400D02*
D03*
X491460D02*
D03*
D18*
X450275Y292009D02*
D03*
D19*
Y270349D02*
D03*
D20*
X445151Y397330D02*
D03*
X450151D02*
D03*
Y403200D02*
D03*
X445151D02*
D03*
Y409070D02*
D03*
X450151D02*
D03*
D21*
X784200Y646270D02*
D03*
Y631270D02*
D03*
Y616270D02*
D03*
Y601270D02*
D03*
Y586270D02*
D03*
Y571270D02*
D03*
Y525270D02*
D03*
Y510270D02*
D03*
Y495270D02*
D03*
Y480270D02*
D03*
Y465270D02*
D03*
Y450270D02*
D03*
X549200D02*
D03*
Y465270D02*
D03*
Y480270D02*
D03*
Y495270D02*
D03*
Y510270D02*
D03*
Y525270D02*
D03*
Y571270D02*
D03*
Y586270D02*
D03*
Y601270D02*
D03*
Y616270D02*
D03*
Y631270D02*
D03*
Y646270D02*
D03*
D22*
X764700Y430770D02*
D03*
X749700D02*
D03*
X734700D02*
D03*
X719700D02*
D03*
X704700D02*
D03*
X689700D02*
D03*
X643700D02*
D03*
X628700D02*
D03*
X613700D02*
D03*
X598700D02*
D03*
X583700D02*
D03*
X568700D02*
D03*
Y665770D02*
D03*
X583700D02*
D03*
X598700D02*
D03*
X613700D02*
D03*
X628700D02*
D03*
X643700D02*
D03*
X689700D02*
D03*
X704700D02*
D03*
X719700D02*
D03*
X734700D02*
D03*
X749700D02*
D03*
X764700D02*
D03*
D23*
X497200Y418800D02*
D03*
X513200D02*
D03*
Y396800D02*
D03*
X497200D02*
D03*
D25*
X770200Y862109D02*
D03*
X833199D02*
D03*
D26*
X901230Y880200D02*
D03*
X934250D02*
D03*
D27*
X748900Y971900D02*
D03*
X738900D02*
D03*
X432700Y938853D02*
D03*
X422700D02*
D03*
X399700D02*
D03*
X409700D02*
D03*
X376700D02*
D03*
X386700D02*
D03*
X526700Y958200D02*
D03*
X536700D02*
D03*
X611010Y943200D02*
D03*
X621010D02*
D03*
X628700Y888200D02*
D03*
X618700D02*
D03*
X501700Y877200D02*
D03*
X491700D02*
D03*
X748800Y981100D02*
D03*
X738800D02*
D03*
X847400Y980500D02*
D03*
X857400D02*
D03*
X847400Y971300D02*
D03*
X857400D02*
D03*
X909700Y856708D02*
D03*
X899700D02*
D03*
X878700D02*
D03*
X888700D02*
D03*
X867700Y845371D02*
D03*
X857700D02*
D03*
X749160Y809200D02*
D03*
X759160D02*
D03*
X739600Y910945D02*
D03*
X729600D02*
D03*
X817560Y450200D02*
D03*
X827560D02*
D03*
X817700Y460200D02*
D03*
X827700D02*
D03*
X817700Y469200D02*
D03*
X827700D02*
D03*
X719250Y700276D02*
D03*
X709250D02*
D03*
X719250Y726430D02*
D03*
X709250D02*
D03*
X691250Y700276D02*
D03*
X681250D02*
D03*
X690250Y728640D02*
D03*
X680250D02*
D03*
X658588Y726430D02*
D03*
X648588D02*
D03*
X658448Y700276D02*
D03*
X648448D02*
D03*
X626800Y728640D02*
D03*
X616800D02*
D03*
X625700Y700276D02*
D03*
X615700D02*
D03*
X465400Y410700D02*
D03*
X475400D02*
D03*
X465400Y401700D02*
D03*
X475400D02*
D03*
X510400Y379683D02*
D03*
X500400D02*
D03*
X501960Y862110D02*
D03*
X491960D02*
D03*
X459150Y862380D02*
D03*
X449150D02*
D03*
X510200Y435000D02*
D03*
X500200D02*
D03*
X398210Y503090D02*
D03*
X388210D02*
D03*
X388038Y590202D02*
D03*
X398038D02*
D03*
X363700Y929853D02*
D03*
X353700D02*
D03*
X363700Y938853D02*
D03*
X353700D02*
D03*
X275700Y1068200D02*
D03*
X285700D02*
D03*
D28*
X399100Y1070314D02*
D03*
X424500D02*
D03*
X373700D02*
D03*
X424300Y952214D02*
D03*
X373500D02*
D03*
X398900D02*
D03*
D29*
X346100Y1011314D02*
D03*
X452100D02*
D03*
D30*
X489700Y976950D02*
D03*
D31*
X489700Y957200D02*
D03*
D32*
X556700Y1060700D02*
D03*
Y1051700D02*
D03*
X547700Y1060700D02*
D03*
Y1051700D02*
D03*
D33*
X814700Y956700D02*
D03*
Y941700D02*
D03*
D34*
X485950Y470200D02*
D03*
X503450D02*
D03*
D35*
X522300Y333860D02*
D03*
X536800D02*
D03*
X351790Y456900D02*
D03*
X366290D02*
D03*
D36*
X720100Y294200D02*
D03*
X746700D02*
D03*
X776400Y294000D02*
D03*
X803000D02*
D03*
D37*
X733400Y309400D02*
D03*
X789700Y309200D02*
D03*
D38*
X773700Y812200D02*
D03*
X795700Y822200D02*
D03*
Y802200D02*
D03*
X799700Y912200D02*
D03*
X777700Y902200D02*
D03*
Y922200D02*
D03*
X834700Y912025D02*
D03*
X812700Y902025D02*
D03*
Y922025D02*
D03*
X799700Y946200D02*
D03*
X777700Y936200D02*
D03*
Y956200D02*
D03*
X773700Y759200D02*
D03*
X795700Y769200D02*
D03*
Y749200D02*
D03*
D39*
X739900Y953200D02*
D03*
X749900D02*
D03*
X744900Y941700D02*
D03*
X396700Y386555D02*
D03*
X386700D02*
D03*
X391700Y398055D02*
D03*
X472631Y641450D02*
D03*
X462631D02*
D03*
X467631Y652950D02*
D03*
X444300Y640850D02*
D03*
X434300D02*
D03*
X439300Y652350D02*
D03*
X415854Y640755D02*
D03*
X405854D02*
D03*
X410854Y652255D02*
D03*
D40*
X482910Y806300D02*
D03*
X562510Y806300D02*
D03*
X562410Y761300D02*
D03*
X482910D02*
D03*
X642910Y806300D02*
D03*
X722510Y806300D02*
D03*
X722410Y761300D02*
D03*
X642910D02*
D03*
D41*
X867700Y931200D02*
D03*
X498700Y727200D02*
D03*
D42*
X892700Y931200D02*
D03*
X917700D02*
D03*
Y907200D02*
D03*
X892700D02*
D03*
X867700D02*
D03*
X523700Y727200D02*
D03*
X548700D02*
D03*
Y703200D02*
D03*
X523700D02*
D03*
X498700D02*
D03*
D43*
X295398Y833199D02*
D03*
D44*
X578200Y284200D02*
D03*
Y292200D02*
D03*
Y300200D02*
D03*
Y308200D02*
D03*
Y316200D02*
D03*
Y324200D02*
D03*
Y332200D02*
D03*
Y340200D02*
D03*
Y348200D02*
D03*
Y356200D02*
D03*
Y364200D02*
D03*
Y372200D02*
D03*
X687200D02*
D03*
Y364200D02*
D03*
Y356200D02*
D03*
Y348200D02*
D03*
Y340200D02*
D03*
Y332200D02*
D03*
Y324200D02*
D03*
Y316200D02*
D03*
Y308200D02*
D03*
Y300200D02*
D03*
Y292200D02*
D03*
Y284200D02*
D03*
D45*
X403450Y486700D02*
D03*
Y481700D02*
D03*
Y476700D02*
D03*
Y471700D02*
D03*
Y466700D02*
D03*
Y461700D02*
D03*
Y456700D02*
D03*
Y451700D02*
D03*
Y446700D02*
D03*
Y441700D02*
D03*
Y436700D02*
D03*
Y431700D02*
D03*
X471950D02*
D03*
Y436700D02*
D03*
Y441700D02*
D03*
Y446700D02*
D03*
Y451700D02*
D03*
Y456700D02*
D03*
Y461700D02*
D03*
Y466700D02*
D03*
Y471700D02*
D03*
Y476700D02*
D03*
Y481700D02*
D03*
Y486700D02*
D03*
D46*
X410200Y424950D02*
D03*
X415200D02*
D03*
X420200D02*
D03*
X425200D02*
D03*
X430200D02*
D03*
X435200D02*
D03*
X440200D02*
D03*
X445200D02*
D03*
X450200D02*
D03*
X455200D02*
D03*
X460200D02*
D03*
X465200D02*
D03*
Y493450D02*
D03*
X460200D02*
D03*
X455200D02*
D03*
X450200D02*
D03*
X445200D02*
D03*
X440200D02*
D03*
X435200D02*
D03*
X430200D02*
D03*
X425200D02*
D03*
X420200D02*
D03*
X415200D02*
D03*
X410200D02*
D03*
D47*
X437700Y459200D02*
D03*
D48*
X725700Y885103D02*
D03*
D49*
X718200Y871603D02*
D03*
X723199D02*
D03*
X728199D02*
D03*
X733199D02*
D03*
X733200Y898503D02*
D03*
X728200D02*
D03*
X723200D02*
D03*
X718200D02*
D03*
D50*
X739100Y877603D02*
D03*
Y882603D02*
D03*
Y887603D02*
D03*
Y892603D02*
D03*
X712200Y892603D02*
D03*
Y887603D02*
D03*
Y882603D02*
D03*
Y877603D02*
D03*
D51*
X894230Y834450D02*
D03*
D52*
X879680Y824952D02*
D03*
Y834452D02*
D03*
Y843952D02*
D03*
X908679Y824950D02*
D03*
Y834450D02*
D03*
Y843950D02*
D03*
D53*
X760700Y822200D02*
D03*
X756700D02*
D03*
Y818200D02*
D03*
X760700D02*
D03*
X624487Y954200D02*
D03*
Y958200D02*
D03*
X620487D02*
D03*
Y954200D02*
D03*
X517875Y323266D02*
D03*
Y319266D02*
D03*
X521875D02*
D03*
Y323266D02*
D03*
D54*
X267200Y986113D02*
D03*
Y991113D02*
D03*
Y996113D02*
D03*
Y1001113D02*
D03*
X282200D02*
D03*
Y996113D02*
D03*
Y991113D02*
D03*
Y986113D02*
D03*
D55*
X272200D02*
D03*
X277200D02*
D03*
X272200Y1001113D02*
D03*
X277200D02*
D03*
D56*
X282243Y967425D02*
D03*
D57*
X267243Y962425D02*
D03*
X297243D02*
D03*
Y967425D02*
D03*
X267243D02*
D03*
Y972425D02*
D03*
X297243D02*
D03*
D58*
X270950Y1036950D02*
D03*
X277450D02*
D03*
X283950D02*
D03*
X290450D02*
D03*
Y1057450D02*
D03*
X283950D02*
D03*
X277450D02*
D03*
X270950D02*
D03*
D59*
X699300Y982000D02*
D03*
X704300D02*
D03*
X709300D02*
D03*
Y972500D02*
D03*
X704300D02*
D03*
X699300D02*
D03*
X884700Y981950D02*
D03*
X889700D02*
D03*
X894700D02*
D03*
Y972450D02*
D03*
X889700D02*
D03*
X884700D02*
D03*
D60*
X532710Y945200D02*
D03*
X572710Y860200D02*
D03*
X532710D02*
D03*
X557710Y945200D02*
D03*
X572710D02*
D03*
X547710D02*
D03*
X552710D02*
D03*
X587710Y860200D02*
D03*
Y945200D02*
D03*
X577710D02*
D03*
X582710D02*
D03*
X562710Y860200D02*
D03*
X542710Y945200D02*
D03*
X557710Y860200D02*
D03*
X552710D02*
D03*
X567710Y945200D02*
D03*
X537710Y860200D02*
D03*
X542710D02*
D03*
X562710Y945200D02*
D03*
X582710Y860200D02*
D03*
X547710D02*
D03*
X537710Y945200D02*
D03*
X567710Y860200D02*
D03*
X577710D02*
D03*
D61*
X602710Y930200D02*
D03*
Y920200D02*
D03*
X517710Y890200D02*
D03*
Y900200D02*
D03*
X602710Y915200D02*
D03*
X517710Y885200D02*
D03*
Y875200D02*
D03*
X602710Y900200D02*
D03*
Y875200D02*
D03*
Y890200D02*
D03*
Y895200D02*
D03*
Y885200D02*
D03*
X517710Y930200D02*
D03*
Y895200D02*
D03*
X602710Y880200D02*
D03*
Y925200D02*
D03*
Y910200D02*
D03*
X517710Y880200D02*
D03*
X602710Y905200D02*
D03*
X517710Y915200D02*
D03*
Y920200D02*
D03*
Y925200D02*
D03*
Y910200D02*
D03*
Y905200D02*
D03*
D62*
X618545Y906950D02*
D03*
Y901950D02*
D03*
Y896950D02*
D03*
X625845Y906950D02*
D03*
Y901950D02*
D03*
Y896950D02*
D03*
X551802Y345206D02*
D03*
Y350206D02*
D03*
Y355206D02*
D03*
X544502Y345206D02*
D03*
Y350206D02*
D03*
Y355206D02*
D03*
X551700Y380683D02*
D03*
Y385683D02*
D03*
Y390683D02*
D03*
X544400Y380683D02*
D03*
Y385683D02*
D03*
Y390683D02*
D03*
D63*
X400761Y543270D02*
D03*
Y518270D02*
D03*
D64*
X813700Y1008200D02*
D03*
X783700D02*
D03*
D65*
X676850Y1004010D02*
D03*
X681850D02*
D03*
X686850D02*
D03*
X691850D02*
D03*
X696850D02*
D03*
X701850D02*
D03*
X706850D02*
D03*
X711850D02*
D03*
X716850D02*
D03*
X721850D02*
D03*
X726850D02*
D03*
X731850D02*
D03*
X861950D02*
D03*
X866950D02*
D03*
X871950D02*
D03*
X876950D02*
D03*
X881950D02*
D03*
X886950D02*
D03*
X891950D02*
D03*
X896950D02*
D03*
X901950D02*
D03*
X906950D02*
D03*
X911950D02*
D03*
X916950D02*
D03*
D66*
X734330Y1020010D02*
D03*
X729330D02*
D03*
X724330D02*
D03*
X719330D02*
D03*
X714330D02*
D03*
X709330D02*
D03*
X704330D02*
D03*
X699330D02*
D03*
X694330D02*
D03*
X689330D02*
D03*
X684330D02*
D03*
X679330D02*
D03*
X919430D02*
D03*
X914430D02*
D03*
X909430D02*
D03*
X904430D02*
D03*
X899430D02*
D03*
X894430D02*
D03*
X889430D02*
D03*
X884430D02*
D03*
X879430D02*
D03*
X874430D02*
D03*
X869430D02*
D03*
X864430D02*
D03*
D67*
X896400Y951900D02*
D03*
Y961400D02*
D03*
X758600Y943400D02*
D03*
Y952900D02*
D03*
X752400Y892190D02*
D03*
Y901690D02*
D03*
X502700Y922450D02*
D03*
Y931950D02*
D03*
X491700D02*
D03*
Y922450D02*
D03*
Y902450D02*
D03*
Y911950D02*
D03*
X538700Y833700D02*
D03*
Y843200D02*
D03*
X568200Y842700D02*
D03*
Y833200D02*
D03*
X587700Y833450D02*
D03*
Y842950D02*
D03*
X597700Y833450D02*
D03*
Y842950D02*
D03*
X527700Y833700D02*
D03*
Y843200D02*
D03*
X709500Y959300D02*
D03*
Y949800D02*
D03*
X699300Y959300D02*
D03*
Y949800D02*
D03*
X718400Y981950D02*
D03*
Y972450D02*
D03*
X689400Y981950D02*
D03*
Y972450D02*
D03*
X883100Y947050D02*
D03*
Y956550D02*
D03*
X875700Y981700D02*
D03*
Y972200D02*
D03*
X905700Y981700D02*
D03*
Y972200D02*
D03*
X920700Y843950D02*
D03*
Y834450D02*
D03*
X867700Y824700D02*
D03*
Y834200D02*
D03*
X810529Y811950D02*
D03*
Y802450D02*
D03*
Y782450D02*
D03*
Y791950D02*
D03*
Y763200D02*
D03*
Y753700D02*
D03*
Y725274D02*
D03*
Y734774D02*
D03*
X763700Y920950D02*
D03*
Y911450D02*
D03*
X752700Y920950D02*
D03*
Y911450D02*
D03*
X716300Y920853D02*
D03*
Y911353D02*
D03*
X697300Y920853D02*
D03*
Y911353D02*
D03*
X708700Y854603D02*
D03*
Y864103D02*
D03*
X698700Y854603D02*
D03*
Y864103D02*
D03*
X561323Y333500D02*
D03*
Y324000D02*
D03*
X382093Y427450D02*
D03*
Y436950D02*
D03*
X391700Y408065D02*
D03*
Y417565D02*
D03*
X382093D02*
D03*
Y408065D02*
D03*
X425000Y393024D02*
D03*
Y402524D02*
D03*
X453126Y651069D02*
D03*
Y641569D02*
D03*
X425300Y650350D02*
D03*
Y640850D02*
D03*
X396850Y650170D02*
D03*
Y640670D02*
D03*
X471700Y711450D02*
D03*
Y720950D02*
D03*
X450275Y355950D02*
D03*
Y346450D02*
D03*
X492586Y1049379D02*
D03*
Y1039879D02*
D03*
X613121Y1040300D02*
D03*
Y1049800D02*
D03*
X581200Y1040161D02*
D03*
Y1049661D02*
D03*
X516086Y1049379D02*
D03*
Y1039879D02*
D03*
X546300Y1029985D02*
D03*
Y1039485D02*
D03*
X557700Y1029985D02*
D03*
Y1039485D02*
D03*
D68*
X797950Y791200D02*
D03*
Y781200D02*
D03*
X786450Y786200D02*
D03*
X797950Y735200D02*
D03*
Y725200D02*
D03*
X786450Y730200D02*
D03*
D70*
X750200Y962700D02*
D03*
X740700D02*
D03*
X748650Y991000D02*
D03*
X739150D02*
D03*
X618525Y915200D02*
D03*
X628025D02*
D03*
X578200Y958200D02*
D03*
X587700D02*
D03*
X491950Y892200D02*
D03*
X501450D02*
D03*
X730711Y949200D02*
D03*
X721211D02*
D03*
X721150Y958700D02*
D03*
X730650D02*
D03*
X847400Y990500D02*
D03*
X856900D02*
D03*
X932450Y856200D02*
D03*
X922950D02*
D03*
X857950D02*
D03*
X867450D02*
D03*
X930450Y824200D02*
D03*
X920950D02*
D03*
X749900Y783500D02*
D03*
X740400D02*
D03*
X759450Y798200D02*
D03*
X749950D02*
D03*
X386950Y377121D02*
D03*
X396450D02*
D03*
X388288Y578202D02*
D03*
X397788D02*
D03*
X462450Y366981D02*
D03*
X452950D02*
D03*
X462450Y335121D02*
D03*
X452950D02*
D03*
X324526Y938105D02*
D03*
X315026D02*
D03*
X324526Y948105D02*
D03*
X315026D02*
D03*
D71*
X633700Y964200D02*
D03*
Y954200D02*
D03*
X610700Y964200D02*
D03*
Y954200D02*
D03*
X558500Y843200D02*
D03*
Y833200D02*
D03*
X577700Y843200D02*
D03*
Y833200D02*
D03*
X748700Y819200D02*
D03*
Y829200D02*
D03*
X752300Y881100D02*
D03*
Y871100D02*
D03*
X697300Y901103D02*
D03*
Y891103D02*
D03*
X706700Y921103D02*
D03*
Y911103D02*
D03*
X821692Y571197D02*
D03*
Y561197D02*
D03*
X810700Y571200D02*
D03*
Y561200D02*
D03*
X535152Y355206D02*
D03*
Y345206D02*
D03*
X560700Y390683D02*
D03*
Y380683D02*
D03*
X532300Y389700D02*
D03*
Y379700D02*
D03*
X549600Y324000D02*
D03*
Y334000D02*
D03*
X529875Y322266D02*
D03*
Y312266D02*
D03*
X538875Y312266D02*
D03*
Y322266D02*
D03*
X561152Y355207D02*
D03*
Y345206D02*
D03*
X510875Y331266D02*
D03*
Y321266D02*
D03*
X391441Y427073D02*
D03*
Y437073D02*
D03*
X435000Y402774D02*
D03*
Y392774D02*
D03*
X639700Y778200D02*
D03*
Y788200D02*
D03*
X478700Y789200D02*
D03*
Y779200D02*
D03*
X506700Y494200D02*
D03*
Y484200D02*
D03*
X483700Y494200D02*
D03*
Y484200D02*
D03*
X377500Y451100D02*
D03*
Y461100D02*
D03*
X386722Y451000D02*
D03*
Y461000D02*
D03*
X450200Y515200D02*
D03*
Y505200D02*
D03*
X416800Y516500D02*
D03*
Y526500D02*
D03*
X416859Y537000D02*
D03*
Y547000D02*
D03*
X293205Y999132D02*
D03*
Y989132D02*
D03*
X306065Y999132D02*
D03*
Y989132D02*
D03*
X308470Y963098D02*
D03*
Y973098D02*
D03*
D72*
X878700Y879200D02*
D03*
X388463Y564287D02*
D03*
D73*
X858951Y879200D02*
D03*
X408213Y564287D02*
D03*
D74*
X807941Y435200D02*
D03*
Y402180D02*
D03*
D75*
X806700Y453700D02*
D03*
Y468200D02*
D03*
D76*
X709320Y710558D02*
D03*
X714320D02*
D03*
X719320D02*
D03*
X709320Y717858D02*
D03*
X714320D02*
D03*
X719320D02*
D03*
X680250Y710558D02*
D03*
X685250D02*
D03*
X690250D02*
D03*
X680250Y717858D02*
D03*
X685250D02*
D03*
X690250D02*
D03*
X648542Y710558D02*
D03*
X653542D02*
D03*
X658542D02*
D03*
X648542Y717858D02*
D03*
X653542D02*
D03*
X658542D02*
D03*
X616700Y710558D02*
D03*
X621700D02*
D03*
X626700D02*
D03*
X616700Y717858D02*
D03*
X621700D02*
D03*
X626700D02*
D03*
D77*
X793059Y344559D02*
D03*
X786341Y337841D02*
D03*
X768108Y369628D02*
D03*
X761391Y362911D02*
D03*
D78*
X768801Y353559D02*
D03*
X775519Y346841D02*
D03*
D79*
X501656Y1060200D02*
D03*
X492656D02*
D03*
X613121D02*
D03*
X622121D02*
D03*
X581200D02*
D03*
X590200D02*
D03*
X525200D02*
D03*
X516200D02*
D03*
D87*
X539826Y525270D02*
D03*
Y495270D02*
D03*
Y465270D02*
D03*
Y450270D02*
D03*
X793575Y480270D02*
D03*
Y510270D02*
D03*
D88*
X539826Y480270D02*
D03*
Y510270D02*
D03*
X793575Y525270D02*
D03*
Y495270D02*
D03*
Y465270D02*
D03*
Y450270D02*
D03*
D89*
X539826Y646270D02*
D03*
Y616270D02*
D03*
Y586270D02*
D03*
Y571270D02*
D03*
X793575Y631270D02*
D03*
Y601270D02*
D03*
D90*
X539826Y601270D02*
D03*
Y631270D02*
D03*
X793575Y571270D02*
D03*
Y586270D02*
D03*
Y616270D02*
D03*
Y646270D02*
D03*
D91*
X643700Y420770D02*
D03*
X628701Y420770D02*
D03*
X598701D02*
D03*
X613700Y420770D02*
D03*
X568700D02*
D03*
X583701Y420770D02*
D03*
X764700Y420771D02*
D03*
X749700Y420770D02*
D03*
X719700D02*
D03*
X734700Y420771D02*
D03*
X689700D02*
D03*
X704700Y420770D02*
D03*
X643700Y675769D02*
D03*
X628701Y675770D02*
D03*
X598701D02*
D03*
X613700Y675769D02*
D03*
X568700D02*
D03*
X583701Y675770D02*
D03*
X704700Y675769D02*
D03*
X689700Y675770D02*
D03*
X734700D02*
D03*
X719700Y675769D02*
D03*
X749700D02*
D03*
X764700Y675770D02*
D03*
M02*
