G04*
G04 #@! TF.GenerationSoftware,Altium Limited,Altium Designer,19.0.15 (446)*
G04*
G04 Layer_Color=8388736*
%FSLAX44Y44*%
%MOMM*%
G71*
G01*
G75*
%ADD168C,0.6096*%
%ADD169C,1.8000*%
%ADD170R,2.1032X2.6032*%
%ADD171R,1.6032X0.6032*%
%ADD172R,1.6032X1.2032*%
%ADD173R,0.4032X0.4032*%
%ADD174O,2.6000X1.1000*%
%ADD175O,1.1000X2.6000*%
%ADD176R,1.4032X1.6032*%
%ADD177C,0.4032*%
%ADD178R,2.3032X4.7532*%
%ADD179R,1.7032X2.7032*%
%ADD180R,0.8032X0.7032*%
%ADD181R,1.2032X1.3032*%
%ADD182R,1.2032X3.2032*%
%ADD183R,1.3032X1.0032*%
%ADD184R,1.3032X2.3032*%
%ADD185R,0.8032X0.7032*%
%ADD186R,1.0532X0.9032*%
%ADD187R,0.9532X1.5032*%
%ADD188R,0.8532X1.0032*%
%ADD189R,1.2532X2.4032*%
%ADD190R,1.2032X1.2532*%
%ADD191R,1.6032X0.8032*%
%ADD192R,0.6032X0.8532*%
%ADD193R,1.7532X1.5032*%
%ADD194R,1.2032X1.8032*%
G04:AMPARAMS|DCode=195|XSize=1.2032mm|YSize=1.8032mm|CornerRadius=0.3516mm|HoleSize=0mm|Usage=FLASHONLY|Rotation=0.000|XOffset=0mm|YOffset=0mm|HoleType=Round|Shape=RoundedRectangle|*
%AMROUNDEDRECTD195*
21,1,1.2032,1.1000,0,0,0.0*
21,1,0.5000,1.8032,0,0,0.0*
1,1,0.7032,0.2500,-0.5500*
1,1,0.7032,-0.2500,-0.5500*
1,1,0.7032,-0.2500,0.5500*
1,1,0.7032,0.2500,0.5500*
%
%ADD195ROUNDEDRECTD195*%
%ADD196R,4.0032X2.2332*%
%ADD197R,1.2000X0.7000*%
%ADD198O,1.0532X0.4532*%
%ADD199O,0.4532X1.0532*%
%ADD200R,5.8032X5.8032*%
%ADD201R,1.7032X1.7032*%
%ADD202R,0.4532X0.7032*%
%ADD203R,0.7032X0.4532*%
%ADD204R,1.9532X2.7032*%
%ADD205R,0.9032X0.6532*%
%ADD206C,0.4232*%
%ADD207R,0.4782X0.4532*%
%ADD208R,0.4532X0.4782*%
%ADD209R,1.7032X1.4032*%
%ADD210R,0.6032X0.5032*%
%ADD211R,0.5532X0.7032*%
%ADD212R,0.4532X0.8532*%
%ADD213R,0.4032X1.2032*%
%ADD214R,1.2032X0.4032*%
%ADD215R,0.7282X0.4532*%
%ADD216R,2.0032X1.2032*%
%ADD217R,1.6032X8.7032*%
%ADD218R,0.4732X1.0032*%
%ADD219R,0.4732X1.1032*%
%ADD220R,0.8032X0.8532*%
%ADD221R,0.8532X0.6032*%
%ADD222C,0.7032*%
%ADD223R,0.8532X0.8032*%
%ADD224R,0.7032X0.8032*%
%ADD225R,1.0032X1.3032*%
%ADD226R,2.3032X1.3032*%
%ADD227R,2.7032X1.7032*%
%ADD228R,1.0032X0.8532*%
%ADD229R,0.4532X0.7282*%
G04:AMPARAMS|DCode=230|XSize=0.8032mm|YSize=0.8532mm|CornerRadius=0mm|HoleSize=0mm|Usage=FLASHONLY|Rotation=135.000|XOffset=0mm|YOffset=0mm|HoleType=Round|Shape=Rectangle|*
%AMROTATEDRECTD230*
4,1,4,0.5856,0.0177,-0.0177,-0.5856,-0.5856,-0.0177,0.0177,0.5856,0.5856,0.0177,0.0*
%
%ADD230ROTATEDRECTD230*%

G04:AMPARAMS|DCode=231|XSize=0.8032mm|YSize=0.8532mm|CornerRadius=0mm|HoleSize=0mm|Usage=FLASHONLY|Rotation=225.000|XOffset=0mm|YOffset=0mm|HoleType=Round|Shape=Rectangle|*
%AMROTATEDRECTD231*
4,1,4,-0.0177,0.5856,0.5856,-0.0177,0.0177,-0.5856,-0.5856,0.0177,-0.0177,0.5856,0.0*
%
%ADD231ROTATEDRECTD231*%

%ADD232R,0.7032X0.8032*%
%ADD233R,0.7266X1.1016*%
%ADD234R,0.7266X1.1016*%
%ADD235R,0.7266X1.1016*%
%ADD236R,0.7266X1.1016*%
%ADD237R,1.1016X0.6016*%
%ADD238C,1.7032*%
%ADD239C,0.2032*%
%ADD240C,1.2032*%
%ADD241R,1.2032X1.2032*%
%ADD242O,1.6532X1.3032*%
%ADD243O,1.4032X2.5032*%
%ADD244O,1.5032X2.8032*%
%ADD245R,1.7032X1.7032*%
%ADD246C,3.4032*%
G36*
X385115Y839815D02*
X385244Y839797D01*
X385392Y839778D01*
X385578Y839760D01*
X385596D01*
X385670Y839741D01*
X385781Y839723D01*
X385929Y839704D01*
X386096Y839667D01*
X386300Y839630D01*
X386540Y839593D01*
X386781Y839538D01*
Y832927D01*
X386800D01*
X386818D01*
X386929Y832908D01*
X387077Y832890D01*
X387244Y832871D01*
X387263D01*
X387281D01*
X387374D01*
X387522Y832853D01*
X387670D01*
X387688D01*
X387726D01*
X387781D01*
X387855Y832871D01*
X388059Y832890D01*
X388318Y832946D01*
X388596Y833020D01*
X388892Y833149D01*
X389188Y833316D01*
X389448Y833538D01*
X389466Y833575D01*
X389540Y833668D01*
X389651Y833816D01*
X389762Y834038D01*
X389874Y834316D01*
X389985Y834649D01*
X390059Y835057D01*
X390077Y835501D01*
Y835649D01*
X390059Y835834D01*
X390040Y836056D01*
X390003Y836316D01*
X389929Y836630D01*
X389855Y836964D01*
X389744Y837297D01*
Y837316D01*
X389725Y837334D01*
X389688Y837464D01*
X389614Y837630D01*
X389503Y837852D01*
X389392Y838093D01*
X389262Y838371D01*
X389114Y838630D01*
X388948Y838889D01*
Y838982D01*
X390596Y838649D01*
Y838630D01*
X390614Y838575D01*
X390651Y838501D01*
X390670Y838408D01*
X390762Y838167D01*
X390855Y837908D01*
Y837889D01*
X390873Y837852D01*
X390892Y837778D01*
X390929Y837686D01*
X390966Y837575D01*
X391003Y837427D01*
X391059Y837279D01*
X391096Y837093D01*
Y837075D01*
X391114Y837019D01*
X391133Y836927D01*
X391151Y836797D01*
X391207Y836519D01*
X391262Y836223D01*
Y836205D01*
X391281Y836149D01*
Y836075D01*
X391299Y835964D01*
X391318Y835816D01*
Y835649D01*
X391336Y835464D01*
Y835075D01*
X391318Y834945D01*
Y834797D01*
X391281Y834612D01*
X391262Y834408D01*
X391225Y834186D01*
X391114Y833723D01*
X390966Y833242D01*
X390744Y832760D01*
X390614Y832538D01*
X390466Y832335D01*
X390448Y832316D01*
X390429Y832298D01*
X390373Y832242D01*
X390299Y832168D01*
X390207Y832094D01*
X390096Y832001D01*
X389966Y831909D01*
X389818Y831816D01*
X389651Y831705D01*
X389466Y831612D01*
X389244Y831520D01*
X389022Y831446D01*
X388763Y831372D01*
X388503Y831316D01*
X388226Y831298D01*
X387911Y831279D01*
X387874D01*
X387800D01*
X387670Y831298D01*
X387503D01*
X387281Y831335D01*
X387040Y831353D01*
X386763Y831409D01*
X386466Y831483D01*
X386133Y831557D01*
X385800Y831668D01*
X385448Y831779D01*
X385096Y831927D01*
X384726Y832112D01*
X384374Y832316D01*
X384022Y832557D01*
X383689Y832834D01*
X383670Y832853D01*
X383615Y832908D01*
X383522Y833001D01*
X383411Y833112D01*
X383282Y833260D01*
X383133Y833446D01*
X382967Y833668D01*
X382800Y833908D01*
X382634Y834168D01*
X382467Y834464D01*
X382319Y834779D01*
X382189Y835112D01*
X382078Y835482D01*
X381985Y835853D01*
X381930Y836260D01*
X381911Y836686D01*
Y836834D01*
X381930Y836945D01*
Y837056D01*
X381948Y837204D01*
X382004Y837556D01*
X382096Y837926D01*
X382245Y838315D01*
X382430Y838686D01*
X382689Y839019D01*
Y839037D01*
X382726Y839056D01*
X382837Y839149D01*
X383004Y839278D01*
X383245Y839426D01*
X383541Y839575D01*
X383911Y839704D01*
X384337Y839797D01*
X384559Y839834D01*
X384818D01*
X384837D01*
X384855D01*
X384930D01*
X385004D01*
X385115Y839815D01*
D02*
G37*
G36*
X382133Y846279D02*
Y841279D01*
X380670Y841612D01*
Y846630D01*
X382133Y846279D01*
D02*
G37*
%LPC*%
G36*
X385189Y838371D02*
X385078D01*
X384930D01*
X384911D01*
X384893D01*
X384781D01*
X384633Y838352D01*
X384448Y838315D01*
X384226Y838260D01*
X384004Y838167D01*
X383800Y838056D01*
X383596Y837889D01*
X383578Y837871D01*
X383522Y837797D01*
X383448Y837686D01*
X383356Y837519D01*
X383263Y837316D01*
X383189Y837056D01*
X383133Y836741D01*
X383115Y836371D01*
Y836260D01*
X383133Y836186D01*
X383152Y835964D01*
X383208Y835705D01*
X383282Y835390D01*
X383411Y835038D01*
X383578Y834686D01*
X383819Y834353D01*
Y834334D01*
X383856Y834316D01*
X383948Y834205D01*
X384096Y834057D01*
X384319Y833871D01*
X384578Y833668D01*
X384893Y833464D01*
X385263Y833297D01*
X385670Y833149D01*
Y838297D01*
X385652D01*
X385633D01*
X385541Y838315D01*
X385411Y838334D01*
X385300Y838352D01*
X385263D01*
X385189Y838371D01*
D02*
G37*
%LPD*%
D168*
X678733Y686711D02*
G03*
X678733Y686711I-2794J0D01*
G01*
Y687270D02*
G03*
X678733Y687270I-2794J0D01*
G01*
X595706Y725981D02*
G03*
X595706Y725981I-2794J0D01*
G01*
Y726540D02*
G03*
X595706Y726540I-2794J0D01*
G01*
X542294Y367700D02*
G03*
X542294Y367700I-2794J0D01*
G01*
X542853D02*
G03*
X542853Y367700I-2794J0D01*
G01*
X542053Y404485D02*
G03*
X542053Y404485I-2794J0D01*
G01*
Y403926D02*
G03*
X542053Y403926I-2794J0D01*
G01*
X339115Y558400D02*
G03*
X339115Y558400I-2794J0D01*
G01*
X339674D02*
G03*
X339674Y558400I-2794J0D01*
G01*
X339574Y532858D02*
G03*
X339574Y532858I-2794J0D01*
G01*
X339015D02*
G03*
X339015Y532858I-2794J0D01*
G01*
X451294Y539120D02*
G03*
X451294Y539120I-2794J0D01*
G01*
Y539679D02*
G03*
X451294Y539679I-2794J0D01*
G01*
X466280Y539827D02*
G03*
X466280Y539827I-2794J0D01*
G01*
Y539268D02*
G03*
X466280Y539268I-2794J0D01*
G01*
X415248Y385705D02*
G03*
X415248Y385705I-2794J0D01*
G01*
X414689D02*
G03*
X414689Y385705I-2794J0D01*
G01*
X495494Y1027579D02*
G03*
X495494Y1027579I-2794J0D01*
G01*
Y1028137D02*
G03*
X495494Y1028137I-2794J0D01*
G01*
X480794Y540129D02*
G03*
X480794Y540129I-2794J0D01*
G01*
Y539570D02*
G03*
X480794Y539570I-2794J0D01*
G01*
X495794Y540289D02*
G03*
X495794Y540289I-2794J0D01*
G01*
Y539730D02*
G03*
X495794Y539730I-2794J0D01*
G01*
X465494Y626549D02*
G03*
X465494Y626549I-2794J0D01*
G01*
Y625990D02*
G03*
X465494Y625990I-2794J0D01*
G01*
X437094Y626192D02*
G03*
X437094Y626192I-2794J0D01*
G01*
Y626751D02*
G03*
X437094Y626751I-2794J0D01*
G01*
X408644Y626343D02*
G03*
X408644Y626343I-2794J0D01*
G01*
Y625784D02*
G03*
X408644Y625784I-2794J0D01*
G01*
X340639Y609000D02*
G03*
X340639Y609000I-2794J0D01*
G01*
X340080D02*
G03*
X340080Y609000I-2794J0D01*
G01*
X813416Y513479D02*
G03*
X813416Y513479I-2794J0D01*
G01*
Y512920D02*
G03*
X813416Y512920I-2794J0D01*
G01*
X813748Y532179D02*
G03*
X813748Y532179I-2794J0D01*
G01*
Y531621D02*
G03*
X813748Y531621I-2794J0D01*
G01*
X813215Y586200D02*
G03*
X813215Y586200I-2794J0D01*
G01*
X813774D02*
G03*
X813774Y586200I-2794J0D01*
G01*
X813674Y602200D02*
G03*
X813674Y602200I-2794J0D01*
G01*
X813115D02*
G03*
X813115Y602200I-2794J0D01*
G01*
X590815Y392904D02*
G03*
X590815Y392904I-2794J0D01*
G01*
X591374D02*
G03*
X591374Y392904I-2794J0D01*
G01*
X595820Y707351D02*
G03*
X595820Y707351I-2794J0D01*
G01*
Y707910D02*
G03*
X595820Y707910I-2794J0D01*
G01*
X662094Y686711D02*
G03*
X662094Y686711I-2794J0D01*
G01*
Y687270D02*
G03*
X662094Y687270I-2794J0D01*
G01*
X559553Y404585D02*
G03*
X559553Y404585I-2794J0D01*
G01*
Y404026D02*
G03*
X559553Y404026I-2794J0D01*
G01*
X628494Y1045479D02*
G03*
X628494Y1045479I-2794J0D01*
G01*
Y1044921D02*
G03*
X628494Y1044921I-2794J0D01*
G01*
X596494D02*
G03*
X596494Y1044921I-2794J0D01*
G01*
Y1045479D02*
G03*
X596494Y1045479I-2794J0D01*
G01*
X324395Y1055800D02*
G03*
X324395Y1055800I-2794J0D01*
G01*
X323837D02*
G03*
X323837Y1055800I-2794J0D01*
G01*
X324107Y998959D02*
G03*
X324107Y998959I-2794J0D01*
G01*
X324665D02*
G03*
X324665Y998959I-2794J0D01*
G01*
Y963183D02*
G03*
X324665Y963183I-2794J0D01*
G01*
X324107D02*
G03*
X324107Y963183I-2794J0D01*
G01*
X659515Y842700D02*
G03*
X659515Y842700I-2794J0D01*
G01*
X660074D02*
G03*
X660074Y842700I-2794J0D01*
G01*
X660274Y868200D02*
G03*
X660274Y868200I-2794J0D01*
G01*
X659715D02*
G03*
X659715Y868200I-2794J0D01*
G01*
X289898Y869100D02*
G03*
X289898Y869100I-2794J0D01*
G01*
Y869659D02*
G03*
X289898Y869659I-2794J0D01*
G01*
X392094Y869100D02*
G03*
X392094Y869100I-2794J0D01*
G01*
Y869659D02*
G03*
X392094Y869659I-2794J0D01*
G01*
X362698D02*
G03*
X362698Y869659I-2794J0D01*
G01*
Y869100D02*
G03*
X362698Y869100I-2794J0D01*
G01*
X333698D02*
G03*
X333698Y869100I-2794J0D01*
G01*
Y869659D02*
G03*
X333698Y869659I-2794J0D01*
G01*
X481494Y934299D02*
G03*
X481494Y934299I-2794J0D01*
G01*
Y934857D02*
G03*
X481494Y934857I-2794J0D01*
G01*
X319298Y869100D02*
G03*
X319298Y869100I-2794J0D01*
G01*
Y869659D02*
G03*
X319298Y869659I-2794J0D01*
G01*
X347998D02*
G03*
X347998Y869659I-2794J0D01*
G01*
Y869100D02*
G03*
X347998Y869100I-2794J0D01*
G01*
X304598Y869659D02*
G03*
X304598Y869659I-2794J0D01*
G01*
Y869100D02*
G03*
X304598Y869100I-2794J0D01*
G01*
X377094Y869659D02*
G03*
X377094Y869659I-2794J0D01*
G01*
Y869100D02*
G03*
X377094Y869100I-2794J0D01*
G01*
X814050Y495900D02*
G03*
X814050Y495900I-2794J0D01*
G01*
X481494Y919174D02*
G03*
X481494Y919174I-2794J0D01*
G01*
Y904050D02*
G03*
X481494Y904050I-2794J0D01*
G01*
X608194Y393325D02*
G03*
X608194Y393325I-2794J0D01*
G01*
X559794Y367690D02*
G03*
X559794Y367690I-2794J0D01*
G01*
X704469Y332200D02*
G03*
X704469Y332200I-2794J0D01*
G01*
X415020Y371388D02*
G03*
X415020Y371388I-2794J0D01*
G01*
X497520Y485200D02*
G03*
X497520Y485200I-2794J0D01*
G01*
X436794Y539342D02*
G03*
X436794Y539342I-2794J0D01*
G01*
D169*
X984060Y1024080D02*
D03*
X221060Y322080D02*
D03*
X273410Y928700D02*
D03*
X871030Y318890D02*
D03*
D170*
X450460Y839400D02*
D03*
X491460D02*
D03*
D171*
X450275Y292009D02*
D03*
D172*
Y270349D02*
D03*
D173*
X445151Y397330D02*
D03*
X450151D02*
D03*
Y403200D02*
D03*
X445151D02*
D03*
Y409070D02*
D03*
X450151D02*
D03*
D174*
X784200Y646270D02*
D03*
Y631270D02*
D03*
Y616270D02*
D03*
Y601270D02*
D03*
Y586270D02*
D03*
Y571270D02*
D03*
Y525270D02*
D03*
Y510270D02*
D03*
Y495270D02*
D03*
Y480270D02*
D03*
Y465270D02*
D03*
Y450270D02*
D03*
X549200D02*
D03*
Y465270D02*
D03*
Y480270D02*
D03*
Y495270D02*
D03*
Y510270D02*
D03*
Y525270D02*
D03*
Y571270D02*
D03*
Y586270D02*
D03*
Y601270D02*
D03*
Y616270D02*
D03*
Y631270D02*
D03*
Y646270D02*
D03*
D175*
X764700Y430770D02*
D03*
X749700D02*
D03*
X734700D02*
D03*
X719700D02*
D03*
X704700D02*
D03*
X689700D02*
D03*
X643700D02*
D03*
X628700D02*
D03*
X613700D02*
D03*
X598700D02*
D03*
X583700D02*
D03*
X568700D02*
D03*
Y665770D02*
D03*
X583700D02*
D03*
X598700D02*
D03*
X613700D02*
D03*
X628700D02*
D03*
X643700D02*
D03*
X689700D02*
D03*
X704700D02*
D03*
X719700D02*
D03*
X734700D02*
D03*
X749700D02*
D03*
X764700D02*
D03*
D176*
X497200Y418800D02*
D03*
X513200D02*
D03*
Y396800D02*
D03*
X497200D02*
D03*
D177*
X675939Y683613D02*
D03*
Y690369D02*
D03*
X592912Y722882D02*
D03*
Y729638D02*
D03*
X536401Y367700D02*
D03*
X543158D02*
D03*
X539259Y407583D02*
D03*
Y400827D02*
D03*
X333222Y558400D02*
D03*
X339978D02*
D03*
X339878Y532858D02*
D03*
X333122D02*
D03*
X448500Y536022D02*
D03*
Y542778D02*
D03*
X463486Y542925D02*
D03*
Y536169D02*
D03*
X415553Y385705D02*
D03*
X408797D02*
D03*
X492700Y1024480D02*
D03*
Y1031236D02*
D03*
X478000Y543228D02*
D03*
Y536472D02*
D03*
X493000Y543388D02*
D03*
Y536632D02*
D03*
X462700Y629648D02*
D03*
Y622892D02*
D03*
X434300Y623094D02*
D03*
Y629850D02*
D03*
X405850Y629442D02*
D03*
Y622685D02*
D03*
X340944Y609000D02*
D03*
X334187D02*
D03*
X810622Y516578D02*
D03*
Y509822D02*
D03*
X810954Y535278D02*
D03*
Y528522D02*
D03*
X807322Y586200D02*
D03*
X814078D02*
D03*
X813978Y602200D02*
D03*
X807222D02*
D03*
X584922Y392904D02*
D03*
X591678D02*
D03*
X593026Y704252D02*
D03*
Y711008D02*
D03*
X659300Y683613D02*
D03*
Y690369D02*
D03*
X556759Y407683D02*
D03*
Y400927D02*
D03*
X625700Y1048578D02*
D03*
Y1041822D02*
D03*
X593700D02*
D03*
Y1048578D02*
D03*
X324700Y1055800D02*
D03*
X317944D02*
D03*
X318214Y998959D02*
D03*
X324970D02*
D03*
Y963183D02*
D03*
X318214D02*
D03*
X653622Y842700D02*
D03*
X660378D02*
D03*
X660578Y868200D02*
D03*
X653822D02*
D03*
X287104Y866001D02*
D03*
Y872757D02*
D03*
X389300Y866001D02*
D03*
Y872757D02*
D03*
X359904D02*
D03*
Y866001D02*
D03*
X330904D02*
D03*
Y872757D02*
D03*
X478700Y931200D02*
D03*
Y937956D02*
D03*
X316504Y866001D02*
D03*
Y872757D02*
D03*
X345204D02*
D03*
Y866001D02*
D03*
X301804Y872757D02*
D03*
Y866001D02*
D03*
X374300Y872757D02*
D03*
Y866001D02*
D03*
X814354Y495900D02*
D03*
X808106D02*
D03*
X478700Y922324D02*
D03*
Y916076D02*
D03*
Y907200D02*
D03*
Y900952D02*
D03*
X605400Y390176D02*
D03*
Y396424D02*
D03*
X560150Y367690D02*
D03*
X553901D02*
D03*
X704824Y332200D02*
D03*
X698576D02*
D03*
X409076Y371388D02*
D03*
X415324D02*
D03*
X491576Y485200D02*
D03*
X497824D02*
D03*
X434000Y536193D02*
D03*
Y542441D02*
D03*
D178*
X770200Y862109D02*
D03*
X833199D02*
D03*
D179*
X901230Y880200D02*
D03*
X934250D02*
D03*
D180*
X748900Y971900D02*
D03*
X738900D02*
D03*
X432700Y938853D02*
D03*
X422700D02*
D03*
X399700D02*
D03*
X409700D02*
D03*
X376700D02*
D03*
X386700D02*
D03*
X526700Y958200D02*
D03*
X536700D02*
D03*
X611010Y943200D02*
D03*
X621010D02*
D03*
X628700Y888200D02*
D03*
X618700D02*
D03*
X501700Y877200D02*
D03*
X491700D02*
D03*
X748800Y981100D02*
D03*
X738800D02*
D03*
X847400Y980500D02*
D03*
X857400D02*
D03*
X847400Y971300D02*
D03*
X857400D02*
D03*
X909700Y856708D02*
D03*
X899700D02*
D03*
X878700D02*
D03*
X888700D02*
D03*
X867700Y845371D02*
D03*
X857700D02*
D03*
X749160Y809200D02*
D03*
X759160D02*
D03*
X739600Y910945D02*
D03*
X729600D02*
D03*
X817560Y450200D02*
D03*
X827560D02*
D03*
X817700Y460200D02*
D03*
X827700D02*
D03*
X817700Y469200D02*
D03*
X827700D02*
D03*
X719250Y700276D02*
D03*
X709250D02*
D03*
X719250Y726430D02*
D03*
X709250D02*
D03*
X691250Y700276D02*
D03*
X681250D02*
D03*
X690250Y728640D02*
D03*
X680250D02*
D03*
X658588Y726430D02*
D03*
X648588D02*
D03*
X658448Y700276D02*
D03*
X648448D02*
D03*
X626800Y728640D02*
D03*
X616800D02*
D03*
X625700Y700276D02*
D03*
X615700D02*
D03*
X465400Y410700D02*
D03*
X475400D02*
D03*
X465400Y401700D02*
D03*
X475400D02*
D03*
X510400Y379683D02*
D03*
X500400D02*
D03*
X501960Y862110D02*
D03*
X491960D02*
D03*
X459150Y862380D02*
D03*
X449150D02*
D03*
X510200Y435000D02*
D03*
X500200D02*
D03*
X398210Y503090D02*
D03*
X388210D02*
D03*
X388038Y590202D02*
D03*
X398038D02*
D03*
X363700Y929853D02*
D03*
X353700D02*
D03*
X363700Y938853D02*
D03*
X353700D02*
D03*
X275700Y1068200D02*
D03*
X285700D02*
D03*
D181*
X399100Y1070314D02*
D03*
X424500D02*
D03*
X373700D02*
D03*
X424300Y952214D02*
D03*
X373500D02*
D03*
X398900D02*
D03*
D182*
X346100Y1011314D02*
D03*
X452100D02*
D03*
D183*
X489700Y976950D02*
D03*
D184*
X489700Y957200D02*
D03*
D185*
X556700Y1060700D02*
D03*
Y1051700D02*
D03*
X547700Y1060700D02*
D03*
Y1051700D02*
D03*
D186*
X814700Y956700D02*
D03*
Y941700D02*
D03*
D187*
X485950Y470200D02*
D03*
X503450D02*
D03*
D188*
X522300Y333860D02*
D03*
X536800D02*
D03*
X351790Y456900D02*
D03*
X366290D02*
D03*
D189*
X720100Y294200D02*
D03*
X746700D02*
D03*
X776400Y294000D02*
D03*
X803000D02*
D03*
D190*
X733400Y309400D02*
D03*
X789700Y309200D02*
D03*
D191*
X773700Y812200D02*
D03*
X795700Y822200D02*
D03*
Y802200D02*
D03*
X799700Y912200D02*
D03*
X777700Y902200D02*
D03*
Y922200D02*
D03*
X834700Y912025D02*
D03*
X812700Y902025D02*
D03*
Y922025D02*
D03*
X799700Y946200D02*
D03*
X777700Y936200D02*
D03*
Y956200D02*
D03*
X773700Y759200D02*
D03*
X795700Y769200D02*
D03*
Y749200D02*
D03*
D192*
X739900Y953200D02*
D03*
X749900D02*
D03*
X744900Y941700D02*
D03*
X396700Y386555D02*
D03*
X386700D02*
D03*
X391700Y398055D02*
D03*
X472631Y641450D02*
D03*
X462631D02*
D03*
X467631Y652950D02*
D03*
X444300Y640850D02*
D03*
X434300D02*
D03*
X439300Y652350D02*
D03*
X415854Y640755D02*
D03*
X405854D02*
D03*
X410854Y652255D02*
D03*
D193*
X482910Y806300D02*
D03*
X562510Y806300D02*
D03*
X562410Y761300D02*
D03*
X482910D02*
D03*
X642910Y806300D02*
D03*
X722510Y806300D02*
D03*
X722410Y761300D02*
D03*
X642910D02*
D03*
D194*
X867700Y931200D02*
D03*
X498700Y727200D02*
D03*
D195*
X892700Y931200D02*
D03*
X917700D02*
D03*
Y907200D02*
D03*
X892700D02*
D03*
X867700D02*
D03*
X523700Y727200D02*
D03*
X548700D02*
D03*
Y703200D02*
D03*
X523700D02*
D03*
X498700D02*
D03*
D196*
X295398Y833199D02*
D03*
D197*
X578200Y284200D02*
D03*
Y292200D02*
D03*
Y300200D02*
D03*
Y308200D02*
D03*
Y316200D02*
D03*
Y324200D02*
D03*
Y332200D02*
D03*
Y340200D02*
D03*
Y348200D02*
D03*
Y356200D02*
D03*
Y364200D02*
D03*
Y372200D02*
D03*
X687200D02*
D03*
Y364200D02*
D03*
Y356200D02*
D03*
Y348200D02*
D03*
Y340200D02*
D03*
Y332200D02*
D03*
Y324200D02*
D03*
Y316200D02*
D03*
Y308200D02*
D03*
Y300200D02*
D03*
Y292200D02*
D03*
Y284200D02*
D03*
D198*
X403450Y486700D02*
D03*
Y481700D02*
D03*
Y476700D02*
D03*
Y471700D02*
D03*
Y466700D02*
D03*
Y461700D02*
D03*
Y456700D02*
D03*
Y451700D02*
D03*
Y446700D02*
D03*
Y441700D02*
D03*
Y436700D02*
D03*
Y431700D02*
D03*
X471950D02*
D03*
Y436700D02*
D03*
Y441700D02*
D03*
Y446700D02*
D03*
Y451700D02*
D03*
Y456700D02*
D03*
Y461700D02*
D03*
Y466700D02*
D03*
Y471700D02*
D03*
Y476700D02*
D03*
Y481700D02*
D03*
Y486700D02*
D03*
D199*
X410200Y424950D02*
D03*
X415200D02*
D03*
X420200D02*
D03*
X425200D02*
D03*
X430200D02*
D03*
X435200D02*
D03*
X440200D02*
D03*
X445200D02*
D03*
X450200D02*
D03*
X455200D02*
D03*
X460200D02*
D03*
X465200D02*
D03*
Y493450D02*
D03*
X460200D02*
D03*
X455200D02*
D03*
X450200D02*
D03*
X445200D02*
D03*
X440200D02*
D03*
X435200D02*
D03*
X430200D02*
D03*
X425200D02*
D03*
X420200D02*
D03*
X415200D02*
D03*
X410200D02*
D03*
D200*
X437700Y459200D02*
D03*
D201*
X725700Y885103D02*
D03*
X362700Y660200D02*
D03*
X845300Y304430D02*
D03*
X362700Y431430D02*
D03*
X845300Y522870D02*
D03*
X286700Y787030D02*
D03*
X625700Y842721D02*
D03*
X896100Y787030D02*
D03*
D202*
X718200Y871603D02*
D03*
X723199D02*
D03*
X728199D02*
D03*
X733199D02*
D03*
X733200Y898503D02*
D03*
X728200D02*
D03*
X723200D02*
D03*
X718200D02*
D03*
D203*
X739100Y877603D02*
D03*
Y882603D02*
D03*
Y887603D02*
D03*
Y892603D02*
D03*
X712200Y892603D02*
D03*
Y887603D02*
D03*
Y882603D02*
D03*
Y877603D02*
D03*
D204*
X894230Y834450D02*
D03*
D205*
X879680Y824952D02*
D03*
Y834452D02*
D03*
Y843952D02*
D03*
X908679Y824950D02*
D03*
Y834450D02*
D03*
Y843950D02*
D03*
D206*
X760700Y822200D02*
D03*
X756700D02*
D03*
Y818200D02*
D03*
X760700D02*
D03*
X624487Y954200D02*
D03*
Y958200D02*
D03*
X620487D02*
D03*
Y954200D02*
D03*
X517875Y323266D02*
D03*
Y319266D02*
D03*
X521875D02*
D03*
Y323266D02*
D03*
D207*
X267200Y986113D02*
D03*
Y991113D02*
D03*
Y996113D02*
D03*
Y1001113D02*
D03*
X282200D02*
D03*
Y996113D02*
D03*
Y991113D02*
D03*
Y986113D02*
D03*
D208*
X272200D02*
D03*
X277200D02*
D03*
X272200Y1001113D02*
D03*
X277200D02*
D03*
D209*
X282243Y967425D02*
D03*
D210*
X267243Y962425D02*
D03*
X297243D02*
D03*
Y967425D02*
D03*
X267243D02*
D03*
Y972425D02*
D03*
X297243D02*
D03*
D211*
X270950Y1036950D02*
D03*
X277450D02*
D03*
X283950D02*
D03*
X290450D02*
D03*
Y1057450D02*
D03*
X283950D02*
D03*
X277450D02*
D03*
X270950D02*
D03*
D212*
X699300Y982000D02*
D03*
X704300D02*
D03*
X709300D02*
D03*
Y972500D02*
D03*
X704300D02*
D03*
X699300D02*
D03*
X884700Y981950D02*
D03*
X889700D02*
D03*
X894700D02*
D03*
Y972450D02*
D03*
X889700D02*
D03*
X884700D02*
D03*
D213*
X532710Y945200D02*
D03*
X572710Y860200D02*
D03*
X532710D02*
D03*
X557710Y945200D02*
D03*
X572710D02*
D03*
X547710D02*
D03*
X552710D02*
D03*
X587710Y860200D02*
D03*
Y945200D02*
D03*
X577710D02*
D03*
X582710D02*
D03*
X562710Y860200D02*
D03*
X542710Y945200D02*
D03*
X557710Y860200D02*
D03*
X552710D02*
D03*
X567710Y945200D02*
D03*
X537710Y860200D02*
D03*
X542710D02*
D03*
X562710Y945200D02*
D03*
X582710Y860200D02*
D03*
X547710D02*
D03*
X537710Y945200D02*
D03*
X567710Y860200D02*
D03*
X577710D02*
D03*
D214*
X602710Y930200D02*
D03*
Y920200D02*
D03*
X517710Y890200D02*
D03*
Y900200D02*
D03*
X602710Y915200D02*
D03*
X517710Y885200D02*
D03*
Y875200D02*
D03*
X602710Y900200D02*
D03*
Y875200D02*
D03*
Y890200D02*
D03*
Y895200D02*
D03*
Y885200D02*
D03*
X517710Y930200D02*
D03*
Y895200D02*
D03*
X602710Y880200D02*
D03*
Y925200D02*
D03*
Y910200D02*
D03*
X517710Y880200D02*
D03*
X602710Y905200D02*
D03*
X517710Y915200D02*
D03*
Y920200D02*
D03*
Y925200D02*
D03*
Y910200D02*
D03*
Y905200D02*
D03*
D215*
X618545Y906950D02*
D03*
Y901950D02*
D03*
Y896950D02*
D03*
X625845Y906950D02*
D03*
Y901950D02*
D03*
Y896950D02*
D03*
X551802Y345206D02*
D03*
Y350206D02*
D03*
Y355206D02*
D03*
X544502Y345206D02*
D03*
Y350206D02*
D03*
Y355206D02*
D03*
X551700Y380683D02*
D03*
Y385683D02*
D03*
Y390683D02*
D03*
X544400Y380683D02*
D03*
Y385683D02*
D03*
Y390683D02*
D03*
D216*
X400761Y543270D02*
D03*
Y518270D02*
D03*
D217*
X813700Y1008200D02*
D03*
X783700D02*
D03*
D218*
X676850Y1004010D02*
D03*
X681850D02*
D03*
X686850D02*
D03*
X691850D02*
D03*
X696850D02*
D03*
X701850D02*
D03*
X706850D02*
D03*
X711850D02*
D03*
X716850D02*
D03*
X721850D02*
D03*
X726850D02*
D03*
X731850D02*
D03*
X861950D02*
D03*
X866950D02*
D03*
X871950D02*
D03*
X876950D02*
D03*
X881950D02*
D03*
X886950D02*
D03*
X891950D02*
D03*
X896950D02*
D03*
X901950D02*
D03*
X906950D02*
D03*
X911950D02*
D03*
X916950D02*
D03*
D219*
X734330Y1020010D02*
D03*
X729330D02*
D03*
X724330D02*
D03*
X719330D02*
D03*
X714330D02*
D03*
X709330D02*
D03*
X704330D02*
D03*
X699330D02*
D03*
X694330D02*
D03*
X689330D02*
D03*
X684330D02*
D03*
X679330D02*
D03*
X919430D02*
D03*
X914430D02*
D03*
X909430D02*
D03*
X904430D02*
D03*
X899430D02*
D03*
X894430D02*
D03*
X889430D02*
D03*
X884430D02*
D03*
X879430D02*
D03*
X874430D02*
D03*
X869430D02*
D03*
X864430D02*
D03*
D220*
X896400Y951900D02*
D03*
Y961400D02*
D03*
X758600Y943400D02*
D03*
Y952900D02*
D03*
X752400Y892190D02*
D03*
Y901690D02*
D03*
X502700Y922450D02*
D03*
Y931950D02*
D03*
X491700D02*
D03*
Y922450D02*
D03*
Y902450D02*
D03*
Y911950D02*
D03*
X538700Y833700D02*
D03*
Y843200D02*
D03*
X568200Y842700D02*
D03*
Y833200D02*
D03*
X587700Y833450D02*
D03*
Y842950D02*
D03*
X597700Y833450D02*
D03*
Y842950D02*
D03*
X527700Y833700D02*
D03*
Y843200D02*
D03*
X709500Y959300D02*
D03*
Y949800D02*
D03*
X699300Y959300D02*
D03*
Y949800D02*
D03*
X718400Y981950D02*
D03*
Y972450D02*
D03*
X689400Y981950D02*
D03*
Y972450D02*
D03*
X883100Y947050D02*
D03*
Y956550D02*
D03*
X875700Y981700D02*
D03*
Y972200D02*
D03*
X905700Y981700D02*
D03*
Y972200D02*
D03*
X920700Y843950D02*
D03*
Y834450D02*
D03*
X867700Y824700D02*
D03*
Y834200D02*
D03*
X810529Y811950D02*
D03*
Y802450D02*
D03*
Y782450D02*
D03*
Y791950D02*
D03*
Y763200D02*
D03*
Y753700D02*
D03*
Y725274D02*
D03*
Y734774D02*
D03*
X763700Y920950D02*
D03*
Y911450D02*
D03*
X752700Y920950D02*
D03*
Y911450D02*
D03*
X716300Y920853D02*
D03*
Y911353D02*
D03*
X697300Y920853D02*
D03*
Y911353D02*
D03*
X708700Y854603D02*
D03*
Y864103D02*
D03*
X698700Y854603D02*
D03*
Y864103D02*
D03*
X561323Y333500D02*
D03*
Y324000D02*
D03*
X382093Y427450D02*
D03*
Y436950D02*
D03*
X391700Y408065D02*
D03*
Y417565D02*
D03*
X382093D02*
D03*
Y408065D02*
D03*
X425000Y393024D02*
D03*
Y402524D02*
D03*
X453126Y651069D02*
D03*
Y641569D02*
D03*
X425300Y650350D02*
D03*
Y640850D02*
D03*
X396850Y650170D02*
D03*
Y640670D02*
D03*
X471700Y711450D02*
D03*
Y720950D02*
D03*
X450275Y355950D02*
D03*
Y346450D02*
D03*
X492586Y1049379D02*
D03*
Y1039879D02*
D03*
X613121Y1040300D02*
D03*
Y1049800D02*
D03*
X581200Y1040161D02*
D03*
Y1049661D02*
D03*
X516086Y1049379D02*
D03*
Y1039879D02*
D03*
X546300Y1029985D02*
D03*
Y1039485D02*
D03*
X557700Y1029985D02*
D03*
Y1039485D02*
D03*
D221*
X797950Y791200D02*
D03*
Y781200D02*
D03*
X786450Y786200D02*
D03*
X797950Y735200D02*
D03*
Y725200D02*
D03*
X786450Y730200D02*
D03*
D222*
X608010Y749300D02*
D03*
X914620Y954910D02*
D03*
X644210Y952000D02*
D03*
X493870Y986000D02*
D03*
X527060Y976980D02*
D03*
X336000Y937650D02*
D03*
X823660Y484640D02*
D03*
X417300Y575820D02*
D03*
X525570Y344020D02*
D03*
X874414Y433336D02*
D03*
D223*
X750200Y962700D02*
D03*
X740700D02*
D03*
X748650Y991000D02*
D03*
X739150D02*
D03*
X618525Y915200D02*
D03*
X628025D02*
D03*
X578200Y958200D02*
D03*
X587700D02*
D03*
X491950Y892200D02*
D03*
X501450D02*
D03*
X730711Y949200D02*
D03*
X721211D02*
D03*
X721150Y958700D02*
D03*
X730650D02*
D03*
X847400Y990500D02*
D03*
X856900D02*
D03*
X932450Y856200D02*
D03*
X922950D02*
D03*
X857950D02*
D03*
X867450D02*
D03*
X930450Y824200D02*
D03*
X920950D02*
D03*
X749900Y783500D02*
D03*
X740400D02*
D03*
X759450Y798200D02*
D03*
X749950D02*
D03*
X386950Y377121D02*
D03*
X396450D02*
D03*
X388288Y578202D02*
D03*
X397788D02*
D03*
X462450Y366981D02*
D03*
X452950D02*
D03*
X462450Y335121D02*
D03*
X452950D02*
D03*
X324526Y938105D02*
D03*
X315026D02*
D03*
X324526Y948105D02*
D03*
X315026D02*
D03*
D224*
X633700Y964200D02*
D03*
Y954200D02*
D03*
X610700Y964200D02*
D03*
Y954200D02*
D03*
X558500Y843200D02*
D03*
Y833200D02*
D03*
X577700Y843200D02*
D03*
Y833200D02*
D03*
X748700Y819200D02*
D03*
Y829200D02*
D03*
X752300Y881100D02*
D03*
Y871100D02*
D03*
X697300Y901103D02*
D03*
Y891103D02*
D03*
X706700Y921103D02*
D03*
Y911103D02*
D03*
X821692Y571197D02*
D03*
Y561197D02*
D03*
X810700Y571200D02*
D03*
Y561200D02*
D03*
X535152Y355206D02*
D03*
Y345206D02*
D03*
X560700Y390683D02*
D03*
Y380683D02*
D03*
X532300Y389700D02*
D03*
Y379700D02*
D03*
X549600Y324000D02*
D03*
Y334000D02*
D03*
X529875Y322266D02*
D03*
Y312266D02*
D03*
X538875Y312266D02*
D03*
Y322266D02*
D03*
X561152Y355207D02*
D03*
Y345206D02*
D03*
X510875Y331266D02*
D03*
Y321266D02*
D03*
X391441Y427073D02*
D03*
Y437073D02*
D03*
X435000Y402774D02*
D03*
Y392774D02*
D03*
X639700Y778200D02*
D03*
Y788200D02*
D03*
X478700Y789200D02*
D03*
Y779200D02*
D03*
X506700Y494200D02*
D03*
Y484200D02*
D03*
X483700Y494200D02*
D03*
Y484200D02*
D03*
X377500Y451100D02*
D03*
Y461100D02*
D03*
X386722Y451000D02*
D03*
Y461000D02*
D03*
X450200Y515200D02*
D03*
Y505200D02*
D03*
X416800Y516500D02*
D03*
Y526500D02*
D03*
X416859Y537000D02*
D03*
Y547000D02*
D03*
X293205Y999132D02*
D03*
Y989132D02*
D03*
X306065Y999132D02*
D03*
Y989132D02*
D03*
X308470Y963098D02*
D03*
Y973098D02*
D03*
D225*
X878700Y879200D02*
D03*
X388463Y564287D02*
D03*
D226*
X858951Y879200D02*
D03*
X408213Y564287D02*
D03*
D227*
X807941Y435200D02*
D03*
Y402180D02*
D03*
D228*
X806700Y453700D02*
D03*
Y468200D02*
D03*
D229*
X709320Y710558D02*
D03*
X714320D02*
D03*
X719320D02*
D03*
X709320Y717858D02*
D03*
X714320D02*
D03*
X719320D02*
D03*
X680250Y710558D02*
D03*
X685250D02*
D03*
X690250D02*
D03*
X680250Y717858D02*
D03*
X685250D02*
D03*
X690250D02*
D03*
X648542Y710558D02*
D03*
X653542D02*
D03*
X658542D02*
D03*
X648542Y717858D02*
D03*
X653542D02*
D03*
X658542D02*
D03*
X616700Y710558D02*
D03*
X621700D02*
D03*
X626700D02*
D03*
X616700Y717858D02*
D03*
X621700D02*
D03*
X626700D02*
D03*
D230*
X793059Y344559D02*
D03*
X786341Y337841D02*
D03*
X768108Y369628D02*
D03*
X761391Y362911D02*
D03*
D231*
X768801Y353559D02*
D03*
X775519Y346841D02*
D03*
D232*
X501656Y1060200D02*
D03*
X492656D02*
D03*
X613121D02*
D03*
X622121D02*
D03*
X581200D02*
D03*
X590200D02*
D03*
X525200D02*
D03*
X516200D02*
D03*
D233*
X539826Y525270D02*
D03*
Y495270D02*
D03*
Y465270D02*
D03*
Y450270D02*
D03*
X793575Y480270D02*
D03*
Y510270D02*
D03*
D234*
X539826Y480270D02*
D03*
Y510270D02*
D03*
X793575Y525270D02*
D03*
Y495270D02*
D03*
Y465270D02*
D03*
Y450270D02*
D03*
D235*
X539826Y646270D02*
D03*
Y616270D02*
D03*
Y586270D02*
D03*
Y571270D02*
D03*
X793575Y631270D02*
D03*
Y601270D02*
D03*
D236*
X539826Y601270D02*
D03*
Y631270D02*
D03*
X793575Y571270D02*
D03*
Y586270D02*
D03*
Y616270D02*
D03*
Y646270D02*
D03*
D237*
X643700Y420770D02*
D03*
X628701Y420770D02*
D03*
X598701D02*
D03*
X613700Y420770D02*
D03*
X568700D02*
D03*
X583701Y420770D02*
D03*
X764700Y420771D02*
D03*
X749700Y420770D02*
D03*
X719700D02*
D03*
X734700Y420771D02*
D03*
X689700D02*
D03*
X704700Y420770D02*
D03*
X643700Y675769D02*
D03*
X628701Y675770D02*
D03*
X598701D02*
D03*
X613700Y675769D02*
D03*
X568700D02*
D03*
X583701Y675770D02*
D03*
X704700Y675769D02*
D03*
X689700Y675770D02*
D03*
X734700D02*
D03*
X719700Y675769D02*
D03*
X749700D02*
D03*
X764700Y675770D02*
D03*
D238*
X362700Y634800D02*
D03*
Y609400D02*
D03*
Y584000D02*
D03*
Y558600D02*
D03*
Y533200D02*
D03*
Y507800D02*
D03*
Y482400D02*
D03*
X845300Y482230D02*
D03*
Y456830D02*
D03*
Y431430D02*
D03*
Y406030D02*
D03*
Y380630D02*
D03*
Y355230D02*
D03*
Y329830D02*
D03*
X362700Y304430D02*
D03*
Y329830D02*
D03*
Y355230D02*
D03*
Y380630D02*
D03*
Y406030D02*
D03*
X845300Y548270D02*
D03*
Y599070D02*
D03*
Y624470D02*
D03*
Y649870D02*
D03*
Y675270D02*
D03*
Y700670D02*
D03*
Y726070D02*
D03*
Y751470D02*
D03*
Y573670D02*
D03*
X312100Y787030D02*
D03*
X286700Y761630D02*
D03*
X312100D02*
D03*
X286700Y736230D02*
D03*
X312100D02*
D03*
X286700Y710830D02*
D03*
X312100D02*
D03*
X286700Y685430D02*
D03*
X312100D02*
D03*
X286700Y660030D02*
D03*
X312100D02*
D03*
X286700Y634630D02*
D03*
X312100D02*
D03*
X286700Y609230D02*
D03*
X312100D02*
D03*
X286700Y583830D02*
D03*
X312100D02*
D03*
X286700Y558430D02*
D03*
X312100D02*
D03*
X286700Y533030D02*
D03*
X312100D02*
D03*
X286700Y507630D02*
D03*
X312100D02*
D03*
X286700Y482230D02*
D03*
X312100D02*
D03*
X286700Y456830D02*
D03*
X312100D02*
D03*
X286700Y431430D02*
D03*
X312100D02*
D03*
X286700Y406030D02*
D03*
X312100D02*
D03*
X286700Y380630D02*
D03*
X312100D02*
D03*
X286700Y355230D02*
D03*
X312100D02*
D03*
X286700Y329830D02*
D03*
X312100D02*
D03*
X286700Y304430D02*
D03*
X312100D02*
D03*
X625700Y868121D02*
D03*
X557900Y997200D02*
D03*
X583300D02*
D03*
X608700D02*
D03*
X921500Y304430D02*
D03*
X896100D02*
D03*
X921500Y329830D02*
D03*
X896100D02*
D03*
X921500Y355230D02*
D03*
X896100D02*
D03*
X921500Y380630D02*
D03*
X896100D02*
D03*
X921500Y406030D02*
D03*
X896100D02*
D03*
X921500Y431430D02*
D03*
X896100D02*
D03*
X921500Y456830D02*
D03*
X896100D02*
D03*
X921500Y482230D02*
D03*
X896100D02*
D03*
X921500Y507630D02*
D03*
X896100D02*
D03*
X921500Y533030D02*
D03*
X896100D02*
D03*
X921500Y558430D02*
D03*
X896100D02*
D03*
X921500Y583830D02*
D03*
X896100D02*
D03*
X921500Y609230D02*
D03*
X896100D02*
D03*
X921500Y634630D02*
D03*
X896100D02*
D03*
X921500Y660030D02*
D03*
X896100D02*
D03*
X921500Y685430D02*
D03*
X896100D02*
D03*
X921500Y710830D02*
D03*
X896100D02*
D03*
X921500Y736230D02*
D03*
X896100D02*
D03*
X921500Y761630D02*
D03*
X896100D02*
D03*
X921500Y787030D02*
D03*
D239*
X353100Y969814D02*
D03*
X443100Y1052814D02*
D03*
X669600Y1029850D02*
D03*
X741600Y1030500D02*
D03*
X854700Y1029850D02*
D03*
X926700Y1030500D02*
D03*
D240*
X699800Y933500D02*
D03*
D241*
X712500D02*
D03*
D242*
X745540Y1016700D02*
D03*
X665660D02*
D03*
X930640D02*
D03*
X850760D02*
D03*
D243*
X748800Y1010500D02*
D03*
X662400D02*
D03*
X933900D02*
D03*
X847500D02*
D03*
D244*
X748800Y1061000D02*
D03*
X662400D02*
D03*
X933900D02*
D03*
X847500D02*
D03*
D245*
X532500Y997200D02*
D03*
D246*
X413500Y279030D02*
D03*
X362700Y799730D02*
D03*
X845300Y787030D02*
D03*
M02*
