G04*
G04 #@! TF.GenerationSoftware,Altium Limited,Altium Designer,19.0.15 (446)*
G04*
G04 Layer_Physical_Order=3*
G04 Layer_Color=16440176*
%FSLAX44Y44*%
%MOMM*%
G71*
G01*
G75*
%ADD11C,1.0000*%
%ADD134C,1.5000*%
%ADD136O,1.4500X1.1000*%
%ADD137O,1.2000X2.3000*%
%ADD141C,0.3000*%
%ADD143C,1.0000*%
%ADD145C,1.2000*%
G36*
X933780Y1075553D02*
X933045Y1075456D01*
X931812Y1075294D01*
X929866Y1074488D01*
X928195Y1073206D01*
X926912Y1071535D01*
X926106Y1069588D01*
X925831Y1067500D01*
Y1054500D01*
X926106Y1052411D01*
X926912Y1050465D01*
X928195Y1048794D01*
X929866Y1047512D01*
X931812Y1046706D01*
X933900Y1046431D01*
X935989Y1046706D01*
X937935Y1047512D01*
X939606Y1048794D01*
X940888Y1050465D01*
X941694Y1052411D01*
X941969Y1054500D01*
Y1067500D01*
X941694Y1069588D01*
X940888Y1071535D01*
X939606Y1073206D01*
X937935Y1074488D01*
X935989Y1075294D01*
X934976Y1075427D01*
X934247Y1075524D01*
X934392Y1076785D01*
X935221Y1076704D01*
X937477Y1076481D01*
X940821Y1075467D01*
X943903Y1073820D01*
X946604Y1071603D01*
X948820Y1068902D01*
X950467Y1065821D01*
X951482Y1062477D01*
X951824Y1059003D01*
X951823Y1059000D01*
X951823Y294000D01*
X951824Y293998D01*
X951482Y290523D01*
X950467Y287179D01*
X948820Y284098D01*
X946604Y281397D01*
X943903Y279180D01*
X940821Y277533D01*
X937477Y276519D01*
X934003Y276176D01*
X934000Y276177D01*
X739000D01*
X738167Y276011D01*
X737461Y275539D01*
X737461Y275539D01*
X718099Y256177D01*
X681700D01*
Y319066D01*
X583700D01*
Y256177D01*
X500700D01*
Y323987D01*
X453852D01*
Y342950D01*
X454340D01*
Y359720D01*
X453504D01*
Y399394D01*
X446810D01*
Y359930D01*
X446200D01*
Y342720D01*
X447121D01*
Y323987D01*
X389000D01*
Y258738D01*
X387827Y258252D01*
X370539Y275539D01*
X369833Y276011D01*
X369000Y276177D01*
X274000D01*
X273998Y276176D01*
X270523Y276519D01*
X267179Y277533D01*
X264098Y279180D01*
X261397Y281397D01*
X259180Y284098D01*
X257533Y287179D01*
X256519Y290523D01*
X256297Y292780D01*
X256177Y294000D01*
X256177Y295270D01*
X256177Y1017734D01*
X266333D01*
X266720Y1017347D01*
X267018Y1017223D01*
X267247Y1016995D01*
X269084Y1016234D01*
X269407D01*
X269706Y1016110D01*
X270700D01*
X270701Y1016110D01*
X270701Y1016110D01*
X304432Y1016126D01*
X305147D01*
X305301Y1016190D01*
X305464Y1016157D01*
X306868Y1016437D01*
X307007Y1016529D01*
X307173D01*
X308496Y1017077D01*
X308613Y1017195D01*
X308777Y1017227D01*
X309967Y1018023D01*
X310060Y1018161D01*
X310213Y1018224D01*
X311226Y1019237D01*
X311289Y1019390D01*
X311427Y1019483D01*
X312223Y1020673D01*
X312255Y1020836D01*
X312373Y1020954D01*
X312921Y1022277D01*
Y1022443D01*
X313013Y1022581D01*
X313293Y1023986D01*
X313260Y1024149D01*
X313324Y1024303D01*
Y1064194D01*
X313200Y1064493D01*
Y1064816D01*
X312439Y1066654D01*
X312211Y1066882D01*
X312087Y1067180D01*
X311700Y1067567D01*
Y1076823D01*
X662197D01*
X662280Y1075553D01*
X660312Y1075294D01*
X658366Y1074488D01*
X656695Y1073206D01*
X655412Y1071535D01*
X654606Y1069588D01*
X654331Y1067500D01*
Y1054500D01*
X654606Y1052411D01*
X655412Y1050465D01*
X656695Y1048794D01*
X658366Y1047512D01*
X660312Y1046706D01*
X662400Y1046431D01*
X664489Y1046706D01*
X666435Y1047512D01*
X668106Y1048794D01*
X669388Y1050465D01*
X670194Y1052411D01*
X670469Y1054500D01*
Y1067500D01*
X670194Y1069588D01*
X669388Y1071535D01*
X668106Y1073206D01*
X666435Y1074488D01*
X664489Y1075294D01*
X662521Y1075553D01*
X662604Y1076823D01*
X748597D01*
X748680Y1075553D01*
X746712Y1075294D01*
X744766Y1074488D01*
X743095Y1073206D01*
X741812Y1071535D01*
X741006Y1069588D01*
X740731Y1067500D01*
Y1054500D01*
X741006Y1052411D01*
X741812Y1050465D01*
X743095Y1048794D01*
X744766Y1047512D01*
X746712Y1046706D01*
X748800Y1046431D01*
X750889Y1046706D01*
X752835Y1047512D01*
X754506Y1048794D01*
X755788Y1050465D01*
X756594Y1052411D01*
X756869Y1054500D01*
Y1067500D01*
X756594Y1069588D01*
X755788Y1071535D01*
X754506Y1073206D01*
X752835Y1074488D01*
X750889Y1075294D01*
X748921Y1075553D01*
X749004Y1076823D01*
X847297D01*
X847380Y1075553D01*
X845412Y1075294D01*
X843466Y1074488D01*
X841795Y1073206D01*
X840512Y1071535D01*
X839706Y1069588D01*
X839431Y1067500D01*
Y1054500D01*
X839706Y1052411D01*
X840512Y1050465D01*
X841795Y1048794D01*
X843466Y1047512D01*
X845412Y1046706D01*
X847500Y1046431D01*
X849589Y1046706D01*
X851535Y1047512D01*
X853206Y1048794D01*
X854488Y1050465D01*
X855294Y1052411D01*
X855569Y1054500D01*
Y1067500D01*
X855294Y1069588D01*
X854488Y1071535D01*
X853206Y1073206D01*
X851535Y1074488D01*
X849589Y1075294D01*
X847620Y1075553D01*
X847704Y1076823D01*
X933697D01*
X933780Y1075553D01*
D02*
G37*
%LPC*%
G36*
X443100Y1058932D02*
X440759Y1058466D01*
X438774Y1057140D01*
X437448Y1055155D01*
X436983Y1052814D01*
X437448Y1050473D01*
X438774Y1048488D01*
X440759Y1047162D01*
X443100Y1046697D01*
X445441Y1047162D01*
X447426Y1048488D01*
X448752Y1050473D01*
X449218Y1052814D01*
X448752Y1055155D01*
X447426Y1057140D01*
X445441Y1058466D01*
X443100Y1058932D01*
D02*
G37*
G36*
X613121Y1037759D02*
X611951Y1037526D01*
X610958Y1036863D01*
X610295Y1035871D01*
X610062Y1034700D01*
X610295Y1033529D01*
X610958Y1032537D01*
X611951Y1031874D01*
X613121Y1031641D01*
X614292Y1031874D01*
X615284Y1032537D01*
X615947Y1033529D01*
X616180Y1034700D01*
X615947Y1035871D01*
X615284Y1036863D01*
X614292Y1037526D01*
X613121Y1037759D01*
D02*
G37*
G36*
X889430Y1029659D02*
X888260Y1029426D01*
X887267Y1028763D01*
X886563D01*
X885571Y1029426D01*
X884400Y1029659D01*
X883230Y1029426D01*
X882237Y1028763D01*
X881574Y1027770D01*
X881341Y1026600D01*
X881574Y1025429D01*
X882237Y1024437D01*
X883230Y1023774D01*
X884400Y1023541D01*
X885571Y1023774D01*
X886563Y1024437D01*
X887267D01*
X888260Y1023774D01*
X889430Y1023541D01*
X890601Y1023774D01*
X891593Y1024437D01*
X892256Y1025429D01*
X892489Y1026600D01*
X892256Y1027770D01*
X891593Y1028763D01*
X890601Y1029426D01*
X889430Y1029659D01*
D02*
G37*
G36*
X704400Y1029459D02*
X703230Y1029226D01*
X702237Y1028563D01*
X701463D01*
X700471Y1029226D01*
X699300Y1029459D01*
X698130Y1029226D01*
X697137Y1028563D01*
X696474Y1027570D01*
X696242Y1026400D01*
X696474Y1025229D01*
X697137Y1024237D01*
X698130Y1023574D01*
X699300Y1023341D01*
X700471Y1023574D01*
X700942Y1023889D01*
X701850Y1024133D01*
X702758Y1023889D01*
X703230Y1023574D01*
X704400Y1023341D01*
X705571Y1023574D01*
X706563Y1024237D01*
X707226Y1025229D01*
X707459Y1026400D01*
X707226Y1027570D01*
X706563Y1028563D01*
X705571Y1029226D01*
X704400Y1029459D01*
D02*
G37*
G36*
X926700Y1035088D02*
X924944Y1034739D01*
X923456Y1033744D01*
X922461Y1032256D01*
X922112Y1030500D01*
X922461Y1028744D01*
X923456Y1027256D01*
X924944Y1026261D01*
X926700Y1025912D01*
X928456Y1026261D01*
X929945Y1027256D01*
X930939Y1028744D01*
X931288Y1030500D01*
X930939Y1032256D01*
X929945Y1033744D01*
X928456Y1034739D01*
X926700Y1035088D01*
D02*
G37*
G36*
X741600D02*
X739844Y1034739D01*
X738356Y1033744D01*
X737361Y1032256D01*
X737012Y1030500D01*
X737361Y1028744D01*
X738356Y1027256D01*
X739844Y1026261D01*
X741600Y1025912D01*
X743356Y1026261D01*
X744845Y1027256D01*
X745839Y1028744D01*
X746188Y1030500D01*
X745839Y1032256D01*
X744845Y1033744D01*
X743356Y1034739D01*
X741600Y1035088D01*
D02*
G37*
G36*
X856450Y1033928D02*
X852950D01*
X851389Y1033618D01*
X850066Y1032734D01*
X849182Y1031411D01*
X848872Y1029850D01*
X849182Y1028289D01*
X850066Y1026966D01*
X851389Y1026082D01*
X852950Y1025772D01*
X856450D01*
X858011Y1026082D01*
X859334Y1026966D01*
X860218Y1028289D01*
X860529Y1029850D01*
X860218Y1031411D01*
X859334Y1032734D01*
X858011Y1033618D01*
X856450Y1033928D01*
D02*
G37*
G36*
X671350D02*
X667850D01*
X666290Y1033618D01*
X664966Y1032734D01*
X664082Y1031411D01*
X663772Y1029850D01*
X664082Y1028289D01*
X664966Y1026966D01*
X666290Y1026082D01*
X667850Y1025772D01*
X671350D01*
X672911Y1026082D01*
X674234Y1026966D01*
X675118Y1028289D01*
X675429Y1029850D01*
X675118Y1031411D01*
X674234Y1032734D01*
X672911Y1033618D01*
X671350Y1033928D01*
D02*
G37*
G36*
X852510Y1023760D02*
X849010D01*
X847512Y1023563D01*
X847500Y1023565D01*
X845542Y1023307D01*
X843718Y1022551D01*
X842151Y1021349D01*
X840949Y1019782D01*
X840193Y1017958D01*
X839936Y1016000D01*
Y1005000D01*
X840193Y1003042D01*
X840949Y1001218D01*
X842151Y999651D01*
X843718Y998449D01*
X845542Y997693D01*
X847500Y997435D01*
X849458Y997693D01*
X851283Y998449D01*
X852849Y999651D01*
X854052Y1001218D01*
X854807Y1003042D01*
X855065Y1005000D01*
Y1010181D01*
X856040Y1010585D01*
X857503Y1011708D01*
X858625Y1013170D01*
X859330Y1014873D01*
X859571Y1016700D01*
X859330Y1018527D01*
X858625Y1020230D01*
X857503Y1021692D01*
X856040Y1022814D01*
X854338Y1023520D01*
X852510Y1023760D01*
D02*
G37*
G36*
X667410D02*
X663910D01*
X662412Y1023563D01*
X662400Y1023565D01*
X660442Y1023307D01*
X658618Y1022551D01*
X657051Y1021349D01*
X655849Y1019782D01*
X655093Y1017958D01*
X654836Y1016000D01*
Y1005000D01*
X655093Y1003042D01*
X655849Y1001218D01*
X657051Y999651D01*
X658618Y998449D01*
X660442Y997693D01*
X662400Y997435D01*
X664358Y997693D01*
X666183Y998449D01*
X667749Y999651D01*
X668951Y1001218D01*
X669707Y1003042D01*
X669965Y1005000D01*
Y1010181D01*
X670940Y1010585D01*
X672403Y1011708D01*
X673525Y1013170D01*
X674230Y1014873D01*
X674471Y1016700D01*
X674230Y1018527D01*
X673525Y1020230D01*
X672403Y1021692D01*
X670940Y1022814D01*
X669238Y1023520D01*
X667410Y1023760D01*
D02*
G37*
G36*
X532500Y1018059D02*
X531330Y1017826D01*
X530337Y1017163D01*
X529674Y1016171D01*
X529441Y1015000D01*
X529674Y1013829D01*
X530337Y1012837D01*
X531330Y1012174D01*
X532500Y1011941D01*
X533671Y1012174D01*
X534663Y1012837D01*
X535326Y1013829D01*
X535559Y1015000D01*
X535326Y1016171D01*
X534663Y1017163D01*
X533671Y1017826D01*
X532500Y1018059D01*
D02*
G37*
G36*
X277200Y1008659D02*
X276030Y1008426D01*
X275037Y1007763D01*
X274363D01*
X273371Y1008426D01*
X272200Y1008659D01*
X271030Y1008426D01*
X270037Y1007763D01*
X269063D01*
X268071Y1008426D01*
X266900Y1008659D01*
X265730Y1008426D01*
X264737Y1007763D01*
X264074Y1006770D01*
X263841Y1005600D01*
X264074Y1004429D01*
X264737Y1003437D01*
X265730Y1002774D01*
X266900Y1002541D01*
X268071Y1002774D01*
X269063Y1003437D01*
X270037D01*
X271030Y1002774D01*
X272200Y1002541D01*
X273371Y1002774D01*
X274363Y1003437D01*
X275037D01*
X276030Y1002774D01*
X277200Y1002541D01*
X278371Y1002774D01*
X279363Y1003437D01*
X280026Y1004429D01*
X280259Y1005600D01*
X280026Y1006770D01*
X279363Y1007763D01*
X278371Y1008426D01*
X277200Y1008659D01*
D02*
G37*
G36*
X610700Y1006519D02*
Y999200D01*
X618019D01*
X617956Y999680D01*
X616998Y1001991D01*
X615476Y1003975D01*
X613491Y1005498D01*
X611180Y1006455D01*
X610700Y1006519D01*
D02*
G37*
G36*
X606700D02*
X606220Y1006455D01*
X603909Y1005498D01*
X601925Y1003975D01*
X600402Y1001991D01*
X599445Y999680D01*
X599382Y999200D01*
X606700D01*
Y1006519D01*
D02*
G37*
G36*
X932390Y1023760D02*
X928890D01*
X927063Y1023520D01*
X925360Y1022814D01*
X923898Y1021692D01*
X922776Y1020230D01*
X922070Y1018527D01*
X921830Y1016700D01*
X922070Y1014873D01*
X922776Y1013170D01*
X923898Y1011708D01*
X925360Y1010585D01*
X926336Y1010181D01*
Y1005000D01*
X926593Y1003042D01*
X927349Y1001218D01*
X928551Y999651D01*
X930118Y998449D01*
X931942Y997693D01*
X933900Y997435D01*
X935858Y997693D01*
X937683Y998449D01*
X939249Y999651D01*
X940451Y1001218D01*
X941207Y1003042D01*
X941465Y1005000D01*
Y1016000D01*
X941207Y1017958D01*
X940451Y1019782D01*
X939249Y1021349D01*
X937683Y1022551D01*
X935858Y1023307D01*
X933900Y1023565D01*
X933888Y1023563D01*
X932390Y1023760D01*
D02*
G37*
G36*
X747290D02*
X743790D01*
X741963Y1023520D01*
X740260Y1022814D01*
X738798Y1021692D01*
X737676Y1020230D01*
X736970Y1018527D01*
X736730Y1016700D01*
X736970Y1014873D01*
X737676Y1013170D01*
X738798Y1011708D01*
X740260Y1010585D01*
X741236Y1010181D01*
Y1005000D01*
X741493Y1003042D01*
X742249Y1001218D01*
X743451Y999651D01*
X745018Y998449D01*
X746842Y997693D01*
X748800Y997435D01*
X750758Y997693D01*
X752583Y998449D01*
X754149Y999651D01*
X755351Y1001218D01*
X756107Y1003042D01*
X756365Y1005000D01*
Y1016000D01*
X756107Y1017958D01*
X755351Y1019782D01*
X754149Y1021349D01*
X752583Y1022551D01*
X750758Y1023307D01*
X748800Y1023565D01*
X748788Y1023563D01*
X747290Y1023760D01*
D02*
G37*
G36*
X903200Y1019165D02*
X878900D01*
X876942Y1018907D01*
X875118Y1018151D01*
X873551Y1016949D01*
X872349Y1015382D01*
X871593Y1013558D01*
X871336Y1011600D01*
X871593Y1009642D01*
X872349Y1007818D01*
X873551Y1006251D01*
X875118Y1005049D01*
X876942Y1004293D01*
X878900Y1004035D01*
X882944D01*
Y996402D01*
X881674Y995723D01*
X881371Y995926D01*
X880200Y996159D01*
X879030Y995926D01*
X878037Y995263D01*
X877374Y994270D01*
X877141Y993100D01*
X877374Y991929D01*
X878037Y990937D01*
X879030Y990274D01*
X880200Y990041D01*
X881371Y990274D01*
X881674Y990477D01*
X882944Y989798D01*
Y983186D01*
X883168Y981489D01*
X883822Y979908D01*
X884864Y978550D01*
X915644Y947771D01*
Y946300D01*
X915868Y944603D01*
X916523Y943022D01*
X917564Y941664D01*
X918922Y940622D01*
X920503Y939967D01*
X922200Y939744D01*
X923897Y939967D01*
X925478Y940622D01*
X926836Y941664D01*
X927878Y943022D01*
X928533Y944603D01*
X928756Y946300D01*
Y950486D01*
X928533Y952183D01*
X927878Y953764D01*
X926836Y955122D01*
X899646Y982312D01*
X899816Y983939D01*
X899963Y984037D01*
X900626Y985029D01*
X900859Y986200D01*
X900626Y987371D01*
X899963Y988363D01*
X898971Y989026D01*
X897800Y989259D01*
X897326Y989164D01*
X896056Y990054D01*
Y1004035D01*
X903200D01*
X905158Y1004293D01*
X906983Y1005049D01*
X908549Y1006251D01*
X909752Y1007818D01*
X910507Y1009642D01*
X910765Y1011600D01*
X910507Y1013558D01*
X909752Y1015382D01*
X908549Y1016949D01*
X906983Y1018151D01*
X905158Y1018907D01*
X903200Y1019165D01*
D02*
G37*
G36*
X689400Y995059D02*
X688230Y994826D01*
X687237Y994163D01*
X686574Y993170D01*
X686341Y992000D01*
X686574Y990829D01*
X687237Y989837D01*
X688230Y989174D01*
X689400Y988941D01*
X690571Y989174D01*
X691563Y989837D01*
X692226Y990829D01*
X692459Y992000D01*
X692226Y993170D01*
X691563Y994163D01*
X690571Y994826D01*
X689400Y995059D01*
D02*
G37*
G36*
X541500Y1006200D02*
X523500D01*
Y988200D01*
X541500D01*
Y1006200D01*
D02*
G37*
G36*
X583300Y1006278D02*
X580951Y1005968D01*
X578761Y1005061D01*
X576881Y1003619D01*
X575439Y1001739D01*
X574532Y999549D01*
X574223Y997200D01*
X574532Y994850D01*
X575439Y992661D01*
X576881Y990781D01*
X578761Y989339D01*
X580951Y988432D01*
X583300Y988122D01*
X585650Y988432D01*
X587839Y989339D01*
X589719Y990781D01*
X591162Y992661D01*
X592068Y994850D01*
X592378Y997200D01*
X592068Y999549D01*
X591162Y1001739D01*
X589719Y1003619D01*
X587839Y1005061D01*
X585650Y1005968D01*
X583300Y1006278D01*
D02*
G37*
G36*
X557900D02*
X555551Y1005968D01*
X553361Y1005061D01*
X551481Y1003619D01*
X550039Y1001739D01*
X549132Y999549D01*
X548823Y997200D01*
X549132Y994850D01*
X550039Y992661D01*
X551481Y990781D01*
X553361Y989339D01*
X555551Y988432D01*
X557900Y988122D01*
X560250Y988432D01*
X562439Y989339D01*
X564319Y990781D01*
X565762Y992661D01*
X566669Y994850D01*
X566978Y997200D01*
X566669Y999549D01*
X565762Y1001739D01*
X564319Y1003619D01*
X562439Y1005061D01*
X560250Y1005968D01*
X557900Y1006278D01*
D02*
G37*
G36*
X618019Y995200D02*
X610700D01*
Y987881D01*
X611180Y987944D01*
X613491Y988902D01*
X615476Y990424D01*
X616998Y992409D01*
X617956Y994720D01*
X618019Y995200D01*
D02*
G37*
G36*
X606700D02*
X599382D01*
X599445Y994720D01*
X600402Y992409D01*
X601925Y990424D01*
X603909Y988902D01*
X606220Y987944D01*
X606700Y987881D01*
Y995200D01*
D02*
G37*
G36*
X718200Y1019265D02*
X693600D01*
X691642Y1019007D01*
X689818Y1018251D01*
X688251Y1017049D01*
X687049Y1015482D01*
X686293Y1013658D01*
X686036Y1011700D01*
X686293Y1009742D01*
X687049Y1007918D01*
X688251Y1006351D01*
X689818Y1005149D01*
X691642Y1004393D01*
X693600Y1004135D01*
X697036D01*
X697036Y987900D01*
Y980400D01*
X697293Y978442D01*
X698049Y976618D01*
X699251Y975051D01*
X728490Y945812D01*
X728072Y944434D01*
X728030Y944426D01*
X727037Y943763D01*
X726374Y942770D01*
X726142Y941600D01*
X726374Y940429D01*
X727037Y939437D01*
X728030Y938774D01*
X729200Y938541D01*
X730371Y938774D01*
X731363Y939437D01*
X732026Y940429D01*
X732035Y940471D01*
X733413Y940890D01*
X735544Y938758D01*
X737111Y937556D01*
X738935Y936800D01*
X740893Y936543D01*
X859700D01*
X861658Y936800D01*
X863483Y937556D01*
X865049Y938758D01*
X866252Y940325D01*
X867007Y942149D01*
X867265Y944107D01*
X867007Y946065D01*
X866252Y947890D01*
X865049Y949456D01*
X863483Y950658D01*
X861658Y951414D01*
X859700Y951672D01*
X744026D01*
X712165Y983533D01*
Y984840D01*
X713435Y985874D01*
X713600Y985841D01*
X714771Y986074D01*
X715763Y986737D01*
X716426Y987729D01*
X716659Y988900D01*
X716426Y990070D01*
X715763Y991063D01*
X714771Y991726D01*
X713600Y991959D01*
X713435Y991926D01*
X712165Y992960D01*
X712165Y1004135D01*
X718200D01*
X720158Y1004393D01*
X721983Y1005149D01*
X723549Y1006351D01*
X724752Y1007918D01*
X725507Y1009742D01*
X725765Y1011700D01*
X725507Y1013658D01*
X724752Y1015482D01*
X723549Y1017049D01*
X721983Y1018251D01*
X720158Y1019007D01*
X718200Y1019265D01*
D02*
G37*
G36*
X353100Y974912D02*
X351149Y974524D01*
X349495Y973419D01*
X348390Y971765D01*
X348002Y969814D01*
X348390Y967863D01*
X349495Y966209D01*
X351149Y965104D01*
X353100Y964716D01*
X355051Y965104D01*
X356705Y966209D01*
X357810Y967863D01*
X358198Y969814D01*
X357810Y971765D01*
X356705Y973419D01*
X355051Y974524D01*
X353100Y974912D01*
D02*
G37*
G36*
X263200Y970562D02*
X262030Y970329D01*
X261037Y969666D01*
X260374Y968674D01*
X260142Y967503D01*
X260374Y966333D01*
X261037Y965340D01*
X262030Y964678D01*
X263200Y964445D01*
X264371Y964678D01*
X265363Y965340D01*
X266026Y966333D01*
X266259Y967503D01*
X266026Y968674D01*
X265363Y969666D01*
X264371Y970329D01*
X263200Y970562D01*
D02*
G37*
G36*
X302100Y970547D02*
X300930Y970315D01*
X299937Y969652D01*
X299274Y968659D01*
X299042Y967489D01*
X299274Y966318D01*
X299937Y965326D01*
X300930Y964663D01*
X302100Y964430D01*
X303271Y964663D01*
X304263Y965326D01*
X304926Y966318D01*
X305159Y967489D01*
X304926Y968659D01*
X304263Y969652D01*
X303271Y970315D01*
X302100Y970547D01*
D02*
G37*
G36*
X756100Y965759D02*
X754930Y965526D01*
X753937Y964863D01*
X753274Y963870D01*
X753042Y962700D01*
X753274Y961529D01*
X753937Y960537D01*
X754930Y959874D01*
X756100Y959641D01*
X757271Y959874D01*
X758263Y960537D01*
X758926Y961529D01*
X759159Y962700D01*
X758926Y963870D01*
X758263Y964863D01*
X757271Y965526D01*
X756100Y965759D01*
D02*
G37*
G36*
X552700Y956059D02*
X551530Y955826D01*
X550537Y955163D01*
X550471Y955063D01*
X549863D01*
X548871Y955726D01*
X547700Y955959D01*
X546530Y955726D01*
X545537Y955063D01*
X544874Y954071D01*
X544641Y952900D01*
X544874Y951729D01*
X545537Y950737D01*
X546530Y950074D01*
X547700Y949841D01*
X548871Y950074D01*
X549863Y950737D01*
X549930Y950837D01*
X550537D01*
X551530Y950174D01*
X552700Y949941D01*
X553871Y950174D01*
X554863Y950837D01*
X555526Y951829D01*
X555759Y953000D01*
X555526Y954171D01*
X554863Y955163D01*
X553871Y955826D01*
X552700Y956059D01*
D02*
G37*
G36*
X290400Y960259D02*
X289230Y960026D01*
X288237Y959363D01*
X287574Y958371D01*
X287341Y957200D01*
X287574Y956029D01*
X288237Y955037D01*
X289230Y954374D01*
X290400Y954141D01*
X291571Y954374D01*
X292563Y955037D01*
X293226Y956029D01*
X293459Y957200D01*
X293226Y958371D01*
X292563Y959363D01*
X291571Y960026D01*
X290400Y960259D01*
D02*
G37*
G36*
X315100Y956759D02*
X313930Y956526D01*
X312937Y955863D01*
X312274Y954871D01*
X312041Y953700D01*
X312274Y952529D01*
X312937Y951537D01*
X313930Y950874D01*
X315100Y950641D01*
X316271Y950874D01*
X317263Y951537D01*
X317926Y952529D01*
X318159Y953700D01*
X317926Y954871D01*
X317263Y955863D01*
X316271Y956526D01*
X315100Y956759D01*
D02*
G37*
G36*
X633800Y950259D02*
X632630Y950026D01*
X631637Y949363D01*
X630974Y948371D01*
X630742Y947200D01*
X630974Y946029D01*
X631637Y945037D01*
X632630Y944374D01*
X633800Y944141D01*
X634971Y944374D01*
X635963Y945037D01*
X636626Y946029D01*
X636859Y947200D01*
X636626Y948371D01*
X635963Y949363D01*
X634971Y950026D01*
X633800Y950259D01*
D02*
G37*
G36*
X889600Y954659D02*
X888430Y954426D01*
X887437Y953763D01*
X886774Y952770D01*
X886542Y951600D01*
X886774Y950429D01*
X886812Y950373D01*
X887388Y949350D01*
X886812Y948327D01*
X886774Y948270D01*
X886542Y947100D01*
X886774Y945929D01*
X887437Y944937D01*
X888430Y944274D01*
X889600Y944041D01*
X890771Y944274D01*
X891763Y944937D01*
X892426Y945929D01*
X892659Y947100D01*
X892426Y948270D01*
X892388Y948327D01*
X891812Y949350D01*
X892388Y950373D01*
X892426Y950429D01*
X892659Y951600D01*
X892426Y952770D01*
X891763Y953763D01*
X890771Y954426D01*
X889600Y954659D01*
D02*
G37*
G36*
X582600Y942959D02*
X581430Y942726D01*
X580437Y942063D01*
X579774Y941070D01*
X579649Y940440D01*
X579152Y939785D01*
X578319Y939538D01*
X577710Y939659D01*
X576539Y939426D01*
X576199Y939199D01*
X575255Y938866D01*
X574311Y939199D01*
X573971Y939426D01*
X572800Y939659D01*
X571630Y939426D01*
X570637Y938763D01*
X569974Y937770D01*
X569742Y936600D01*
X569974Y935429D01*
X570637Y934437D01*
X571630Y933774D01*
X572800Y933541D01*
X573971Y933774D01*
X574311Y934001D01*
X575255Y934334D01*
X576199Y934001D01*
X576539Y933774D01*
X577710Y933541D01*
X578880Y933774D01*
X579873Y934437D01*
X580536Y935429D01*
X580661Y936060D01*
X581158Y936715D01*
X581991Y936962D01*
X582600Y936841D01*
X583771Y937074D01*
X584763Y937737D01*
X585426Y938729D01*
X585659Y939900D01*
X585426Y941070D01*
X584763Y942063D01*
X583771Y942726D01*
X582600Y942959D01*
D02*
G37*
G36*
X307911Y940405D02*
X306740Y940172D01*
X305748Y939509D01*
X305085Y938516D01*
X304852Y937346D01*
X305085Y936176D01*
X305748Y935183D01*
X306740Y934520D01*
X307911Y934287D01*
X309081Y934520D01*
X310074Y935183D01*
X310737Y936176D01*
X310969Y937346D01*
X310737Y938516D01*
X310074Y939509D01*
X309081Y940172D01*
X307911Y940405D01*
D02*
G37*
G36*
X557700Y940159D02*
X556530Y939926D01*
X555537Y939263D01*
X554874Y938270D01*
X554641Y937100D01*
X554874Y935929D01*
X555537Y934937D01*
X556530Y934274D01*
X557700Y934041D01*
X558871Y934274D01*
X559863Y934937D01*
X560526Y935929D01*
X560759Y937100D01*
X560526Y938270D01*
X559863Y939263D01*
X558871Y939926D01*
X557700Y940159D01*
D02*
G37*
G36*
X422700Y936121D02*
X421530Y935888D01*
X420537Y935225D01*
X419874Y934233D01*
X419641Y933062D01*
X419874Y931892D01*
X420537Y930899D01*
X421530Y930236D01*
X422700Y930004D01*
X423871Y930236D01*
X424863Y930899D01*
X425526Y931892D01*
X425759Y933062D01*
X425526Y934233D01*
X424863Y935225D01*
X423871Y935888D01*
X422700Y936121D01*
D02*
G37*
G36*
X386950D02*
X385780Y935888D01*
X384787Y935225D01*
X384124Y934233D01*
X383891Y933062D01*
X384124Y931892D01*
X384787Y930899D01*
X385780Y930236D01*
X386950Y930004D01*
X388121Y930236D01*
X389113Y930899D01*
X389776Y931892D01*
X390009Y933062D01*
X389776Y934233D01*
X389113Y935225D01*
X388121Y935888D01*
X386950Y936121D01*
D02*
G37*
G36*
X702199Y946657D02*
X701028Y946424D01*
X700036Y945761D01*
X699373Y944769D01*
X699140Y943598D01*
X699373Y942428D01*
X699808Y941777D01*
X699807Y941764D01*
X699380Y940638D01*
X699257Y940489D01*
X697973Y940320D01*
X696270Y939614D01*
X694808Y938492D01*
X693686Y937030D01*
X693052Y935500D01*
X699800D01*
Y933500D01*
X701800D01*
Y926752D01*
X703330Y927385D01*
X704730Y928460D01*
X705015Y928413D01*
X706000Y927995D01*
Y927000D01*
X719000D01*
Y940000D01*
X709148D01*
X708763Y941270D01*
X708863Y941337D01*
X709526Y942329D01*
X709759Y943500D01*
X709526Y944670D01*
X708863Y945663D01*
X707871Y946326D01*
X706700Y946559D01*
X705530Y946326D01*
X705517Y946318D01*
X704362Y945761D01*
X703369Y946424D01*
X702199Y946657D01*
D02*
G37*
G36*
X697800Y931500D02*
X693052D01*
X693686Y929970D01*
X694808Y928508D01*
X696270Y927385D01*
X697800Y926752D01*
Y931500D01*
D02*
G37*
G36*
X409999Y929957D02*
X408829Y929724D01*
X407836Y929061D01*
X407174Y928069D01*
X406941Y926898D01*
X407174Y925727D01*
X407836Y924735D01*
X408829Y924072D01*
X409999Y923839D01*
X411170Y924072D01*
X412162Y924735D01*
X412825Y925727D01*
X413058Y926898D01*
X412825Y928069D01*
X412162Y929061D01*
X411170Y929724D01*
X409999Y929957D01*
D02*
G37*
G36*
X509700Y928259D02*
X508530Y928026D01*
X507537Y927363D01*
X506874Y926370D01*
X506642Y925200D01*
X506874Y924029D01*
X507537Y923037D01*
X508530Y922374D01*
X509700Y922141D01*
X510871Y922374D01*
X511863Y923037D01*
X512526Y924029D01*
X512759Y925200D01*
X512526Y926370D01*
X511863Y927363D01*
X510871Y928026D01*
X509700Y928259D01*
D02*
G37*
G36*
X822400Y925083D02*
X821230Y924851D01*
X820237Y924188D01*
X819574Y923195D01*
X819342Y922025D01*
X819574Y920854D01*
X820237Y919862D01*
X821230Y919199D01*
X822400Y918966D01*
X823571Y919199D01*
X824563Y919862D01*
X825226Y920854D01*
X825459Y922025D01*
X825226Y923195D01*
X824563Y924188D01*
X823571Y924851D01*
X822400Y925083D01*
D02*
G37*
G36*
X746200Y925059D02*
X745030Y924826D01*
X744037Y924163D01*
X743374Y923170D01*
X743141Y922000D01*
X743374Y920829D01*
X744037Y919837D01*
X745030Y919174D01*
X746200Y918941D01*
X747371Y919174D01*
X748363Y919837D01*
X749026Y920829D01*
X749259Y922000D01*
X749026Y923170D01*
X748363Y924163D01*
X747371Y924826D01*
X746200Y925059D01*
D02*
G37*
G36*
X417900Y920259D02*
X416730Y920026D01*
X415737Y919363D01*
X415074Y918371D01*
X414841Y917200D01*
X415074Y916029D01*
X415737Y915037D01*
X416730Y914374D01*
X417900Y914141D01*
X419071Y914374D01*
X420063Y915037D01*
X420726Y916029D01*
X420959Y917200D01*
X420726Y918371D01*
X420063Y919363D01*
X419071Y920026D01*
X417900Y920259D01*
D02*
G37*
G36*
X634700Y918159D02*
X633530Y917926D01*
X632537Y917263D01*
X631874Y916271D01*
X631642Y915100D01*
X631874Y913929D01*
X632537Y912937D01*
X633530Y912274D01*
X634700Y912041D01*
X635871Y912274D01*
X636863Y912937D01*
X637526Y913929D01*
X637759Y915100D01*
X637526Y916271D01*
X636863Y917263D01*
X635871Y917926D01*
X634700Y918159D01*
D02*
G37*
G36*
X497700Y915059D02*
X496530Y914826D01*
X495537Y914163D01*
X494874Y913170D01*
X494641Y912000D01*
X494874Y910829D01*
X495537Y909837D01*
X496530Y909174D01*
X497700Y908941D01*
X498871Y909174D01*
X499863Y909837D01*
X500526Y910829D01*
X500759Y912000D01*
X500526Y913170D01*
X499863Y914163D01*
X498871Y914826D01*
X497700Y915059D01*
D02*
G37*
G36*
X529200Y914959D02*
X528030Y914726D01*
X527037Y914063D01*
X526374Y913071D01*
X526142Y911900D01*
X526374Y910729D01*
X527037Y909737D01*
X528030Y909074D01*
X529200Y908841D01*
X530371Y909074D01*
X531363Y909737D01*
X532026Y910729D01*
X532259Y911900D01*
X532026Y913071D01*
X531363Y914063D01*
X530371Y914726D01*
X529200Y914959D01*
D02*
G37*
G36*
X427000Y914162D02*
X425830Y913929D01*
X424837Y913266D01*
X424174Y912274D01*
X423941Y911103D01*
X424174Y909932D01*
X424837Y908940D01*
X425830Y908277D01*
X427000Y908044D01*
X428171Y908277D01*
X429163Y908940D01*
X429826Y909932D01*
X430059Y911103D01*
X429826Y912274D01*
X429163Y913266D01*
X428171Y913929D01*
X427000Y914162D01*
D02*
G37*
G36*
X732100Y907902D02*
X730930Y907669D01*
X729937Y907006D01*
X729274Y906014D01*
X729042Y904843D01*
X729274Y903673D01*
X729937Y902681D01*
X730930Y902017D01*
X732100Y901785D01*
X733271Y902017D01*
X734263Y902681D01*
X734926Y903673D01*
X735159Y904843D01*
X734926Y906014D01*
X734263Y907006D01*
X733271Y907669D01*
X732100Y907902D01*
D02*
G37*
G36*
X894700Y901759D02*
X893530Y901526D01*
X892900Y901105D01*
X892271Y901526D01*
X891100Y901759D01*
X889930Y901526D01*
X888937Y900863D01*
X888274Y899871D01*
X888042Y898700D01*
X888274Y897529D01*
X888695Y896900D01*
X888274Y896271D01*
X888042Y895100D01*
X888274Y893929D01*
X888937Y892937D01*
X889930Y892274D01*
X891100Y892041D01*
X892271Y892274D01*
X893025Y892778D01*
X893630Y892374D01*
X894800Y892141D01*
X895971Y892374D01*
X896963Y893037D01*
X897626Y894029D01*
X897859Y895200D01*
X897626Y896370D01*
X897189Y897025D01*
X897526Y897529D01*
X897759Y898700D01*
X897526Y899871D01*
X896863Y900863D01*
X895871Y901526D01*
X894700Y901759D01*
D02*
G37*
G36*
X560200Y905359D02*
X559030Y905126D01*
X558037Y904463D01*
X557374Y903471D01*
X557141Y902300D01*
X557374Y901129D01*
X558037Y900137D01*
X559030Y899474D01*
X560200Y899241D01*
X561371Y899474D01*
X562363Y900137D01*
X563026Y901129D01*
X563259Y902300D01*
X563026Y903471D01*
X562363Y904463D01*
X561371Y905126D01*
X560200Y905359D01*
D02*
G37*
G36*
X497700D02*
X496530Y905126D01*
X495537Y904463D01*
X494874Y903471D01*
X494641Y902300D01*
X494874Y901129D01*
X495537Y900137D01*
X496530Y899474D01*
X497700Y899241D01*
X498871Y899474D01*
X499863Y900137D01*
X500526Y901129D01*
X500759Y902300D01*
X500526Y903471D01*
X499863Y904463D01*
X498871Y905126D01*
X497700Y905359D01*
D02*
G37*
G36*
X758200Y902659D02*
X757030Y902426D01*
X756037Y901763D01*
X755374Y900770D01*
X755142Y899600D01*
X755374Y898429D01*
X756037Y897437D01*
X757030Y896774D01*
X758200Y896541D01*
X759371Y896774D01*
X760363Y897437D01*
X761026Y898429D01*
X761259Y899600D01*
X761026Y900770D01*
X760363Y901763D01*
X759371Y902426D01*
X758200Y902659D01*
D02*
G37*
G36*
X738600Y901559D02*
X737430Y901326D01*
X736437Y900663D01*
X735774Y899670D01*
X735542Y898500D01*
X735774Y897329D01*
X736437Y896337D01*
X737430Y895674D01*
X738600Y895441D01*
X739771Y895674D01*
X740763Y896337D01*
X741426Y897329D01*
X741659Y898500D01*
X741426Y899670D01*
X740763Y900663D01*
X739771Y901326D01*
X738600Y901559D01*
D02*
G37*
G36*
X630800Y899959D02*
X629630Y899726D01*
X628637Y899063D01*
X627974Y898071D01*
X627742Y896900D01*
X627974Y895729D01*
X628637Y894737D01*
X629630Y894074D01*
X630800Y893841D01*
X631971Y894074D01*
X632963Y894737D01*
X633626Y895729D01*
X633859Y896900D01*
X633626Y898071D01*
X632963Y899063D01*
X631971Y899726D01*
X630800Y899959D01*
D02*
G37*
G36*
X744900Y890662D02*
X743730Y890429D01*
X742737Y889766D01*
X742074Y888774D01*
X741842Y887603D01*
X742074Y886432D01*
X742737Y885440D01*
X743730Y884777D01*
X744900Y884544D01*
X746071Y884777D01*
X747063Y885440D01*
X747726Y886432D01*
X747959Y887603D01*
X747726Y888774D01*
X747063Y889766D01*
X746071Y890429D01*
X744900Y890662D01*
D02*
G37*
G36*
X360000Y890259D02*
X358830Y890026D01*
X357837Y889363D01*
X357174Y888371D01*
X356941Y887200D01*
X357174Y886029D01*
X357837Y885037D01*
X358830Y884374D01*
X360000Y884141D01*
X361171Y884374D01*
X362163Y885037D01*
X362826Y886029D01*
X363059Y887200D01*
X362826Y888371D01*
X362163Y889363D01*
X361171Y890026D01*
X360000Y890259D01*
D02*
G37*
G36*
X697300Y888059D02*
X696130Y887826D01*
X695137Y887163D01*
X694474Y886171D01*
X694241Y885000D01*
X694474Y883829D01*
X695137Y882837D01*
X696130Y882174D01*
X697300Y881941D01*
X698471Y882174D01*
X699463Y882837D01*
X700126Y883829D01*
X700359Y885000D01*
X700126Y886171D01*
X699463Y887163D01*
X698471Y887826D01*
X697300Y888059D01*
D02*
G37*
G36*
X582500Y886459D02*
X581330Y886226D01*
X580337Y885563D01*
X579674Y884570D01*
X579441Y883400D01*
X579674Y882229D01*
X580337Y881237D01*
X581330Y880574D01*
X582500Y880341D01*
X583671Y880574D01*
X584663Y881237D01*
X585326Y882229D01*
X585559Y883400D01*
X585326Y884570D01*
X584663Y885563D01*
X583671Y886226D01*
X582500Y886459D01*
D02*
G37*
G36*
X330894Y880359D02*
X329724Y880126D01*
X328731Y879463D01*
X328068Y878471D01*
X327835Y877300D01*
X328068Y876129D01*
X328731Y875137D01*
X329724Y874474D01*
X330894Y874241D01*
X332065Y874474D01*
X333057Y875137D01*
X333720Y876129D01*
X333953Y877300D01*
X333720Y878471D01*
X333057Y879463D01*
X332065Y880126D01*
X330894Y880359D01*
D02*
G37*
G36*
X287094D02*
X285924Y880126D01*
X284931Y879463D01*
X284268Y878471D01*
X284035Y877300D01*
X284268Y876129D01*
X284931Y875137D01*
X285924Y874474D01*
X287094Y874241D01*
X288265Y874474D01*
X289257Y875137D01*
X289920Y876129D01*
X290153Y877300D01*
X289920Y878471D01*
X289257Y879463D01*
X288265Y880126D01*
X287094Y880359D01*
D02*
G37*
G36*
X367400Y878459D02*
X366230Y878226D01*
X365237Y877563D01*
X364574Y876571D01*
X364342Y875400D01*
X364574Y874229D01*
X365237Y873237D01*
X366230Y872574D01*
X367400Y872341D01*
X368571Y872574D01*
X369563Y873237D01*
X370226Y874229D01*
X370459Y875400D01*
X370226Y876571D01*
X369563Y877563D01*
X368571Y878226D01*
X367400Y878459D01*
D02*
G37*
G36*
X352800D02*
X351630Y878226D01*
X350637Y877563D01*
X349974Y876571D01*
X349742Y875400D01*
X349974Y874229D01*
X350637Y873237D01*
X351630Y872574D01*
X352800Y872341D01*
X353971Y872574D01*
X354963Y873237D01*
X355626Y874229D01*
X355859Y875400D01*
X355626Y876571D01*
X354963Y877563D01*
X353971Y878226D01*
X352800Y878459D01*
D02*
G37*
G36*
X309600Y876559D02*
X308430Y876326D01*
X307437Y875663D01*
X306774Y874670D01*
X306542Y873500D01*
X306774Y872329D01*
X307437Y871337D01*
X308430Y870674D01*
X309600Y870441D01*
X310771Y870674D01*
X311763Y871337D01*
X312426Y872329D01*
X312659Y873500D01*
X312426Y874670D01*
X311763Y875663D01*
X310771Y876326D01*
X309600Y876559D01*
D02*
G37*
G36*
X294700Y876413D02*
X293530Y876180D01*
X292537Y875517D01*
X291874Y874525D01*
X291642Y873354D01*
X291874Y872184D01*
X292537Y871191D01*
X293530Y870528D01*
X294700Y870295D01*
X295871Y870528D01*
X296863Y871191D01*
X297526Y872184D01*
X297759Y873354D01*
X297526Y874525D01*
X296863Y875517D01*
X295871Y876180D01*
X294700Y876413D01*
D02*
G37*
G36*
X397400Y875759D02*
X396230Y875526D01*
X395237Y874863D01*
X394574Y873870D01*
X394342Y872700D01*
X394574Y871529D01*
X395237Y870537D01*
X396230Y869874D01*
X397400Y869641D01*
X398571Y869874D01*
X399563Y870537D01*
X400226Y871529D01*
X400459Y872700D01*
X400226Y873870D01*
X399563Y874863D01*
X398571Y875526D01*
X397400Y875759D01*
D02*
G37*
G36*
X722600Y867659D02*
X721430Y867426D01*
X720650Y866905D01*
X719871Y867426D01*
X718700Y867659D01*
X717530Y867426D01*
X716537Y866763D01*
X715874Y865770D01*
X715641Y864600D01*
X715874Y863429D01*
X716395Y862650D01*
X715874Y861870D01*
X715641Y860700D01*
X715874Y859529D01*
X716537Y858537D01*
X717530Y857874D01*
X718700Y857641D01*
X719871Y857874D01*
X720650Y858395D01*
X721430Y857874D01*
X722600Y857641D01*
X723771Y857874D01*
X724763Y858537D01*
X725426Y859529D01*
X725659Y860700D01*
X725426Y861870D01*
X724905Y862650D01*
X725426Y863429D01*
X725659Y864600D01*
X725426Y865770D01*
X724763Y866763D01*
X723771Y867426D01*
X722600Y867659D01*
D02*
G37*
G36*
X665600Y871180D02*
X664430Y870947D01*
X663437Y870284D01*
X662774Y869292D01*
X662542Y868121D01*
X662774Y866950D01*
X663437Y865958D01*
X664430Y865295D01*
X665600Y865062D01*
X666771Y865295D01*
X667763Y865958D01*
X668426Y866950D01*
X668659Y868121D01*
X668426Y869292D01*
X667763Y870284D01*
X666771Y870947D01*
X665600Y871180D01*
D02*
G37*
G36*
X942200Y860909D02*
X941030Y860676D01*
X940400Y860255D01*
X939771Y860676D01*
X938600Y860909D01*
X937430Y860676D01*
X936437Y860013D01*
X935774Y859020D01*
X935542Y857850D01*
X935774Y856679D01*
X936195Y856050D01*
X935774Y855421D01*
X935542Y854250D01*
X935774Y853079D01*
X936437Y852087D01*
X937430Y851424D01*
X938600Y851191D01*
X939771Y851424D01*
X940525Y851928D01*
X941130Y851524D01*
X942300Y851291D01*
X943471Y851524D01*
X944463Y852187D01*
X945126Y853179D01*
X945359Y854350D01*
X945126Y855520D01*
X944689Y856175D01*
X945026Y856679D01*
X945259Y857850D01*
X945026Y859020D01*
X944363Y860013D01*
X943371Y860676D01*
X942200Y860909D01*
D02*
G37*
G36*
X625700Y877199D02*
X623351Y876889D01*
X621161Y875982D01*
X619281Y874540D01*
X617839Y872660D01*
X616932Y870470D01*
X616623Y868121D01*
X616932Y865771D01*
X617839Y863582D01*
X619281Y861702D01*
X621161Y860259D01*
X623351Y859353D01*
X625700Y859043D01*
X628050Y859353D01*
X630239Y860259D01*
X632119Y861702D01*
X633562Y863582D01*
X634469Y865771D01*
X634778Y868121D01*
X634469Y870470D01*
X633562Y872660D01*
X632119Y874540D01*
X630239Y875982D01*
X628050Y876889D01*
X625700Y877199D01*
D02*
G37*
G36*
X724700Y854859D02*
X723530Y854626D01*
X722537Y853963D01*
X721874Y852971D01*
X721641Y851800D01*
X721874Y850629D01*
X722537Y849637D01*
X723530Y848974D01*
X724700Y848741D01*
X725871Y848974D01*
X726863Y849637D01*
X727526Y850629D01*
X727759Y851800D01*
X727526Y852971D01*
X726863Y853963D01*
X725871Y854626D01*
X724700Y854859D01*
D02*
G37*
G36*
X736000Y852959D02*
X734830Y852726D01*
X733837Y852063D01*
X733174Y851070D01*
X732942Y849900D01*
X733174Y848729D01*
X733837Y847737D01*
X734830Y847074D01*
X736000Y846841D01*
X737171Y847074D01*
X738163Y847737D01*
X738826Y848729D01*
X739059Y849900D01*
X738826Y851070D01*
X738163Y852063D01*
X737171Y852726D01*
X736000Y852959D01*
D02*
G37*
G36*
X665715Y845780D02*
X664545Y845547D01*
X663552Y844884D01*
X662889Y843892D01*
X662656Y842721D01*
X662889Y841550D01*
X663552Y840558D01*
X664545Y839895D01*
X665715Y839662D01*
X666886Y839895D01*
X667878Y840558D01*
X668541Y841550D01*
X668774Y842721D01*
X668541Y843892D01*
X667878Y844884D01*
X666886Y845547D01*
X665715Y845780D01*
D02*
G37*
G36*
X634700Y851721D02*
X616700D01*
Y833721D01*
X634700D01*
Y851721D01*
D02*
G37*
G36*
X935598Y827157D02*
X934428Y826924D01*
X933435Y826261D01*
X932772Y825269D01*
X932540Y824098D01*
X932772Y822928D01*
X933435Y821935D01*
X934428Y821272D01*
X935598Y821040D01*
X936769Y821272D01*
X937761Y821935D01*
X938424Y822928D01*
X938657Y824098D01*
X938424Y825269D01*
X937761Y826261D01*
X936769Y826924D01*
X935598Y827157D01*
D02*
G37*
G36*
X776000Y809659D02*
X774830Y809426D01*
X774128Y808957D01*
X773427Y809426D01*
X772256Y809659D01*
X771085Y809426D01*
X770093Y808763D01*
X769430Y807770D01*
X769197Y806600D01*
X769430Y805429D01*
X769856Y804792D01*
X769374Y804071D01*
X769141Y802900D01*
X769374Y801729D01*
X770037Y800737D01*
X771030Y800074D01*
X772200Y799841D01*
X773371Y800074D01*
X774100Y800561D01*
X774830Y800074D01*
X776000Y799841D01*
X777171Y800074D01*
X778163Y800737D01*
X778826Y801729D01*
X779059Y802900D01*
X778826Y804071D01*
X778372Y804750D01*
X778826Y805429D01*
X779059Y806600D01*
X778826Y807770D01*
X778163Y808763D01*
X777171Y809426D01*
X776000Y809659D01*
D02*
G37*
G36*
X721500Y788109D02*
X720330Y787876D01*
X719700Y787455D01*
X719071Y787876D01*
X717900Y788109D01*
X716730Y787876D01*
X715737Y787213D01*
X715074Y786220D01*
X714842Y785050D01*
X715074Y783879D01*
X715495Y783250D01*
X715074Y782620D01*
X714842Y781450D01*
X715074Y780279D01*
X715737Y779287D01*
X716730Y778624D01*
X717900Y778391D01*
X719071Y778624D01*
X719825Y779128D01*
X720430Y778724D01*
X721600Y778491D01*
X722771Y778724D01*
X723763Y779387D01*
X724426Y780379D01*
X724659Y781550D01*
X724426Y782720D01*
X723989Y783375D01*
X724326Y783879D01*
X724559Y785050D01*
X724326Y786220D01*
X723663Y787213D01*
X722671Y787876D01*
X721500Y788109D01*
D02*
G37*
G36*
X362700Y817315D02*
X359270Y816977D01*
X355971Y815976D01*
X352931Y814351D01*
X350266Y812164D01*
X348079Y809500D01*
X346454Y806459D01*
X345453Y803160D01*
X345116Y799730D01*
X345453Y796299D01*
X346454Y793001D01*
X348079Y789960D01*
X350266Y787296D01*
X352931Y785109D01*
X355971Y783484D01*
X359270Y782483D01*
X362700Y782145D01*
X366131Y782483D01*
X369430Y783484D01*
X372470Y785109D01*
X375135Y787296D01*
X377321Y789960D01*
X378946Y793001D01*
X379947Y796299D01*
X380285Y799730D01*
X379947Y803160D01*
X378946Y806459D01*
X377321Y809500D01*
X375135Y812164D01*
X372470Y814351D01*
X369430Y815976D01*
X366131Y816977D01*
X362700Y817315D01*
D02*
G37*
G36*
X757600Y786559D02*
X756430Y786326D01*
X755437Y785663D01*
X754774Y784670D01*
X754541Y783500D01*
X754774Y782329D01*
X755437Y781337D01*
X756430Y780674D01*
X757600Y780441D01*
X758771Y780674D01*
X759763Y781337D01*
X760426Y782329D01*
X760659Y783500D01*
X760426Y784670D01*
X759763Y785663D01*
X758771Y786326D01*
X757600Y786559D01*
D02*
G37*
G36*
X905100Y796030D02*
X887100D01*
Y778030D01*
X905100D01*
Y796030D01*
D02*
G37*
G36*
X295700D02*
X277700D01*
Y778030D01*
X295700D01*
Y796030D01*
D02*
G37*
G36*
X921500Y796108D02*
X919151Y795798D01*
X916961Y794891D01*
X915081Y793449D01*
X913639Y791569D01*
X912732Y789379D01*
X912423Y787030D01*
X912732Y784680D01*
X913639Y782491D01*
X915081Y780611D01*
X916961Y779168D01*
X919151Y778262D01*
X921500Y777952D01*
X923850Y778262D01*
X926039Y779168D01*
X927919Y780611D01*
X929362Y782491D01*
X930268Y784680D01*
X930578Y787030D01*
X930268Y789379D01*
X929362Y791569D01*
X927919Y793449D01*
X926039Y794891D01*
X923850Y795798D01*
X921500Y796108D01*
D02*
G37*
G36*
X312100D02*
X309751Y795798D01*
X307561Y794891D01*
X305681Y793449D01*
X304239Y791569D01*
X303332Y789379D01*
X303023Y787030D01*
X303332Y784680D01*
X304239Y782491D01*
X305681Y780611D01*
X307561Y779168D01*
X309751Y778262D01*
X312100Y777952D01*
X314450Y778262D01*
X316639Y779168D01*
X318519Y780611D01*
X319962Y782491D01*
X320868Y784680D01*
X321178Y787030D01*
X320868Y789379D01*
X319962Y791569D01*
X318519Y793449D01*
X316639Y794891D01*
X314450Y795798D01*
X312100Y796108D01*
D02*
G37*
G36*
X810600Y779759D02*
X809430Y779526D01*
X808437Y778863D01*
X807774Y777870D01*
X807542Y776700D01*
X807774Y775529D01*
X808437Y774537D01*
X809430Y773874D01*
X810600Y773641D01*
X811771Y773874D01*
X812763Y774537D01*
X813426Y775529D01*
X813659Y776700D01*
X813426Y777870D01*
X812763Y778863D01*
X811771Y779526D01*
X810600Y779759D01*
D02*
G37*
G36*
X845300Y804615D02*
X841870Y804277D01*
X838571Y803276D01*
X835531Y801651D01*
X832866Y799464D01*
X830679Y796799D01*
X829054Y793759D01*
X828054Y790461D01*
X827716Y787030D01*
X828054Y783599D01*
X829054Y780301D01*
X830679Y777260D01*
X832866Y774596D01*
X835531Y772409D01*
X838571Y770784D01*
X841870Y769783D01*
X845300Y769445D01*
X848731Y769783D01*
X852030Y770784D01*
X855070Y772409D01*
X857735Y774596D01*
X859921Y777260D01*
X861546Y780301D01*
X862547Y783599D01*
X862885Y787030D01*
X862547Y790461D01*
X861546Y793759D01*
X859921Y796799D01*
X857735Y799464D01*
X855070Y801651D01*
X852030Y803276D01*
X848731Y804277D01*
X845300Y804615D01*
D02*
G37*
G36*
X757500Y764259D02*
X756330Y764026D01*
X755337Y763363D01*
X754674Y762371D01*
X754673Y762365D01*
X754200Y762459D01*
X753030Y762226D01*
X752037Y761563D01*
X751374Y760571D01*
X751142Y759400D01*
X751374Y758229D01*
X752037Y757237D01*
X753030Y756574D01*
X754200Y756341D01*
X754750Y756451D01*
X754774Y756329D01*
X755437Y755337D01*
X756430Y754674D01*
X757600Y754441D01*
X758771Y754674D01*
X759763Y755337D01*
X760426Y756329D01*
X760659Y757500D01*
X760426Y758671D01*
X759922Y759425D01*
X760326Y760029D01*
X760559Y761200D01*
X760326Y762371D01*
X759663Y763363D01*
X758671Y764026D01*
X757500Y764259D01*
D02*
G37*
G36*
X921500Y770708D02*
X919151Y770398D01*
X916961Y769491D01*
X915081Y768049D01*
X913639Y766169D01*
X912732Y763979D01*
X912423Y761630D01*
X912732Y759280D01*
X913639Y757091D01*
X915081Y755211D01*
X916961Y753768D01*
X919151Y752862D01*
X921500Y752552D01*
X923850Y752862D01*
X926039Y753768D01*
X927919Y755211D01*
X929362Y757091D01*
X930268Y759280D01*
X930578Y761630D01*
X930268Y763979D01*
X929362Y766169D01*
X927919Y768049D01*
X926039Y769491D01*
X923850Y770398D01*
X921500Y770708D01*
D02*
G37*
G36*
X896100D02*
X893751Y770398D01*
X891561Y769491D01*
X889681Y768049D01*
X888239Y766169D01*
X887332Y763979D01*
X887023Y761630D01*
X887332Y759280D01*
X888239Y757091D01*
X889681Y755211D01*
X891561Y753768D01*
X893751Y752862D01*
X896100Y752552D01*
X898450Y752862D01*
X900639Y753768D01*
X902519Y755211D01*
X903962Y757091D01*
X904868Y759280D01*
X905178Y761630D01*
X904868Y763979D01*
X903962Y766169D01*
X902519Y768049D01*
X900639Y769491D01*
X898450Y770398D01*
X896100Y770708D01*
D02*
G37*
G36*
X312100D02*
X309751Y770398D01*
X307561Y769491D01*
X305681Y768049D01*
X304239Y766169D01*
X303332Y763979D01*
X303023Y761630D01*
X303332Y759280D01*
X304239Y757091D01*
X305681Y755211D01*
X307561Y753768D01*
X309751Y752862D01*
X312100Y752552D01*
X314450Y752862D01*
X316639Y753768D01*
X318519Y755211D01*
X319962Y757091D01*
X320868Y759280D01*
X321178Y761630D01*
X320868Y763979D01*
X319962Y766169D01*
X318519Y768049D01*
X316639Y769491D01*
X314450Y770398D01*
X312100Y770708D01*
D02*
G37*
G36*
X286700D02*
X284351Y770398D01*
X282161Y769491D01*
X280281Y768049D01*
X278839Y766169D01*
X277932Y763979D01*
X277623Y761630D01*
X277932Y759280D01*
X278839Y757091D01*
X280281Y755211D01*
X282161Y753768D01*
X284351Y752862D01*
X286700Y752552D01*
X289050Y752862D01*
X291239Y753768D01*
X293119Y755211D01*
X294562Y757091D01*
X295469Y759280D01*
X295778Y761630D01*
X295469Y763979D01*
X294562Y766169D01*
X293119Y768049D01*
X291239Y769491D01*
X289050Y770398D01*
X286700Y770708D01*
D02*
G37*
G36*
X490900Y756259D02*
X489730Y756026D01*
X488737Y755363D01*
X488074Y754370D01*
X487841Y753200D01*
X488074Y752029D01*
X488737Y751037D01*
X489730Y750374D01*
X490900Y750141D01*
X492071Y750374D01*
X493063Y751037D01*
X493726Y752029D01*
X493959Y753200D01*
X493726Y754370D01*
X493063Y755363D01*
X492071Y756026D01*
X490900Y756259D01*
D02*
G37*
G36*
X845300Y760548D02*
X842951Y760238D01*
X840761Y759331D01*
X838881Y757889D01*
X837439Y756009D01*
X836532Y753819D01*
X836223Y751470D01*
X836532Y749120D01*
X837439Y746931D01*
X838881Y745051D01*
X840761Y743608D01*
X842951Y742702D01*
X845300Y742392D01*
X847650Y742702D01*
X849839Y743608D01*
X851719Y745051D01*
X853162Y746931D01*
X854069Y749120D01*
X854378Y751470D01*
X854069Y753819D01*
X853162Y756009D01*
X851719Y757889D01*
X849839Y759331D01*
X847650Y760238D01*
X845300Y760548D01*
D02*
G37*
G36*
X710650Y750859D02*
X709480Y750626D01*
X708487Y749963D01*
X707824Y748970D01*
X707686Y748277D01*
X707036Y747456D01*
X706438Y747087D01*
X705630Y746926D01*
X704637Y746263D01*
X703974Y745270D01*
X703742Y744100D01*
X703974Y742929D01*
X704637Y741937D01*
X705630Y741274D01*
X706800Y741041D01*
X707971Y741274D01*
X708963Y741937D01*
X709626Y742929D01*
X709764Y743623D01*
X710414Y744444D01*
X711012Y744813D01*
X711821Y744974D01*
X712813Y745637D01*
X713476Y746629D01*
X713709Y747800D01*
X713476Y748970D01*
X712813Y749963D01*
X711821Y750626D01*
X710650Y750859D01*
D02*
G37*
G36*
X430400Y745159D02*
X429230Y744926D01*
X428237Y744263D01*
X427574Y743270D01*
X427341Y742100D01*
X427574Y740929D01*
X428237Y739937D01*
X429230Y739274D01*
X430400Y739041D01*
X431571Y739274D01*
X432563Y739937D01*
X433226Y740929D01*
X433459Y742100D01*
X433226Y743270D01*
X432563Y744263D01*
X431571Y744926D01*
X430400Y745159D01*
D02*
G37*
G36*
X565300Y744959D02*
X564130Y744726D01*
X563137Y744063D01*
X562474Y743071D01*
X562242Y741900D01*
X562474Y740729D01*
X563137Y739737D01*
X564130Y739074D01*
X565300Y738841D01*
X566471Y739074D01*
X567463Y739737D01*
X568126Y740729D01*
X568359Y741900D01*
X568126Y743071D01*
X567463Y744063D01*
X566471Y744726D01*
X565300Y744959D01*
D02*
G37*
G36*
X288700Y745549D02*
Y738230D01*
X296019D01*
X295956Y738710D01*
X294998Y741021D01*
X293476Y743005D01*
X291491Y744528D01*
X289180Y745485D01*
X288700Y745549D01*
D02*
G37*
G36*
X284700D02*
X284220Y745485D01*
X281909Y744528D01*
X279925Y743005D01*
X278402Y741021D01*
X277445Y738710D01*
X277382Y738230D01*
X284700D01*
Y745549D01*
D02*
G37*
G36*
X921500Y745308D02*
X919151Y744998D01*
X916961Y744091D01*
X915081Y742649D01*
X913639Y740769D01*
X912732Y738579D01*
X912423Y736230D01*
X912732Y733880D01*
X913639Y731691D01*
X915081Y729811D01*
X916961Y728369D01*
X919151Y727462D01*
X921500Y727152D01*
X923850Y727462D01*
X926039Y728369D01*
X927919Y729811D01*
X929362Y731691D01*
X930268Y733880D01*
X930578Y736230D01*
X930268Y738579D01*
X929362Y740769D01*
X927919Y742649D01*
X926039Y744091D01*
X923850Y744998D01*
X921500Y745308D01*
D02*
G37*
G36*
X896100D02*
X893751Y744998D01*
X891561Y744091D01*
X889681Y742649D01*
X888239Y740769D01*
X887332Y738579D01*
X887023Y736230D01*
X887332Y733880D01*
X888239Y731691D01*
X889681Y729811D01*
X891561Y728369D01*
X893751Y727462D01*
X896100Y727152D01*
X898450Y727462D01*
X900639Y728369D01*
X902519Y729811D01*
X903962Y731691D01*
X904868Y733880D01*
X905178Y736230D01*
X904868Y738579D01*
X903962Y740769D01*
X902519Y742649D01*
X900639Y744091D01*
X898450Y744998D01*
X896100Y745308D01*
D02*
G37*
G36*
X312100D02*
X309751Y744998D01*
X307561Y744091D01*
X305681Y742649D01*
X304239Y740769D01*
X303332Y738579D01*
X303023Y736230D01*
X303332Y733880D01*
X304239Y731691D01*
X305681Y729811D01*
X307561Y728369D01*
X309751Y727462D01*
X312100Y727152D01*
X314450Y727462D01*
X316639Y728369D01*
X318519Y729811D01*
X319962Y731691D01*
X320868Y733880D01*
X321178Y736230D01*
X320868Y738579D01*
X319962Y740769D01*
X318519Y742649D01*
X316639Y744091D01*
X314450Y744998D01*
X312100Y745308D01*
D02*
G37*
G36*
X296019Y734230D02*
X288700D01*
Y726911D01*
X289180Y726974D01*
X291491Y727932D01*
X293476Y729454D01*
X294998Y731439D01*
X295956Y733750D01*
X296019Y734230D01*
D02*
G37*
G36*
X284700D02*
X277382D01*
X277445Y733750D01*
X278402Y731439D01*
X279925Y729454D01*
X281909Y727932D01*
X284220Y726974D01*
X284700Y726911D01*
Y734230D01*
D02*
G37*
G36*
X610000Y732759D02*
X608830Y732526D01*
X607837Y731863D01*
X607174Y730871D01*
X606941Y729700D01*
X607174Y728529D01*
X607837Y727537D01*
X608830Y726874D01*
X610000Y726641D01*
X611171Y726874D01*
X612163Y727537D01*
X612826Y728529D01*
X613059Y729700D01*
X612826Y730871D01*
X612163Y731863D01*
X611171Y732526D01*
X610000Y732759D01*
D02*
G37*
G36*
X565900D02*
X564730Y732526D01*
X563737Y731863D01*
X563074Y730871D01*
X562841Y729700D01*
X563074Y728529D01*
X563737Y727537D01*
X564730Y726874D01*
X565900Y726641D01*
X567071Y726874D01*
X568063Y727537D01*
X568726Y728529D01*
X568959Y729700D01*
X568726Y730871D01*
X568063Y731863D01*
X567071Y732526D01*
X565900Y732759D01*
D02*
G37*
G36*
X700300Y728659D02*
X699130Y728426D01*
X698137Y727763D01*
X697474Y726770D01*
X697242Y725600D01*
X697474Y724429D01*
X698137Y723437D01*
X699130Y722774D01*
X700300Y722541D01*
X701471Y722774D01*
X702463Y723437D01*
X703126Y724429D01*
X703359Y725600D01*
X703126Y726770D01*
X702463Y727763D01*
X701471Y728426D01*
X700300Y728659D01*
D02*
G37*
G36*
X685250Y726291D02*
X684079Y726059D01*
X683087Y725396D01*
X682424Y724403D01*
X682191Y723233D01*
X682424Y722062D01*
X683087Y721070D01*
X684079Y720407D01*
X685250Y720174D01*
X686420Y720407D01*
X687413Y721070D01*
X688076Y722062D01*
X688309Y723233D01*
X688076Y724403D01*
X687413Y725396D01*
X686420Y726059D01*
X685250Y726291D01*
D02*
G37*
G36*
X621700Y726159D02*
X620530Y725926D01*
X619537Y725263D01*
X618874Y724270D01*
X618642Y723100D01*
X618874Y721929D01*
X619537Y720937D01*
X620530Y720274D01*
X621700Y720041D01*
X622871Y720274D01*
X623863Y720937D01*
X624526Y721929D01*
X624759Y723100D01*
X624526Y724270D01*
X623863Y725263D01*
X622871Y725926D01*
X621700Y726159D01*
D02*
G37*
G36*
X845300Y735148D02*
X842951Y734838D01*
X840761Y733931D01*
X838881Y732489D01*
X837439Y730609D01*
X836532Y728419D01*
X836223Y726070D01*
X836532Y723720D01*
X837439Y721531D01*
X838881Y719651D01*
X840761Y718208D01*
X842951Y717302D01*
X845300Y716992D01*
X847650Y717302D01*
X849839Y718208D01*
X851719Y719651D01*
X853162Y721531D01*
X854069Y723720D01*
X854378Y726070D01*
X854069Y728419D01*
X853162Y730609D01*
X851719Y732489D01*
X849839Y733931D01*
X847650Y734838D01*
X845300Y735148D01*
D02*
G37*
G36*
X811600Y722859D02*
X810430Y722626D01*
X809437Y721963D01*
X808774Y720971D01*
X808541Y719800D01*
X808774Y718629D01*
X809437Y717637D01*
X810430Y716974D01*
X811600Y716741D01*
X812771Y716974D01*
X813763Y717637D01*
X814426Y718629D01*
X814659Y719800D01*
X814426Y720971D01*
X813763Y721963D01*
X812771Y722626D01*
X811600Y722859D01*
D02*
G37*
G36*
X694200Y720959D02*
X693030Y720726D01*
X692037Y720063D01*
X691374Y719071D01*
X691142Y717900D01*
X691374Y716729D01*
X692037Y715737D01*
X693030Y715074D01*
X694200Y714841D01*
X695371Y715074D01*
X696363Y715737D01*
X697026Y716729D01*
X697259Y717900D01*
X697026Y719071D01*
X696363Y720063D01*
X695371Y720726D01*
X694200Y720959D01*
D02*
G37*
G36*
X630600Y720859D02*
X629430Y720626D01*
X628437Y719963D01*
X627774Y718970D01*
X627542Y717800D01*
X627774Y716629D01*
X628437Y715637D01*
X629430Y714974D01*
X630600Y714741D01*
X631771Y714974D01*
X632763Y715637D01*
X633426Y716629D01*
X633659Y717800D01*
X633426Y718970D01*
X632763Y719963D01*
X631771Y720626D01*
X630600Y720859D01*
D02*
G37*
G36*
X921500Y719908D02*
X919151Y719598D01*
X916961Y718691D01*
X915081Y717249D01*
X913639Y715369D01*
X912732Y713179D01*
X912423Y710830D01*
X912732Y708481D01*
X913639Y706291D01*
X915081Y704411D01*
X916961Y702969D01*
X919151Y702062D01*
X921500Y701752D01*
X923850Y702062D01*
X926039Y702969D01*
X927919Y704411D01*
X929362Y706291D01*
X930268Y708481D01*
X930578Y710830D01*
X930268Y713179D01*
X929362Y715369D01*
X927919Y717249D01*
X926039Y718691D01*
X923850Y719598D01*
X921500Y719908D01*
D02*
G37*
G36*
X896100D02*
X893751Y719598D01*
X891561Y718691D01*
X889681Y717249D01*
X888239Y715369D01*
X887332Y713179D01*
X887023Y710830D01*
X887332Y708481D01*
X888239Y706291D01*
X889681Y704411D01*
X891561Y702969D01*
X893751Y702062D01*
X896100Y701752D01*
X898450Y702062D01*
X900639Y702969D01*
X902519Y704411D01*
X903962Y706291D01*
X904868Y708481D01*
X905178Y710830D01*
X904868Y713179D01*
X903962Y715369D01*
X902519Y717249D01*
X900639Y718691D01*
X898450Y719598D01*
X896100Y719908D01*
D02*
G37*
G36*
X312100D02*
X309751Y719598D01*
X307561Y718691D01*
X305681Y717249D01*
X304239Y715369D01*
X303332Y713179D01*
X303023Y710830D01*
X303332Y708481D01*
X304239Y706291D01*
X305681Y704411D01*
X307561Y702969D01*
X309751Y702062D01*
X312100Y701752D01*
X314450Y702062D01*
X316639Y702969D01*
X318519Y704411D01*
X319962Y706291D01*
X320868Y708481D01*
X321178Y710830D01*
X320868Y713179D01*
X319962Y715369D01*
X318519Y717249D01*
X316639Y718691D01*
X314450Y719598D01*
X312100Y719908D01*
D02*
G37*
G36*
X286700D02*
X284351Y719598D01*
X282161Y718691D01*
X280281Y717249D01*
X278839Y715369D01*
X277932Y713179D01*
X277623Y710830D01*
X277932Y708481D01*
X278839Y706291D01*
X280281Y704411D01*
X282161Y702969D01*
X284351Y702062D01*
X286700Y701752D01*
X289050Y702062D01*
X291239Y702969D01*
X293119Y704411D01*
X294562Y706291D01*
X295469Y708481D01*
X295778Y710830D01*
X295469Y713179D01*
X294562Y715369D01*
X293119Y717249D01*
X291239Y718691D01*
X289050Y719598D01*
X286700Y719908D01*
D02*
G37*
G36*
X600600Y707389D02*
X599430Y707156D01*
X598437Y706493D01*
X597774Y705500D01*
X597542Y704330D01*
X597774Y703159D01*
X598437Y702167D01*
X599430Y701504D01*
X600600Y701271D01*
X601771Y701504D01*
X602763Y702167D01*
X603426Y703159D01*
X603659Y704330D01*
X603426Y705500D01*
X602763Y706493D01*
X601771Y707156D01*
X600600Y707389D01*
D02*
G37*
G36*
X702199Y703335D02*
X701028Y703102D01*
X700036Y702439D01*
X699373Y701447D01*
X699140Y700276D01*
X699373Y699105D01*
X700036Y698113D01*
X701028Y697450D01*
X702199Y697217D01*
X703369Y697450D01*
X704362Y698113D01*
X705025Y699105D01*
X705258Y700276D01*
X705025Y701447D01*
X704362Y702439D01*
X703369Y703102D01*
X702199Y703335D01*
D02*
G37*
G36*
X675600D02*
X674430Y703102D01*
X673437Y702439D01*
X672774Y701447D01*
X672542Y700276D01*
X672774Y699105D01*
X673437Y698113D01*
X674430Y697450D01*
X675600Y697217D01*
X676771Y697450D01*
X677763Y698113D01*
X678426Y699105D01*
X678659Y700276D01*
X678426Y701447D01*
X677763Y702439D01*
X676771Y703102D01*
X675600Y703335D01*
D02*
G37*
G36*
X642900D02*
X641730Y703102D01*
X640737Y702439D01*
X640074Y701447D01*
X639841Y700276D01*
X640074Y699105D01*
X640737Y698113D01*
X641730Y697450D01*
X642900Y697217D01*
X644071Y697450D01*
X645063Y698113D01*
X645726Y699105D01*
X645959Y700276D01*
X645726Y701447D01*
X645063Y702439D01*
X644071Y703102D01*
X642900Y703335D01*
D02*
G37*
G36*
X610100Y703159D02*
X608930Y702926D01*
X607937Y702263D01*
X607274Y701271D01*
X607042Y700100D01*
X607274Y698929D01*
X607937Y697937D01*
X608930Y697274D01*
X610100Y697041D01*
X611271Y697274D01*
X612263Y697937D01*
X612926Y698929D01*
X613159Y700100D01*
X612926Y701271D01*
X612263Y702263D01*
X611271Y702926D01*
X610100Y703159D01*
D02*
G37*
G36*
X798700Y707405D02*
X797530Y707172D01*
X796537Y706509D01*
X795874Y705517D01*
X795641Y704346D01*
X795874Y703176D01*
X796537Y702183D01*
Y700763D01*
X795874Y699771D01*
X795641Y698600D01*
X795874Y697429D01*
X796537Y696437D01*
X797530Y695774D01*
X798700Y695541D01*
X799871Y695774D01*
X800863Y696437D01*
X801526Y697429D01*
X801759Y698600D01*
X801526Y699771D01*
X800863Y700763D01*
Y702183D01*
X801526Y703176D01*
X801759Y704346D01*
X801526Y705517D01*
X800863Y706509D01*
X799871Y707172D01*
X798700Y707405D01*
D02*
G37*
G36*
X845300Y709748D02*
X842951Y709438D01*
X840761Y708531D01*
X838881Y707089D01*
X837439Y705209D01*
X836532Y703019D01*
X836223Y700670D01*
X836532Y698320D01*
X837439Y696131D01*
X838881Y694251D01*
X840761Y692809D01*
X842951Y691902D01*
X845300Y691592D01*
X847650Y691902D01*
X849839Y692809D01*
X851719Y694251D01*
X853162Y696131D01*
X854069Y698320D01*
X854378Y700670D01*
X854069Y703019D01*
X853162Y705209D01*
X851719Y707089D01*
X849839Y708531D01*
X847650Y709438D01*
X845300Y709748D01*
D02*
G37*
G36*
X691600Y697059D02*
X690430Y696826D01*
X689437Y696163D01*
X688774Y695171D01*
X688541Y694000D01*
X688774Y692829D01*
X689437Y691837D01*
X690430Y691174D01*
X691600Y690941D01*
X692771Y691174D01*
X693763Y691837D01*
X694426Y692829D01*
X694659Y694000D01*
X694426Y695171D01*
X693763Y696163D01*
X692771Y696826D01*
X691600Y697059D01*
D02*
G37*
G36*
X532400Y695059D02*
X531230Y694826D01*
X530237Y694163D01*
X529574Y693170D01*
X529342Y692000D01*
X529574Y690829D01*
X530237Y689837D01*
X531230Y689174D01*
X532400Y688941D01*
X533571Y689174D01*
X534563Y689837D01*
X535226Y690829D01*
X535459Y692000D01*
X535226Y693170D01*
X534563Y694163D01*
X533571Y694826D01*
X532400Y695059D01*
D02*
G37*
G36*
X523700D02*
X522530Y694826D01*
X521537Y694163D01*
X520874Y693170D01*
X520642Y692000D01*
X520874Y690829D01*
X521537Y689837D01*
X522530Y689174D01*
X523700Y688941D01*
X524871Y689174D01*
X525863Y689837D01*
X526526Y690829D01*
X526759Y692000D01*
X526526Y693170D01*
X525863Y694163D01*
X524871Y694826D01*
X523700Y695059D01*
D02*
G37*
G36*
X563699Y690357D02*
X562528Y690125D01*
X561536Y689461D01*
X560873Y688469D01*
X560640Y687299D01*
X560873Y686128D01*
X561536Y685136D01*
X562528Y684473D01*
X563699Y684240D01*
X564870Y684473D01*
X565862Y685136D01*
X566525Y686128D01*
X566758Y687299D01*
X566525Y688469D01*
X565862Y689461D01*
X564870Y690125D01*
X563699Y690357D01*
D02*
G37*
G36*
X685710Y692209D02*
X684540Y691976D01*
X683547Y691313D01*
X682884Y690321D01*
X682652Y689150D01*
X682884Y687979D01*
X683188Y687525D01*
X683540Y686974D01*
X682878Y685907D01*
X682827Y685873D01*
X682164Y684881D01*
X681932Y683710D01*
X682164Y682539D01*
X682827Y681547D01*
X683820Y680884D01*
X684990Y680651D01*
X686161Y680884D01*
X687153Y681547D01*
X687816Y682539D01*
X688049Y683710D01*
X687816Y684881D01*
X687513Y685335D01*
X687161Y685885D01*
X687822Y686953D01*
X687873Y686987D01*
X688536Y687979D01*
X688769Y689150D01*
X688536Y690321D01*
X687873Y691313D01*
X686881Y691976D01*
X685710Y692209D01*
D02*
G37*
G36*
X815853Y685759D02*
X814683Y685526D01*
X813690Y684863D01*
X813027Y683870D01*
X812794Y682700D01*
X813027Y681529D01*
X813690Y680537D01*
X814683Y679874D01*
X815853Y679641D01*
X817024Y679874D01*
X818016Y680537D01*
X818679Y681529D01*
X818912Y682700D01*
X818679Y683870D01*
X818016Y684863D01*
X817024Y685526D01*
X815853Y685759D01*
D02*
G37*
G36*
X667900D02*
X666730Y685526D01*
X665737Y684863D01*
X665074Y683870D01*
X664842Y682700D01*
X665074Y681529D01*
X665737Y680537D01*
X666730Y679874D01*
X667900Y679641D01*
X669071Y679874D01*
X670063Y680537D01*
X670726Y681529D01*
X670959Y682700D01*
X670726Y683870D01*
X670063Y684863D01*
X669071Y685526D01*
X667900Y685759D01*
D02*
G37*
G36*
X847300Y684589D02*
Y677270D01*
X854619D01*
X854556Y677750D01*
X853598Y680061D01*
X852076Y682045D01*
X850091Y683568D01*
X847780Y684525D01*
X847300Y684589D01*
D02*
G37*
G36*
X843300D02*
X842820Y684525D01*
X840509Y683568D01*
X838525Y682045D01*
X837002Y680061D01*
X836045Y677750D01*
X835982Y677270D01*
X843300D01*
Y684589D01*
D02*
G37*
G36*
X921500Y694508D02*
X919151Y694198D01*
X916961Y693291D01*
X915081Y691849D01*
X913639Y689969D01*
X912732Y687779D01*
X912423Y685430D01*
X912732Y683081D01*
X913639Y680891D01*
X915081Y679011D01*
X916961Y677569D01*
X919151Y676662D01*
X921500Y676352D01*
X923850Y676662D01*
X926039Y677569D01*
X927919Y679011D01*
X929362Y680891D01*
X930268Y683081D01*
X930578Y685430D01*
X930268Y687779D01*
X929362Y689969D01*
X927919Y691849D01*
X926039Y693291D01*
X923850Y694198D01*
X921500Y694508D01*
D02*
G37*
G36*
X896100D02*
X893751Y694198D01*
X891561Y693291D01*
X889681Y691849D01*
X888239Y689969D01*
X887332Y687779D01*
X887023Y685430D01*
X887332Y683081D01*
X888239Y680891D01*
X889681Y679011D01*
X891561Y677569D01*
X893751Y676662D01*
X896100Y676352D01*
X898450Y676662D01*
X900639Y677569D01*
X902519Y679011D01*
X903962Y680891D01*
X904868Y683081D01*
X905178Y685430D01*
X904868Y687779D01*
X903962Y689969D01*
X902519Y691849D01*
X900639Y693291D01*
X898450Y694198D01*
X896100Y694508D01*
D02*
G37*
G36*
X286700D02*
X284351Y694198D01*
X282161Y693291D01*
X280281Y691849D01*
X278839Y689969D01*
X277932Y687779D01*
X277623Y685430D01*
X277932Y683081D01*
X278839Y680891D01*
X280281Y679011D01*
X282161Y677569D01*
X284351Y676662D01*
X286700Y676352D01*
X289050Y676662D01*
X291239Y677569D01*
X293119Y679011D01*
X294562Y680891D01*
X295469Y683081D01*
X295778Y685430D01*
X295469Y687779D01*
X294562Y689969D01*
X293119Y691849D01*
X291239Y693291D01*
X289050Y694198D01*
X286700Y694508D01*
D02*
G37*
G36*
X854619Y673270D02*
X847300D01*
Y665951D01*
X847780Y666014D01*
X850091Y666972D01*
X852076Y668494D01*
X853598Y670479D01*
X854556Y672790D01*
X854619Y673270D01*
D02*
G37*
G36*
X843300D02*
X835982D01*
X836045Y672790D01*
X837002Y670479D01*
X838525Y668494D01*
X840509Y666972D01*
X842820Y666014D01*
X843300Y665951D01*
Y673270D01*
D02*
G37*
G36*
X490499Y670176D02*
X489329Y669943D01*
X488336Y669280D01*
X487673Y668288D01*
X487440Y667117D01*
X487673Y665947D01*
X488336Y664955D01*
X489329Y664291D01*
X490499Y664059D01*
X491670Y664291D01*
X492662Y664955D01*
X493325Y665947D01*
X493558Y667117D01*
X493325Y668288D01*
X492662Y669280D01*
X491670Y669943D01*
X490499Y670176D01*
D02*
G37*
G36*
X424780Y665989D02*
X423610Y665756D01*
X422617Y665093D01*
X421954Y664100D01*
X421721Y662930D01*
X421954Y661759D01*
X422617Y660767D01*
X423610Y660104D01*
X424780Y659871D01*
X425951Y660104D01*
X426943Y660767D01*
X427606Y661759D01*
X427839Y662930D01*
X427606Y664100D01*
X426943Y665093D01*
X425951Y665756D01*
X424780Y665989D01*
D02*
G37*
G36*
X415400Y661459D02*
X414230Y661226D01*
X413237Y660563D01*
X412574Y659570D01*
X412341Y658400D01*
X412574Y657229D01*
X413237Y656237D01*
X414230Y655574D01*
X415400Y655341D01*
X416571Y655574D01*
X417563Y656237D01*
X418226Y657229D01*
X418459Y658400D01*
X418226Y659570D01*
X417563Y660563D01*
X416571Y661226D01*
X415400Y661459D01*
D02*
G37*
G36*
X501900Y656459D02*
X500730Y656226D01*
X499737Y655563D01*
X499074Y654570D01*
X498842Y653400D01*
X498861Y653303D01*
X497781Y652223D01*
X497600Y652259D01*
X496430Y652026D01*
X495437Y651363D01*
X494774Y650370D01*
X494542Y649200D01*
X494774Y648029D01*
X495437Y647037D01*
X496430Y646374D01*
X497600Y646141D01*
X498771Y646374D01*
X499763Y647037D01*
X500426Y648029D01*
X500659Y649200D01*
X500640Y649297D01*
X501720Y650377D01*
X501900Y650341D01*
X503071Y650574D01*
X504063Y651237D01*
X504726Y652229D01*
X504959Y653400D01*
X504726Y654570D01*
X504063Y655563D01*
X503071Y656226D01*
X501900Y656459D01*
D02*
G37*
G36*
X371700Y669200D02*
X353700D01*
Y651200D01*
X371700D01*
Y669200D01*
D02*
G37*
G36*
X921500Y669108D02*
X919151Y668798D01*
X916961Y667891D01*
X915081Y666449D01*
X913639Y664569D01*
X912732Y662379D01*
X912423Y660030D01*
X912732Y657681D01*
X913639Y655491D01*
X915081Y653611D01*
X916961Y652169D01*
X919151Y651262D01*
X921500Y650952D01*
X923850Y651262D01*
X926039Y652169D01*
X927919Y653611D01*
X929362Y655491D01*
X930268Y657681D01*
X930578Y660030D01*
X930268Y662379D01*
X929362Y664569D01*
X927919Y666449D01*
X926039Y667891D01*
X923850Y668798D01*
X921500Y669108D01*
D02*
G37*
G36*
X896100D02*
X893751Y668798D01*
X891561Y667891D01*
X889681Y666449D01*
X888239Y664569D01*
X887332Y662379D01*
X887023Y660030D01*
X887332Y657681D01*
X888239Y655491D01*
X889681Y653611D01*
X891561Y652169D01*
X893751Y651262D01*
X896100Y650952D01*
X898450Y651262D01*
X900639Y652169D01*
X902519Y653611D01*
X903962Y655491D01*
X904868Y657681D01*
X905178Y660030D01*
X904868Y662379D01*
X903962Y664569D01*
X902519Y666449D01*
X900639Y667891D01*
X898450Y668798D01*
X896100Y669108D01*
D02*
G37*
G36*
X312100Y694508D02*
X309751Y694198D01*
X307561Y693291D01*
X305681Y691849D01*
X304239Y689969D01*
X303332Y687779D01*
X303023Y685430D01*
X303332Y683081D01*
X304239Y680891D01*
X305681Y679011D01*
X307561Y677569D01*
X309751Y676662D01*
X312042Y676360D01*
X312120Y676247D01*
X312399Y675071D01*
X311937Y674763D01*
X311274Y673771D01*
X311042Y672600D01*
X311274Y671429D01*
X311937Y670437D01*
X312107Y670324D01*
X312106Y670291D01*
X311717Y669057D01*
X309751Y668798D01*
X307561Y667891D01*
X305681Y666449D01*
X304239Y664569D01*
X303332Y662379D01*
X303023Y660030D01*
X303332Y657681D01*
X304239Y655491D01*
X305681Y653611D01*
X307561Y652169D01*
X309751Y651262D01*
X312100Y650952D01*
X314450Y651262D01*
X316639Y652169D01*
X318519Y653611D01*
X319962Y655491D01*
X320868Y657681D01*
X321178Y660030D01*
X320868Y662379D01*
X319962Y664569D01*
X318519Y666449D01*
X316639Y667891D01*
X315237Y668472D01*
X315264Y669496D01*
X315325Y669810D01*
X316263Y670437D01*
X316926Y671429D01*
X317159Y672600D01*
X316926Y673771D01*
X316263Y674763D01*
X315271Y675426D01*
X314943Y675491D01*
X314813Y676812D01*
X316639Y677569D01*
X318519Y679011D01*
X319962Y680891D01*
X320868Y683081D01*
X321178Y685430D01*
X320868Y687779D01*
X319962Y689969D01*
X318519Y691849D01*
X316639Y693291D01*
X314450Y694198D01*
X312100Y694508D01*
D02*
G37*
G36*
X286700Y669108D02*
X284351Y668798D01*
X282161Y667891D01*
X280281Y666449D01*
X278839Y664569D01*
X277932Y662379D01*
X277623Y660030D01*
X277932Y657681D01*
X278839Y655491D01*
X280281Y653611D01*
X282161Y652169D01*
X284351Y651262D01*
X286700Y650952D01*
X289050Y651262D01*
X291239Y652169D01*
X293119Y653611D01*
X294562Y655491D01*
X295469Y657681D01*
X295778Y660030D01*
X295469Y662379D01*
X294562Y664569D01*
X293119Y666449D01*
X291239Y667891D01*
X289050Y668798D01*
X286700Y669108D01*
D02*
G37*
G36*
X510263Y650346D02*
X509092Y650113D01*
X508100Y649450D01*
X507437Y648457D01*
X507204Y647287D01*
X507437Y646116D01*
X508100Y645124D01*
X509092Y644461D01*
X510263Y644228D01*
X511433Y644461D01*
X512425Y645124D01*
X513088Y646116D01*
X513321Y647287D01*
X513088Y648457D01*
X512425Y649450D01*
X511433Y650113D01*
X510263Y650346D01*
D02*
G37*
G36*
X534500Y649159D02*
X533330Y648926D01*
X532337Y648263D01*
X531674Y647271D01*
X531441Y646100D01*
X531674Y644929D01*
X532337Y643937D01*
X533330Y643274D01*
X534500Y643041D01*
X535671Y643274D01*
X536663Y643937D01*
X537326Y644929D01*
X537559Y646100D01*
X537326Y647271D01*
X536663Y648263D01*
X535671Y648926D01*
X534500Y649159D01*
D02*
G37*
G36*
X845300Y658948D02*
X842951Y658638D01*
X840761Y657731D01*
X838881Y656289D01*
X837439Y654409D01*
X836532Y652219D01*
X836223Y649870D01*
X836532Y647521D01*
X837439Y645331D01*
X838881Y643451D01*
X840761Y642009D01*
X842951Y641102D01*
X845300Y640792D01*
X847650Y641102D01*
X849839Y642009D01*
X851719Y643451D01*
X853162Y645331D01*
X854069Y647521D01*
X854378Y649870D01*
X854069Y652219D01*
X853162Y654409D01*
X851719Y656289D01*
X849839Y657731D01*
X847650Y658638D01*
X845300Y658948D01*
D02*
G37*
G36*
X288700Y643949D02*
Y636630D01*
X296019D01*
X295956Y637110D01*
X294998Y639421D01*
X293476Y641405D01*
X291491Y642928D01*
X289180Y643885D01*
X288700Y643949D01*
D02*
G37*
G36*
X284700D02*
X284220Y643885D01*
X281909Y642928D01*
X279925Y641405D01*
X278402Y639421D01*
X277445Y637110D01*
X277382Y636630D01*
X284700D01*
Y643949D01*
D02*
G37*
G36*
X534500Y634259D02*
X533330Y634026D01*
X532337Y633363D01*
X531674Y632370D01*
X531441Y631200D01*
X531674Y630029D01*
X532337Y629037D01*
X533330Y628374D01*
X534500Y628141D01*
X535671Y628374D01*
X536663Y629037D01*
X537326Y630029D01*
X537559Y631200D01*
X537326Y632370D01*
X536663Y633363D01*
X535671Y634026D01*
X534500Y634259D01*
D02*
G37*
G36*
X362700Y643878D02*
X360351Y643568D01*
X358161Y642661D01*
X356281Y641219D01*
X354839Y639339D01*
X353932Y637149D01*
X353623Y634800D01*
X353932Y632450D01*
X354839Y630261D01*
X356281Y628381D01*
X358161Y626939D01*
X360351Y626032D01*
X362700Y625722D01*
X365050Y626032D01*
X367239Y626939D01*
X369119Y628381D01*
X370562Y630261D01*
X371469Y632450D01*
X371778Y634800D01*
X371469Y637149D01*
X370562Y639339D01*
X369119Y641219D01*
X367239Y642661D01*
X365050Y643568D01*
X362700Y643878D01*
D02*
G37*
G36*
X921500Y643708D02*
X919151Y643398D01*
X916961Y642491D01*
X915081Y641049D01*
X913639Y639169D01*
X912732Y636979D01*
X912423Y634630D01*
X912732Y632281D01*
X913639Y630091D01*
X915081Y628211D01*
X916961Y626768D01*
X919151Y625862D01*
X921500Y625552D01*
X923850Y625862D01*
X926039Y626768D01*
X927919Y628211D01*
X929362Y630091D01*
X930268Y632281D01*
X930578Y634630D01*
X930268Y636979D01*
X929362Y639169D01*
X927919Y641049D01*
X926039Y642491D01*
X923850Y643398D01*
X921500Y643708D01*
D02*
G37*
G36*
X896100D02*
X893751Y643398D01*
X891561Y642491D01*
X889681Y641049D01*
X888239Y639169D01*
X887332Y636979D01*
X887023Y634630D01*
X887332Y632281D01*
X888239Y630091D01*
X889681Y628211D01*
X891561Y626768D01*
X893751Y625862D01*
X896100Y625552D01*
X898450Y625862D01*
X900639Y626768D01*
X902519Y628211D01*
X903962Y630091D01*
X904868Y632281D01*
X905178Y634630D01*
X904868Y636979D01*
X903962Y639169D01*
X902519Y641049D01*
X900639Y642491D01*
X898450Y643398D01*
X896100Y643708D01*
D02*
G37*
G36*
X312100D02*
X309751Y643398D01*
X307561Y642491D01*
X305681Y641049D01*
X304239Y639169D01*
X303332Y636979D01*
X303023Y634630D01*
X303332Y632281D01*
X304239Y630091D01*
X305681Y628211D01*
X307561Y626768D01*
X309751Y625862D01*
X312100Y625552D01*
X314450Y625862D01*
X316639Y626768D01*
X318519Y628211D01*
X319962Y630091D01*
X320868Y632281D01*
X321178Y634630D01*
X320868Y636979D01*
X319962Y639169D01*
X318519Y641049D01*
X316639Y642491D01*
X314450Y643398D01*
X312100Y643708D01*
D02*
G37*
G36*
X296019Y632630D02*
X288700D01*
Y625311D01*
X289180Y625374D01*
X291491Y626332D01*
X293476Y627854D01*
X294998Y629839D01*
X295956Y632150D01*
X296019Y632630D01*
D02*
G37*
G36*
X284700D02*
X277382D01*
X277445Y632150D01*
X278402Y629839D01*
X279925Y627854D01*
X281909Y626332D01*
X284220Y625374D01*
X284700Y625311D01*
Y632630D01*
D02*
G37*
G36*
X845300Y633548D02*
X842951Y633238D01*
X840761Y632331D01*
X838881Y630889D01*
X837439Y629009D01*
X836532Y626819D01*
X836223Y624470D01*
X836532Y622121D01*
X837439Y619931D01*
X838881Y618051D01*
X840761Y616609D01*
X842951Y615702D01*
X845300Y615392D01*
X847650Y615702D01*
X849839Y616609D01*
X851719Y618051D01*
X853162Y619931D01*
X854069Y622121D01*
X854378Y624470D01*
X854069Y626819D01*
X853162Y629009D01*
X851719Y630889D01*
X849839Y632331D01*
X847650Y633238D01*
X845300Y633548D01*
D02*
G37*
G36*
X563700Y619259D02*
X562530Y619026D01*
X561537Y618363D01*
X560874Y617370D01*
X560642Y616200D01*
X560874Y615029D01*
X561537Y614037D01*
X562530Y613374D01*
X563700Y613141D01*
X564871Y613374D01*
X565863Y614037D01*
X566526Y615029D01*
X566759Y616200D01*
X566526Y617370D01*
X565863Y618363D01*
X564871Y619026D01*
X563700Y619259D01*
D02*
G37*
G36*
X288700Y618549D02*
Y611230D01*
X296019D01*
X295956Y611710D01*
X294998Y614021D01*
X293476Y616005D01*
X291491Y617528D01*
X289180Y618485D01*
X288700Y618549D01*
D02*
G37*
G36*
X284700D02*
X284220Y618485D01*
X281909Y617528D01*
X279925Y616005D01*
X278402Y614021D01*
X277445Y611710D01*
X277382Y611230D01*
X284700D01*
Y618549D01*
D02*
G37*
G36*
X362700Y618478D02*
X360351Y618168D01*
X358161Y617261D01*
X356281Y615819D01*
X354839Y613939D01*
X353932Y611749D01*
X353623Y609400D01*
X353932Y607051D01*
X354839Y604861D01*
X356281Y602981D01*
X358161Y601539D01*
X360351Y600632D01*
X362700Y600322D01*
X365050Y600632D01*
X367239Y601539D01*
X369119Y602981D01*
X370562Y604861D01*
X371469Y607051D01*
X371778Y609400D01*
X371469Y611749D01*
X370562Y613939D01*
X369119Y615819D01*
X367239Y617261D01*
X365050Y618168D01*
X362700Y618478D01*
D02*
G37*
G36*
X921500Y618308D02*
X919151Y617998D01*
X916961Y617091D01*
X915081Y615649D01*
X913639Y613769D01*
X912732Y611579D01*
X912423Y609230D01*
X912732Y606880D01*
X913639Y604691D01*
X915081Y602811D01*
X916961Y601368D01*
X919151Y600462D01*
X921500Y600152D01*
X923850Y600462D01*
X926039Y601368D01*
X927919Y602811D01*
X929362Y604691D01*
X930268Y606880D01*
X930578Y609230D01*
X930268Y611579D01*
X929362Y613769D01*
X927919Y615649D01*
X926039Y617091D01*
X923850Y617998D01*
X921500Y618308D01*
D02*
G37*
G36*
X896100D02*
X893751Y617998D01*
X891561Y617091D01*
X889681Y615649D01*
X888239Y613769D01*
X887332Y611579D01*
X887023Y609230D01*
X887332Y606880D01*
X888239Y604691D01*
X889681Y602811D01*
X891561Y601368D01*
X893751Y600462D01*
X896100Y600152D01*
X898450Y600462D01*
X900639Y601368D01*
X902519Y602811D01*
X903962Y604691D01*
X904868Y606880D01*
X905178Y609230D01*
X904868Y611579D01*
X903962Y613769D01*
X902519Y615649D01*
X900639Y617091D01*
X898450Y617998D01*
X896100Y618308D01*
D02*
G37*
G36*
X312100D02*
X309751Y617998D01*
X307561Y617091D01*
X305681Y615649D01*
X304239Y613769D01*
X303332Y611579D01*
X303023Y609230D01*
X303332Y606880D01*
X304239Y604691D01*
X305681Y602811D01*
X307561Y601368D01*
X309751Y600462D01*
X312100Y600152D01*
X314450Y600462D01*
X316639Y601368D01*
X318519Y602811D01*
X319962Y604691D01*
X320868Y606880D01*
X321178Y609230D01*
X320868Y611579D01*
X319962Y613769D01*
X318519Y615649D01*
X316639Y617091D01*
X314450Y617998D01*
X312100Y618308D01*
D02*
G37*
G36*
X296019Y607230D02*
X288700D01*
Y599911D01*
X289180Y599975D01*
X291491Y600932D01*
X293476Y602454D01*
X294998Y604439D01*
X295956Y606750D01*
X296019Y607230D01*
D02*
G37*
G36*
X284700D02*
X277382D01*
X277445Y606750D01*
X278402Y604439D01*
X279925Y602454D01*
X281909Y600932D01*
X284220Y599975D01*
X284700Y599911D01*
Y607230D01*
D02*
G37*
G36*
X381500Y607459D02*
X380330Y607226D01*
X379337Y606563D01*
X378674Y605570D01*
X378442Y604400D01*
X378674Y603229D01*
X379337Y602237D01*
X380330Y601574D01*
X381500Y601341D01*
X382671Y601574D01*
X382903Y601729D01*
X383487Y601487D01*
X384150Y600494D01*
X385143Y599831D01*
X386313Y599599D01*
X387484Y599831D01*
X388476Y600494D01*
X389139Y601487D01*
X389372Y602657D01*
X389139Y603828D01*
X388476Y604820D01*
X387484Y605483D01*
X386313Y605716D01*
X385143Y605483D01*
X384911Y605328D01*
X384326Y605570D01*
X383663Y606563D01*
X382671Y607226D01*
X381500Y607459D01*
D02*
G37*
G36*
X845300Y608148D02*
X842951Y607838D01*
X840761Y606931D01*
X838881Y605489D01*
X837439Y603609D01*
X836532Y601419D01*
X836223Y599070D01*
X836532Y596721D01*
X837439Y594531D01*
X838881Y592651D01*
X840761Y591208D01*
X842951Y590302D01*
X845300Y589992D01*
X847650Y590302D01*
X849839Y591208D01*
X851719Y592651D01*
X853162Y594531D01*
X854069Y596721D01*
X854378Y599070D01*
X854069Y601419D01*
X853162Y603609D01*
X851719Y605489D01*
X849839Y606931D01*
X847650Y607838D01*
X845300Y608148D01*
D02*
G37*
G36*
X268408Y599359D02*
X267237Y599126D01*
X266245Y598463D01*
X265582Y597471D01*
X265349Y596300D01*
X265582Y595129D01*
X265818Y594777D01*
X266078Y593705D01*
X265777Y592923D01*
X265474Y592471D01*
X265242Y591300D01*
X265474Y590129D01*
X266137Y589137D01*
X267130Y588474D01*
X268300Y588241D01*
X269471Y588474D01*
X270463Y589137D01*
X271126Y590129D01*
X271359Y591300D01*
X271126Y592471D01*
X270890Y592823D01*
X270630Y593895D01*
X270932Y594677D01*
X271234Y595129D01*
X271467Y596300D01*
X271234Y597471D01*
X270571Y598463D01*
X269578Y599126D01*
X268408Y599359D01*
D02*
G37*
G36*
X801000Y601559D02*
X799830Y601326D01*
X798837Y600663D01*
X798174Y599670D01*
X797942Y598500D01*
X798174Y597329D01*
X798837Y596337D01*
X799830Y595674D01*
X800731Y595495D01*
X801131Y595217D01*
X801677Y594281D01*
X801542Y593600D01*
X801615Y593231D01*
X801043Y592141D01*
X800665Y591992D01*
X799830Y591826D01*
X798837Y591163D01*
X798174Y590171D01*
X797942Y589000D01*
X798174Y587829D01*
X798837Y586837D01*
X799830Y586174D01*
X801000Y585941D01*
X802171Y586174D01*
X803163Y586837D01*
X803826Y587829D01*
X804059Y589000D01*
X803986Y589369D01*
X804557Y590459D01*
X804936Y590608D01*
X805771Y590774D01*
X806763Y591437D01*
X807426Y592429D01*
X807659Y593600D01*
X807426Y594771D01*
X806763Y595763D01*
X805771Y596426D01*
X804870Y596605D01*
X804470Y596883D01*
X803924Y597819D01*
X804059Y598500D01*
X803826Y599670D01*
X803163Y600663D01*
X802171Y601326D01*
X801000Y601559D01*
D02*
G37*
G36*
X288700Y593149D02*
Y585830D01*
X296019D01*
X295956Y586310D01*
X294998Y588621D01*
X293476Y590605D01*
X291491Y592128D01*
X289180Y593085D01*
X288700Y593149D01*
D02*
G37*
G36*
X284700D02*
X284220Y593085D01*
X281909Y592128D01*
X279925Y590605D01*
X278402Y588621D01*
X277445Y586310D01*
X277382Y585830D01*
X284700D01*
Y593149D01*
D02*
G37*
G36*
X740900Y583059D02*
X739730Y582826D01*
X738737Y582163D01*
X738074Y581171D01*
X737841Y580000D01*
X738074Y578829D01*
X738737Y577837D01*
X739730Y577174D01*
X740900Y576941D01*
X742071Y577174D01*
X743063Y577837D01*
X743726Y578829D01*
X743959Y580000D01*
X743726Y581171D01*
X743063Y582163D01*
X742071Y582826D01*
X740900Y583059D01*
D02*
G37*
G36*
X817100Y582159D02*
X815930Y581926D01*
X814937Y581263D01*
X814274Y580271D01*
X814042Y579100D01*
X814274Y577929D01*
X814937Y576937D01*
X815930Y576274D01*
X817100Y576041D01*
X818271Y576274D01*
X819263Y576937D01*
X819926Y577929D01*
X820159Y579100D01*
X819926Y580271D01*
X819263Y581263D01*
X818271Y581926D01*
X817100Y582159D01*
D02*
G37*
G36*
X362700Y593078D02*
X360351Y592768D01*
X358161Y591861D01*
X356281Y590419D01*
X354839Y588539D01*
X353932Y586349D01*
X353623Y584000D01*
X353932Y581651D01*
X354839Y579461D01*
X356281Y577581D01*
X358161Y576138D01*
X360351Y575232D01*
X362700Y574922D01*
X365050Y575232D01*
X367239Y576138D01*
X369119Y577581D01*
X370562Y579461D01*
X371469Y581651D01*
X371778Y584000D01*
X371469Y586349D01*
X370562Y588539D01*
X369119Y590419D01*
X367239Y591861D01*
X365050Y592768D01*
X362700Y593078D01*
D02*
G37*
G36*
X921500Y592908D02*
X919151Y592598D01*
X916961Y591691D01*
X915081Y590249D01*
X913639Y588369D01*
X912732Y586179D01*
X912423Y583830D01*
X912732Y581480D01*
X913639Y579291D01*
X915081Y577411D01*
X916961Y575969D01*
X919151Y575062D01*
X921500Y574752D01*
X923850Y575062D01*
X926039Y575969D01*
X927919Y577411D01*
X929362Y579291D01*
X930268Y581480D01*
X930578Y583830D01*
X930268Y586179D01*
X929362Y588369D01*
X927919Y590249D01*
X926039Y591691D01*
X923850Y592598D01*
X921500Y592908D01*
D02*
G37*
G36*
X896100D02*
X893751Y592598D01*
X891561Y591691D01*
X889681Y590249D01*
X888239Y588369D01*
X887332Y586179D01*
X887023Y583830D01*
X887332Y581480D01*
X888239Y579291D01*
X889681Y577411D01*
X891561Y575969D01*
X893751Y575062D01*
X896100Y574752D01*
X898450Y575062D01*
X900639Y575969D01*
X902519Y577411D01*
X903962Y579291D01*
X904868Y581480D01*
X905178Y583830D01*
X904868Y586179D01*
X903962Y588369D01*
X902519Y590249D01*
X900639Y591691D01*
X898450Y592598D01*
X896100Y592908D01*
D02*
G37*
G36*
X312100D02*
X309751Y592598D01*
X307561Y591691D01*
X305681Y590249D01*
X304239Y588369D01*
X303332Y586179D01*
X303023Y583830D01*
X303332Y581480D01*
X304239Y579291D01*
X305681Y577411D01*
X307561Y575969D01*
X309751Y575062D01*
X312100Y574752D01*
X314450Y575062D01*
X316639Y575969D01*
X318519Y577411D01*
X319962Y579291D01*
X320868Y581480D01*
X321178Y583830D01*
X320868Y586179D01*
X319962Y588369D01*
X318519Y590249D01*
X316639Y591691D01*
X314450Y592598D01*
X312100Y592908D01*
D02*
G37*
G36*
X296019Y581830D02*
X288700D01*
Y574511D01*
X289180Y574575D01*
X291491Y575532D01*
X293476Y577054D01*
X294998Y579039D01*
X295956Y581350D01*
X296019Y581830D01*
D02*
G37*
G36*
X284700D02*
X277382D01*
X277445Y581350D01*
X278402Y579039D01*
X279925Y577054D01*
X281909Y575532D01*
X284220Y574575D01*
X284700Y574511D01*
Y581830D01*
D02*
G37*
G36*
X756930Y574329D02*
X755760Y574096D01*
X754767Y573433D01*
X754104Y572440D01*
X753872Y571270D01*
X754104Y570099D01*
X754767Y569107D01*
X755760Y568444D01*
X756930Y568211D01*
X758101Y568444D01*
X759093Y569107D01*
X759756Y570099D01*
X759989Y571270D01*
X759756Y572440D01*
X759093Y573433D01*
X758101Y574096D01*
X756930Y574329D01*
D02*
G37*
G36*
X802700Y570759D02*
X801530Y570526D01*
X800537Y569863D01*
X799874Y568871D01*
X799641Y567700D01*
X799874Y566529D01*
X800537Y565537D01*
X801530Y564874D01*
X802700Y564641D01*
X803871Y564874D01*
X804863Y565537D01*
X805526Y566529D01*
X805759Y567700D01*
X805526Y568871D01*
X804863Y569863D01*
X803871Y570526D01*
X802700Y570759D01*
D02*
G37*
G36*
X845300Y582748D02*
X842951Y582438D01*
X840761Y581531D01*
X838881Y580089D01*
X837439Y578209D01*
X836532Y576019D01*
X836223Y573670D01*
X836532Y571320D01*
X837439Y569131D01*
X838881Y567251D01*
X840761Y565808D01*
X842951Y564902D01*
X845300Y564592D01*
X847650Y564902D01*
X849839Y565808D01*
X851719Y567251D01*
X853162Y569131D01*
X854069Y571320D01*
X854378Y573670D01*
X854069Y576019D01*
X853162Y578209D01*
X851719Y580089D01*
X849839Y581531D01*
X847650Y582438D01*
X845300Y582748D01*
D02*
G37*
G36*
X339935Y568659D02*
X338765Y568426D01*
X337772Y567763D01*
X337109Y566771D01*
X336876Y565600D01*
X337109Y564429D01*
X337772Y563437D01*
X338765Y562774D01*
X339935Y562541D01*
X341106Y562774D01*
X342098Y563437D01*
X342761Y564429D01*
X342994Y565600D01*
X342761Y566771D01*
X342098Y567763D01*
X341106Y568426D01*
X339935Y568659D01*
D02*
G37*
G36*
X288700Y567749D02*
Y560430D01*
X296019D01*
X295956Y560910D01*
X294998Y563221D01*
X293476Y565205D01*
X291491Y566728D01*
X289180Y567685D01*
X288700Y567749D01*
D02*
G37*
G36*
X284700D02*
X284220Y567685D01*
X281909Y566728D01*
X279925Y565205D01*
X278402Y563221D01*
X277445Y560910D01*
X277382Y560430D01*
X284700D01*
Y567749D01*
D02*
G37*
G36*
X362700Y567678D02*
X360351Y567368D01*
X358161Y566461D01*
X356281Y565019D01*
X354839Y563139D01*
X353932Y560949D01*
X353623Y558600D01*
X353932Y556250D01*
X354839Y554061D01*
X356281Y552181D01*
X358161Y550738D01*
X360351Y549832D01*
X362700Y549522D01*
X365050Y549832D01*
X367239Y550738D01*
X369119Y552181D01*
X370562Y554061D01*
X371469Y556250D01*
X371778Y558600D01*
X371469Y560949D01*
X370562Y563139D01*
X369119Y565019D01*
X367239Y566461D01*
X365050Y567368D01*
X362700Y567678D01*
D02*
G37*
G36*
X921500Y567508D02*
X919151Y567198D01*
X916961Y566291D01*
X915081Y564849D01*
X913639Y562969D01*
X912732Y560779D01*
X912423Y558430D01*
X912732Y556081D01*
X913639Y553891D01*
X915081Y552011D01*
X916961Y550569D01*
X919151Y549662D01*
X921500Y549352D01*
X923850Y549662D01*
X926039Y550569D01*
X927919Y552011D01*
X929362Y553891D01*
X930268Y556081D01*
X930578Y558430D01*
X930268Y560779D01*
X929362Y562969D01*
X927919Y564849D01*
X926039Y566291D01*
X923850Y567198D01*
X921500Y567508D01*
D02*
G37*
G36*
X896100D02*
X893751Y567198D01*
X891561Y566291D01*
X889681Y564849D01*
X888239Y562969D01*
X887332Y560779D01*
X887023Y558430D01*
X887332Y556081D01*
X888239Y553891D01*
X889681Y552011D01*
X891561Y550569D01*
X893751Y549662D01*
X896100Y549352D01*
X898450Y549662D01*
X900639Y550569D01*
X902519Y552011D01*
X903962Y553891D01*
X904868Y556081D01*
X905178Y558430D01*
X904868Y560779D01*
X903962Y562969D01*
X902519Y564849D01*
X900639Y566291D01*
X898450Y567198D01*
X896100Y567508D01*
D02*
G37*
G36*
X312100D02*
X309751Y567198D01*
X307561Y566291D01*
X305681Y564849D01*
X304239Y562969D01*
X303332Y560779D01*
X303023Y558430D01*
X303332Y556081D01*
X304239Y553891D01*
X305681Y552011D01*
X307561Y550569D01*
X309751Y549662D01*
X312100Y549352D01*
X314450Y549662D01*
X316639Y550569D01*
X318519Y552011D01*
X319962Y553891D01*
X320868Y556081D01*
X321178Y558430D01*
X320868Y560779D01*
X319962Y562969D01*
X318519Y564849D01*
X316639Y566291D01*
X314450Y567198D01*
X312100Y567508D01*
D02*
G37*
G36*
X296019Y556430D02*
X288700D01*
Y549111D01*
X289180Y549174D01*
X291491Y550132D01*
X293476Y551655D01*
X294998Y553639D01*
X295956Y555950D01*
X296019Y556430D01*
D02*
G37*
G36*
X284700D02*
X277382D01*
X277445Y555950D01*
X278402Y553639D01*
X279925Y551655D01*
X281909Y550132D01*
X284220Y549174D01*
X284700Y549111D01*
Y556430D01*
D02*
G37*
G36*
X408112Y554358D02*
X406942Y554125D01*
X405949Y553462D01*
X405286Y552469D01*
X405053Y551299D01*
X405286Y550128D01*
X405949Y549136D01*
X406942Y548473D01*
X408112Y548240D01*
X409283Y548473D01*
X410275Y549136D01*
X410938Y550128D01*
X411171Y551299D01*
X410938Y552469D01*
X410275Y553462D01*
X409283Y554125D01*
X408112Y554358D01*
D02*
G37*
G36*
X477600Y552565D02*
X476430Y552332D01*
X475437Y551669D01*
X474774Y550677D01*
X474542Y549506D01*
X474774Y548336D01*
X475437Y547344D01*
X476430Y546680D01*
X477600Y546448D01*
X478771Y546680D01*
X479763Y547344D01*
X480426Y548336D01*
X480659Y549506D01*
X480426Y550677D01*
X479763Y551669D01*
X478771Y552332D01*
X477600Y552565D01*
D02*
G37*
G36*
X499200Y551821D02*
X498030Y551588D01*
X497037Y550925D01*
X496374Y549933D01*
X496142Y548762D01*
X496374Y547592D01*
X497037Y546600D01*
X498030Y545937D01*
X499200Y545704D01*
X500371Y545937D01*
X501363Y546600D01*
X502026Y547592D01*
X502259Y548762D01*
X502026Y549933D01*
X501363Y550925D01*
X500371Y551588D01*
X499200Y551821D01*
D02*
G37*
G36*
X434100Y550159D02*
X432930Y549926D01*
X431937Y549263D01*
X431274Y548270D01*
X431041Y547100D01*
X431274Y545929D01*
X431937Y544937D01*
X432930Y544274D01*
X434100Y544041D01*
X435271Y544274D01*
X436263Y544937D01*
X436926Y545929D01*
X437159Y547100D01*
X436926Y548270D01*
X436263Y549263D01*
X435271Y549926D01*
X434100Y550159D01*
D02*
G37*
G36*
X845300Y557348D02*
X842951Y557038D01*
X840761Y556131D01*
X838881Y554689D01*
X837439Y552809D01*
X836532Y550619D01*
X836223Y548270D01*
X836532Y545920D01*
X837439Y543731D01*
X838881Y541851D01*
X840761Y540409D01*
X842951Y539502D01*
X845300Y539192D01*
X847650Y539502D01*
X849839Y540409D01*
X851719Y541851D01*
X853162Y543731D01*
X854069Y545920D01*
X854378Y548270D01*
X854069Y550619D01*
X853162Y552809D01*
X851719Y554689D01*
X849839Y556131D01*
X847650Y557038D01*
X845300Y557348D01*
D02*
G37*
G36*
X339801Y543561D02*
X338630Y543328D01*
X337638Y542665D01*
X336975Y541673D01*
X336742Y540502D01*
X336975Y539332D01*
X337638Y538340D01*
X338630Y537677D01*
X339801Y537444D01*
X340971Y537677D01*
X341964Y538340D01*
X342626Y539332D01*
X342859Y540502D01*
X342626Y541673D01*
X341964Y542665D01*
X340971Y543328D01*
X339801Y543561D01*
D02*
G37*
G36*
X364700Y542519D02*
Y535200D01*
X372019D01*
X371956Y535680D01*
X370998Y537991D01*
X369476Y539975D01*
X367491Y541498D01*
X365180Y542455D01*
X364700Y542519D01*
D02*
G37*
G36*
X360700D02*
X360220Y542455D01*
X357909Y541498D01*
X355925Y539975D01*
X354402Y537991D01*
X353445Y535680D01*
X353382Y535200D01*
X360700D01*
Y542519D01*
D02*
G37*
G36*
X288700Y542349D02*
Y535030D01*
X296019D01*
X295956Y535510D01*
X294998Y537821D01*
X293476Y539805D01*
X291491Y541328D01*
X289180Y542285D01*
X288700Y542349D01*
D02*
G37*
G36*
X284700D02*
X284220Y542285D01*
X281909Y541328D01*
X279925Y539805D01*
X278402Y537821D01*
X277445Y535510D01*
X277382Y535030D01*
X284700D01*
Y542349D01*
D02*
G37*
G36*
X921500Y542108D02*
X919151Y541798D01*
X916961Y540891D01*
X915081Y539449D01*
X913639Y537569D01*
X912732Y535379D01*
X912423Y533030D01*
X912732Y530681D01*
X913639Y528491D01*
X915081Y526611D01*
X916961Y525168D01*
X919151Y524262D01*
X921500Y523952D01*
X923850Y524262D01*
X926039Y525168D01*
X927919Y526611D01*
X929362Y528491D01*
X930268Y530681D01*
X930578Y533030D01*
X930268Y535379D01*
X929362Y537569D01*
X927919Y539449D01*
X926039Y540891D01*
X923850Y541798D01*
X921500Y542108D01*
D02*
G37*
G36*
X896100D02*
X893751Y541798D01*
X891561Y540891D01*
X889681Y539449D01*
X888239Y537569D01*
X887332Y535379D01*
X887023Y533030D01*
X887332Y530681D01*
X888239Y528491D01*
X889681Y526611D01*
X891561Y525168D01*
X893751Y524262D01*
X896100Y523952D01*
X898450Y524262D01*
X900639Y525168D01*
X902519Y526611D01*
X903962Y528491D01*
X904868Y530681D01*
X905178Y533030D01*
X904868Y535379D01*
X903962Y537569D01*
X902519Y539449D01*
X900639Y540891D01*
X898450Y541798D01*
X896100Y542108D01*
D02*
G37*
G36*
X312100D02*
X309751Y541798D01*
X307561Y540891D01*
X305681Y539449D01*
X304239Y537569D01*
X303332Y535379D01*
X303023Y533030D01*
X303332Y530681D01*
X304239Y528491D01*
X305681Y526611D01*
X307561Y525168D01*
X309751Y524262D01*
X312100Y523952D01*
X314450Y524262D01*
X316639Y525168D01*
X318519Y526611D01*
X319962Y528491D01*
X320868Y530681D01*
X321178Y533030D01*
X320868Y535379D01*
X319962Y537569D01*
X318519Y539449D01*
X316639Y540891D01*
X314450Y541798D01*
X312100Y542108D01*
D02*
G37*
G36*
X372019Y531200D02*
X364700D01*
Y523881D01*
X365180Y523945D01*
X367491Y524902D01*
X369476Y526424D01*
X370998Y528409D01*
X371956Y530720D01*
X372019Y531200D01*
D02*
G37*
G36*
X360700D02*
X353382D01*
X353445Y530720D01*
X354402Y528409D01*
X355925Y526424D01*
X357909Y524902D01*
X360220Y523945D01*
X360700Y523881D01*
Y531200D01*
D02*
G37*
G36*
X296019Y531030D02*
X288700D01*
Y523711D01*
X289180Y523774D01*
X291491Y524732D01*
X293476Y526255D01*
X294998Y528239D01*
X295956Y530550D01*
X296019Y531030D01*
D02*
G37*
G36*
X284700D02*
X277382D01*
X277445Y530550D01*
X278402Y528239D01*
X279925Y526255D01*
X281909Y524732D01*
X284220Y523774D01*
X284700Y523711D01*
Y531030D01*
D02*
G37*
G36*
X474400Y529059D02*
X473230Y528826D01*
X472237Y528163D01*
X471574Y527170D01*
X471342Y526000D01*
X471574Y524829D01*
X472237Y523837D01*
X473230Y523174D01*
X474400Y522941D01*
X475571Y523174D01*
X476563Y523837D01*
X477226Y524829D01*
X477459Y526000D01*
X477226Y527170D01*
X476563Y528163D01*
X475571Y528826D01*
X474400Y529059D01*
D02*
G37*
G36*
X460300Y528329D02*
X459130Y528096D01*
X458137Y527433D01*
X457474Y526441D01*
X457242Y525270D01*
X457474Y524099D01*
X458137Y523107D01*
X459130Y522444D01*
X460300Y522211D01*
X461471Y522444D01*
X461771Y522645D01*
X462810Y522966D01*
X463663Y522618D01*
X464030Y522373D01*
X465200Y522140D01*
X466371Y522373D01*
X467363Y523036D01*
X468026Y524028D01*
X468259Y525199D01*
X468026Y526369D01*
X467363Y527362D01*
X466371Y528025D01*
X465200Y528258D01*
X464030Y528025D01*
X463628Y527757D01*
X462463Y527433D01*
X461471Y528096D01*
X460300Y528329D01*
D02*
G37*
G36*
X506300Y529359D02*
X505130Y529126D01*
X504137Y528463D01*
X503474Y527471D01*
X503242Y526300D01*
X503474Y525129D01*
X504137Y524137D01*
X505130Y523474D01*
X505839Y523333D01*
X506300Y523241D01*
X507241Y522295D01*
X507274Y522129D01*
X507937Y521137D01*
X508930Y520474D01*
X510100Y520241D01*
X511271Y520474D01*
X512263Y521137D01*
X512926Y522129D01*
X513159Y523300D01*
X512926Y524470D01*
X512263Y525463D01*
X511271Y526126D01*
X510562Y526267D01*
X510562D01*
X510100Y526359D01*
X509171Y527293D01*
X509156Y527318D01*
X509126Y527471D01*
X508463Y528463D01*
X507471Y529126D01*
X506300Y529359D01*
D02*
G37*
G36*
X743600Y522659D02*
X742430Y522426D01*
X741437Y521763D01*
X740774Y520770D01*
X740542Y519600D01*
X740774Y518429D01*
X741437Y517437D01*
X742430Y516774D01*
X743600Y516541D01*
X744771Y516774D01*
X745763Y517437D01*
X746426Y518429D01*
X746659Y519600D01*
X746426Y520770D01*
X745763Y521763D01*
X744771Y522426D01*
X743600Y522659D01*
D02*
G37*
G36*
X751899Y531058D02*
X750728Y530825D01*
X749736Y530162D01*
X749073Y529169D01*
X748840Y527999D01*
X749073Y526828D01*
X749736Y525836D01*
X750659Y525219D01*
X750225Y524571D01*
X749992Y523400D01*
X750225Y522229D01*
X750401Y521966D01*
X750695Y520825D01*
X750344Y520074D01*
X750074Y519670D01*
X749842Y518500D01*
X750074Y517329D01*
X750737Y516337D01*
X751730Y515674D01*
X752900Y515441D01*
X754071Y515674D01*
X755063Y516337D01*
X755726Y517329D01*
X755959Y518500D01*
X755726Y519670D01*
X755550Y519934D01*
X755256Y521075D01*
X755608Y521826D01*
X755877Y522229D01*
X756110Y523400D01*
X755877Y524571D01*
X755214Y525563D01*
X754291Y526179D01*
X754725Y526828D01*
X754958Y527999D01*
X754725Y529169D01*
X754062Y530162D01*
X753069Y530825D01*
X751899Y531058D01*
D02*
G37*
G36*
X854300Y531870D02*
X836300D01*
Y513870D01*
X854300D01*
Y531870D01*
D02*
G37*
G36*
X524400Y517059D02*
X523230Y516826D01*
X522237Y516163D01*
X521574Y515171D01*
X521342Y514000D01*
X521574Y512829D01*
X522237Y511837D01*
X523230Y511174D01*
X524400Y510941D01*
X525571Y511174D01*
X526563Y511837D01*
X527226Y512829D01*
X527459Y514000D01*
X527226Y515171D01*
X526563Y516163D01*
X525571Y516826D01*
X524400Y517059D01*
D02*
G37*
G36*
X364700Y517119D02*
Y509800D01*
X372019D01*
X371956Y510280D01*
X370998Y512591D01*
X369476Y514575D01*
X367491Y516098D01*
X365180Y517055D01*
X364700Y517119D01*
D02*
G37*
G36*
X360700D02*
X360220Y517055D01*
X357909Y516098D01*
X355925Y514575D01*
X354402Y512591D01*
X353445Y510280D01*
X353382Y509800D01*
X360700D01*
Y517119D01*
D02*
G37*
G36*
X288700Y516949D02*
Y509630D01*
X296019D01*
X295956Y510110D01*
X294998Y512421D01*
X293476Y514405D01*
X291491Y515928D01*
X289180Y516885D01*
X288700Y516949D01*
D02*
G37*
G36*
X284700D02*
X284220Y516885D01*
X281909Y515928D01*
X279925Y514405D01*
X278402Y512421D01*
X277445Y510110D01*
X277382Y509630D01*
X284700D01*
Y516949D01*
D02*
G37*
G36*
X398625Y511549D02*
X397455Y511316D01*
X396462Y510653D01*
X395799Y509660D01*
X395566Y508490D01*
X395799Y507319D01*
X396462Y506327D01*
X397455Y505664D01*
X398625Y505431D01*
X399796Y505664D01*
X400788Y506327D01*
X401451Y507319D01*
X401684Y508490D01*
X401451Y509660D01*
X400788Y510653D01*
X399796Y511316D01*
X398625Y511549D01*
D02*
G37*
G36*
X420300Y506159D02*
X419130Y505926D01*
X418137Y505263D01*
X417163D01*
X416171Y505926D01*
X415000Y506159D01*
X413830Y505926D01*
X412837Y505263D01*
X412174Y504271D01*
X411941Y503100D01*
X412174Y501929D01*
X412837Y500937D01*
X413830Y500274D01*
X415000Y500041D01*
X416171Y500274D01*
X417163Y500937D01*
X418137D01*
X419130Y500274D01*
X420300Y500041D01*
X421471Y500274D01*
X422463Y500937D01*
X423126Y501929D01*
X423359Y503100D01*
X423126Y504271D01*
X422463Y505263D01*
X421471Y505926D01*
X420300Y506159D01*
D02*
G37*
G36*
X802000Y510859D02*
X800830Y510626D01*
X799837Y509963D01*
X799174Y508970D01*
X798941Y507800D01*
X799174Y506629D01*
X799837Y505637D01*
X800830Y504974D01*
X802000Y504741D01*
X803171Y504974D01*
X804163Y505637D01*
X804826Y506629D01*
X805059Y507800D01*
X804826Y508970D01*
X804163Y509963D01*
X803171Y510626D01*
X802000Y510859D01*
D02*
G37*
G36*
X440100Y503559D02*
X438930Y503326D01*
X438623Y503121D01*
X437783Y502715D01*
X436690Y503083D01*
X436476Y503226D01*
X435305Y503459D01*
X434135Y503226D01*
X433143Y502563D01*
X432480Y501571D01*
X432247Y500400D01*
X432480Y499229D01*
X433143Y498237D01*
X434135Y497574D01*
X435305Y497341D01*
X436476Y497574D01*
X436783Y497779D01*
X437623Y498185D01*
X438715Y497817D01*
X438930Y497674D01*
X440100Y497441D01*
X441271Y497674D01*
X441696Y497958D01*
X442745Y498176D01*
X443512Y497920D01*
X444030Y497574D01*
X445200Y497341D01*
X446371Y497574D01*
X446773Y497843D01*
X447700Y498132D01*
X448627Y497843D01*
X449030Y497574D01*
X450200Y497341D01*
X451371Y497574D01*
X451773Y497843D01*
X452700Y498132D01*
X453627Y497843D01*
X454030Y497574D01*
X455200Y497341D01*
X456371Y497574D01*
X457363Y498237D01*
X458026Y499229D01*
X458259Y500400D01*
X458026Y501571D01*
X457363Y502563D01*
X456371Y503226D01*
X455200Y503459D01*
X454030Y503226D01*
X453627Y502957D01*
X452700Y502668D01*
X451773Y502957D01*
X451371Y503226D01*
X450200Y503459D01*
X449030Y503226D01*
X448627Y502957D01*
X447700Y502668D01*
X446773Y502957D01*
X446371Y503226D01*
X445200Y503459D01*
X444030Y503226D01*
X443604Y502942D01*
X442556Y502724D01*
X441789Y502980D01*
X441271Y503326D01*
X440100Y503559D01*
D02*
G37*
G36*
X921500Y516708D02*
X919151Y516398D01*
X916961Y515491D01*
X915081Y514049D01*
X913639Y512169D01*
X912732Y509979D01*
X912423Y507630D01*
X912732Y505280D01*
X913639Y503091D01*
X915081Y501211D01*
X916961Y499768D01*
X919151Y498862D01*
X921500Y498552D01*
X923850Y498862D01*
X926039Y499768D01*
X927919Y501211D01*
X929362Y503091D01*
X930268Y505280D01*
X930578Y507630D01*
X930268Y509979D01*
X929362Y512169D01*
X927919Y514049D01*
X926039Y515491D01*
X923850Y516398D01*
X921500Y516708D01*
D02*
G37*
G36*
X896100D02*
X893751Y516398D01*
X891561Y515491D01*
X889681Y514049D01*
X888239Y512169D01*
X887332Y509979D01*
X887023Y507630D01*
X887332Y505280D01*
X888239Y503091D01*
X889681Y501211D01*
X891561Y499768D01*
X893751Y498862D01*
X896100Y498552D01*
X898450Y498862D01*
X900639Y499768D01*
X902519Y501211D01*
X903962Y503091D01*
X904868Y505280D01*
X905178Y507630D01*
X904868Y509979D01*
X903962Y512169D01*
X902519Y514049D01*
X900639Y515491D01*
X898450Y516398D01*
X896100Y516708D01*
D02*
G37*
G36*
X312100D02*
X309751Y516398D01*
X307561Y515491D01*
X305681Y514049D01*
X304239Y512169D01*
X303332Y509979D01*
X303023Y507630D01*
X303332Y505280D01*
X304239Y503091D01*
X305681Y501211D01*
X307561Y499768D01*
X309751Y498862D01*
X312100Y498552D01*
X314450Y498862D01*
X316639Y499768D01*
X318519Y501211D01*
X319962Y503091D01*
X320868Y505280D01*
X321178Y507630D01*
X320868Y509979D01*
X319962Y512169D01*
X318519Y514049D01*
X316639Y515491D01*
X314450Y516398D01*
X312100Y516708D01*
D02*
G37*
G36*
X372019Y505800D02*
X364700D01*
Y498481D01*
X365180Y498545D01*
X367491Y499502D01*
X369476Y501025D01*
X370998Y503009D01*
X371956Y505320D01*
X372019Y505800D01*
D02*
G37*
G36*
X360700D02*
X353382D01*
X353445Y505320D01*
X354402Y503009D01*
X355925Y501025D01*
X357909Y499502D01*
X360220Y498545D01*
X360700Y498481D01*
Y505800D01*
D02*
G37*
G36*
X296019Y505630D02*
X288700D01*
Y498311D01*
X289180Y498374D01*
X291491Y499332D01*
X293476Y500854D01*
X294998Y502839D01*
X295956Y505150D01*
X296019Y505630D01*
D02*
G37*
G36*
X284700D02*
X277382D01*
X277445Y505150D01*
X278402Y502839D01*
X279925Y500854D01*
X281909Y499332D01*
X284220Y498374D01*
X284700Y498311D01*
Y505630D01*
D02*
G37*
G36*
X478721Y503959D02*
X477551Y503726D01*
X476558Y503063D01*
X475895Y502071D01*
X475662Y500900D01*
X475895Y499729D01*
X476558Y498737D01*
X477551Y498074D01*
X478721Y497841D01*
X479892Y498074D01*
X480884Y498737D01*
X481547Y499729D01*
X481780Y500900D01*
X481547Y502071D01*
X480884Y503063D01*
X479892Y503726D01*
X478721Y503959D01*
D02*
G37*
G36*
X563700Y508259D02*
X562530Y508026D01*
X561537Y507363D01*
X560874Y506371D01*
X560641Y505200D01*
X560874Y504029D01*
X561537Y503037D01*
X560953Y501900D01*
X560774Y501633D01*
X560541Y500463D01*
X560774Y499292D01*
X561437Y498300D01*
X562430Y497637D01*
X562501Y497623D01*
X562514Y497610D01*
X562983Y496232D01*
X562674Y495770D01*
X562441Y494600D01*
X562674Y493429D01*
X563337Y492437D01*
X564330Y491774D01*
X565500Y491541D01*
X566671Y491774D01*
X567663Y492437D01*
X568326Y493429D01*
X568559Y494600D01*
X568326Y495770D01*
X567663Y496763D01*
X566671Y497426D01*
X566600Y497440D01*
X566587Y497453D01*
X566118Y498831D01*
X566426Y499292D01*
X566659Y500463D01*
X566426Y501633D01*
X565763Y502626D01*
X566348Y503763D01*
X566526Y504029D01*
X566759Y505200D01*
X566526Y506371D01*
X565863Y507363D01*
X564871Y508026D01*
X563700Y508259D01*
D02*
G37*
G36*
X322800Y500459D02*
X321630Y500226D01*
X320637Y499563D01*
X319974Y498571D01*
X319741Y497400D01*
X319974Y496229D01*
X320637Y495237D01*
X321630Y494574D01*
X322616Y494378D01*
X322441Y493500D01*
X322674Y492329D01*
X323337Y491337D01*
X324330Y490674D01*
X325500Y490441D01*
X326671Y490674D01*
X327663Y491337D01*
X328326Y492329D01*
X328559Y493500D01*
X328326Y494670D01*
X327663Y495663D01*
X326671Y496326D01*
X325684Y496522D01*
X325859Y497400D01*
X325626Y498571D01*
X324963Y499563D01*
X323971Y500226D01*
X322800Y500459D01*
D02*
G37*
G36*
X491347Y495559D02*
X490177Y495326D01*
X489184Y494663D01*
X488521Y493671D01*
X488289Y492500D01*
X488521Y491329D01*
X489184Y490337D01*
X490177Y489674D01*
X491347Y489441D01*
X492518Y489674D01*
X493510Y490337D01*
X494173Y491329D01*
X494406Y492500D01*
X494173Y493671D01*
X493510Y494663D01*
X492518Y495326D01*
X491347Y495559D01*
D02*
G37*
G36*
X288700Y491549D02*
Y484230D01*
X296019D01*
X295956Y484710D01*
X294998Y487021D01*
X293476Y489005D01*
X291491Y490528D01*
X289180Y491485D01*
X288700Y491549D01*
D02*
G37*
G36*
X284700D02*
X284220Y491485D01*
X281909Y490528D01*
X279925Y489005D01*
X278402Y487021D01*
X277445Y484710D01*
X277382Y484230D01*
X284700D01*
Y491549D01*
D02*
G37*
G36*
X812021Y481059D02*
X810851Y480826D01*
X809858Y480163D01*
X809782D01*
X808790Y480826D01*
X807619Y481059D01*
X806449Y480826D01*
X805456Y480163D01*
X804793Y479170D01*
X804560Y478000D01*
X804793Y476829D01*
X805314Y476050D01*
X804793Y475271D01*
X804560Y474100D01*
X804793Y472929D01*
X805456Y471937D01*
X806449Y471274D01*
X807619Y471041D01*
X808790Y471274D01*
X809782Y471937D01*
X809858D01*
X810851Y471274D01*
X812021Y471041D01*
X813192Y471274D01*
X814184Y471937D01*
X814847Y472929D01*
X815080Y474100D01*
X814847Y475271D01*
X814326Y476050D01*
X814847Y476829D01*
X815080Y478000D01*
X814847Y479170D01*
X814184Y480163D01*
X813192Y480826D01*
X812021Y481059D01*
D02*
G37*
G36*
X567400Y485159D02*
X566230Y484926D01*
X565237Y484263D01*
X564574Y483270D01*
X564342Y482100D01*
X564574Y480929D01*
X564612Y480872D01*
X565236Y479762D01*
X564573Y478769D01*
X564340Y477599D01*
X564573Y476428D01*
X565236Y475436D01*
X566228Y474773D01*
X567399Y474540D01*
X568570Y474773D01*
X569562Y475436D01*
X570225Y476428D01*
X570458Y477599D01*
X570225Y478769D01*
X570187Y478826D01*
X569563Y479937D01*
X570226Y480929D01*
X570459Y482100D01*
X570226Y483270D01*
X569563Y484263D01*
X568571Y484926D01*
X567400Y485159D01*
D02*
G37*
G36*
X362700Y491478D02*
X360351Y491168D01*
X358161Y490261D01*
X356281Y488819D01*
X354839Y486939D01*
X353932Y484749D01*
X353623Y482400D01*
X353932Y480051D01*
X354839Y477861D01*
X356281Y475981D01*
X358161Y474538D01*
X360351Y473632D01*
X362700Y473322D01*
X365050Y473632D01*
X367239Y474538D01*
X369119Y475981D01*
X370562Y477861D01*
X371469Y480051D01*
X371778Y482400D01*
X371469Y484749D01*
X370562Y486939D01*
X369119Y488819D01*
X367239Y490261D01*
X365050Y491168D01*
X362700Y491478D01*
D02*
G37*
G36*
X921500Y491308D02*
X919151Y490998D01*
X916961Y490091D01*
X915081Y488649D01*
X913639Y486769D01*
X912732Y484579D01*
X912423Y482230D01*
X912732Y479880D01*
X913639Y477691D01*
X915081Y475811D01*
X916961Y474369D01*
X919151Y473462D01*
X921500Y473152D01*
X923850Y473462D01*
X926039Y474369D01*
X927919Y475811D01*
X929362Y477691D01*
X930268Y479880D01*
X930578Y482230D01*
X930268Y484579D01*
X929362Y486769D01*
X927919Y488649D01*
X926039Y490091D01*
X923850Y490998D01*
X921500Y491308D01*
D02*
G37*
G36*
X896100D02*
X893751Y490998D01*
X891561Y490091D01*
X889681Y488649D01*
X888239Y486769D01*
X887332Y484579D01*
X887023Y482230D01*
X887332Y479880D01*
X888239Y477691D01*
X889681Y475811D01*
X891561Y474369D01*
X893751Y473462D01*
X896100Y473152D01*
X898450Y473462D01*
X900639Y474369D01*
X902519Y475811D01*
X903962Y477691D01*
X904868Y479880D01*
X905178Y482230D01*
X904868Y484579D01*
X903962Y486769D01*
X902519Y488649D01*
X900639Y490091D01*
X898450Y490998D01*
X896100Y491308D01*
D02*
G37*
G36*
X845300D02*
X842951Y490998D01*
X840761Y490091D01*
X838881Y488649D01*
X837439Y486769D01*
X836532Y484579D01*
X836223Y482230D01*
X836532Y479880D01*
X837439Y477691D01*
X838881Y475811D01*
X840761Y474369D01*
X842951Y473462D01*
X845300Y473152D01*
X847650Y473462D01*
X849839Y474369D01*
X851719Y475811D01*
X853162Y477691D01*
X854069Y479880D01*
X854378Y482230D01*
X854069Y484579D01*
X853162Y486769D01*
X851719Y488649D01*
X849839Y490091D01*
X847650Y490998D01*
X845300Y491308D01*
D02*
G37*
G36*
X312100D02*
X309751Y490998D01*
X307561Y490091D01*
X305681Y488649D01*
X304239Y486769D01*
X303332Y484579D01*
X303023Y482230D01*
X303332Y479880D01*
X304239Y477691D01*
X305681Y475811D01*
X307561Y474369D01*
X309751Y473462D01*
X312100Y473152D01*
X314450Y473462D01*
X316639Y474369D01*
X318519Y475811D01*
X319962Y477691D01*
X320868Y479880D01*
X321178Y482230D01*
X320868Y484579D01*
X319962Y486769D01*
X318519Y488649D01*
X316639Y490091D01*
X314450Y490998D01*
X312100Y491308D01*
D02*
G37*
G36*
X296019Y480230D02*
X288700D01*
Y472911D01*
X289180Y472975D01*
X291491Y473932D01*
X293476Y475454D01*
X294998Y477439D01*
X295956Y479750D01*
X296019Y480230D01*
D02*
G37*
G36*
X284700D02*
X277382D01*
X277445Y479750D01*
X278402Y477439D01*
X279925Y475454D01*
X281909Y473932D01*
X284220Y472975D01*
X284700Y472911D01*
Y480230D01*
D02*
G37*
G36*
X384700Y478559D02*
X383530Y478326D01*
X382537Y477663D01*
X381874Y476670D01*
X381642Y475500D01*
X381874Y474329D01*
X382537Y473337D01*
X383530Y472674D01*
X384700Y472441D01*
X385871Y472674D01*
X386863Y473337D01*
X387526Y474329D01*
X387759Y475500D01*
X387526Y476670D01*
X386863Y477663D01*
X385871Y478326D01*
X384700Y478559D01*
D02*
G37*
G36*
X396400Y474859D02*
X395230Y474626D01*
X394237Y473963D01*
X393574Y472971D01*
X393341Y471800D01*
X393574Y470629D01*
X394237Y469637D01*
X395230Y468974D01*
X396400Y468741D01*
X397571Y468974D01*
X398563Y469637D01*
X399226Y470629D01*
X399459Y471800D01*
X399226Y472971D01*
X398563Y473963D01*
X397571Y474626D01*
X396400Y474859D01*
D02*
G37*
G36*
X586000Y469259D02*
X584830Y469026D01*
X583837Y468363D01*
X583673Y468117D01*
X582681Y467405D01*
X581897Y467460D01*
X581400Y467559D01*
X580230Y467326D01*
X579237Y466663D01*
X578574Y465671D01*
X578348Y464530D01*
X577200Y464759D01*
X576030Y464526D01*
X575037Y463863D01*
X574374Y462870D01*
X574142Y461700D01*
X574374Y460529D01*
X575037Y459537D01*
X576030Y458874D01*
X577200Y458641D01*
X578371Y458874D01*
X579363Y459537D01*
X580026Y460529D01*
X580253Y461669D01*
X581400Y461441D01*
X582571Y461674D01*
X583563Y462337D01*
X583727Y462583D01*
X584720Y463295D01*
X585503Y463240D01*
X586000Y463141D01*
X587171Y463374D01*
X588163Y464037D01*
X588826Y465029D01*
X589059Y466200D01*
X588826Y467370D01*
X588163Y468363D01*
X587171Y469026D01*
X586000Y469259D01*
D02*
G37*
G36*
X351290Y467559D02*
X350120Y467326D01*
X349127Y466663D01*
X348464Y465671D01*
X348232Y464500D01*
X348464Y463329D01*
X349127Y462337D01*
X350120Y461674D01*
X351290Y461441D01*
X352461Y461674D01*
X353453Y462337D01*
X354116Y463329D01*
X354349Y464500D01*
X354116Y465671D01*
X353453Y466663D01*
X352461Y467326D01*
X351290Y467559D01*
D02*
G37*
G36*
X898100Y466149D02*
Y458830D01*
X905419D01*
X905356Y459310D01*
X904398Y461621D01*
X902876Y463605D01*
X900891Y465128D01*
X898580Y466085D01*
X898100Y466149D01*
D02*
G37*
G36*
X894100D02*
X893620Y466085D01*
X891309Y465128D01*
X889325Y463605D01*
X887802Y461621D01*
X886845Y459310D01*
X886782Y458830D01*
X894100D01*
Y466149D01*
D02*
G37*
G36*
X288700D02*
Y458830D01*
X296019D01*
X295956Y459310D01*
X294998Y461621D01*
X293476Y463605D01*
X291491Y465128D01*
X289180Y466085D01*
X288700Y466149D01*
D02*
G37*
G36*
X284700D02*
X284220Y466085D01*
X281909Y465128D01*
X279925Y463605D01*
X278402Y461621D01*
X277445Y459310D01*
X277382Y458830D01*
X284700D01*
Y466149D01*
D02*
G37*
G36*
X394400Y459659D02*
X393230Y459426D01*
X392237Y458763D01*
X391574Y457771D01*
X391342Y456600D01*
X391574Y455429D01*
X392237Y454437D01*
X393230Y453774D01*
X394400Y453541D01*
X395571Y453774D01*
X396563Y454437D01*
X397226Y455429D01*
X397459Y456600D01*
X397226Y457771D01*
X396563Y458763D01*
X395571Y459426D01*
X394400Y459659D01*
D02*
G37*
G36*
X610000Y450359D02*
X608830Y450126D01*
X608766Y450083D01*
X607663Y449448D01*
X606671Y450111D01*
X605500Y450344D01*
X604330Y450111D01*
X603337Y449448D01*
X602204Y450037D01*
X602071Y450126D01*
X600900Y450359D01*
X599730Y450126D01*
X599627Y450057D01*
X598563Y449363D01*
X597571Y450026D01*
X596400Y450259D01*
X595230Y450026D01*
X594237Y449363D01*
X593574Y448371D01*
X593341Y447200D01*
X593574Y446029D01*
X594237Y445037D01*
X595230Y444374D01*
X596400Y444141D01*
X597571Y444374D01*
X597674Y444443D01*
X598737Y445137D01*
X599730Y444474D01*
X600900Y444241D01*
X602071Y444474D01*
X603063Y445137D01*
X604197Y444548D01*
X604330Y444459D01*
X605500Y444226D01*
X606671Y444459D01*
X606735Y444502D01*
X607837Y445137D01*
X608830Y444474D01*
X610000Y444241D01*
X611171Y444474D01*
X612163Y445137D01*
X612826Y446129D01*
X613059Y447300D01*
X612826Y448470D01*
X612163Y449463D01*
X611171Y450126D01*
X610000Y450359D01*
D02*
G37*
G36*
X921500Y465908D02*
X919151Y465598D01*
X916961Y464691D01*
X915081Y463249D01*
X913639Y461369D01*
X912732Y459179D01*
X912423Y456830D01*
X912732Y454481D01*
X913639Y452291D01*
X915081Y450411D01*
X916961Y448969D01*
X919151Y448062D01*
X921500Y447752D01*
X923850Y448062D01*
X926039Y448969D01*
X927919Y450411D01*
X929362Y452291D01*
X930268Y454481D01*
X930578Y456830D01*
X930268Y459179D01*
X929362Y461369D01*
X927919Y463249D01*
X926039Y464691D01*
X923850Y465598D01*
X921500Y465908D01*
D02*
G37*
G36*
X845300D02*
X842951Y465598D01*
X840761Y464691D01*
X838881Y463249D01*
X837439Y461369D01*
X836532Y459179D01*
X836223Y456830D01*
X836532Y454481D01*
X837439Y452291D01*
X838881Y450411D01*
X840761Y448969D01*
X842951Y448062D01*
X845300Y447752D01*
X847650Y448062D01*
X849839Y448969D01*
X851719Y450411D01*
X853162Y452291D01*
X854069Y454481D01*
X854378Y456830D01*
X854069Y459179D01*
X853162Y461369D01*
X851719Y463249D01*
X849839Y464691D01*
X847650Y465598D01*
X845300Y465908D01*
D02*
G37*
G36*
X312100D02*
X309751Y465598D01*
X307561Y464691D01*
X305681Y463249D01*
X304239Y461369D01*
X303332Y459179D01*
X303023Y456830D01*
X303332Y454481D01*
X304239Y452291D01*
X305681Y450411D01*
X307561Y448969D01*
X309751Y448062D01*
X312100Y447752D01*
X314450Y448062D01*
X316639Y448969D01*
X318519Y450411D01*
X319962Y452291D01*
X320868Y454481D01*
X321178Y456830D01*
X320868Y459179D01*
X319962Y461369D01*
X318519Y463249D01*
X316639Y464691D01*
X314450Y465598D01*
X312100Y465908D01*
D02*
G37*
G36*
X905419Y454830D02*
X898100D01*
Y447511D01*
X898580Y447575D01*
X900891Y448532D01*
X902876Y450055D01*
X904398Y452039D01*
X905356Y454350D01*
X905419Y454830D01*
D02*
G37*
G36*
X296019Y454830D02*
X288700D01*
Y447511D01*
X289180Y447575D01*
X291491Y448532D01*
X293476Y450055D01*
X294998Y452039D01*
X295956Y454350D01*
X296019Y454830D01*
D02*
G37*
G36*
X284700D02*
X277382D01*
X277445Y454350D01*
X278402Y452039D01*
X279925Y450055D01*
X281909Y448532D01*
X284220Y447575D01*
X284700Y447511D01*
Y454830D01*
D02*
G37*
G36*
X894100Y454830D02*
X886782D01*
X886845Y454350D01*
X887802Y452039D01*
X889325Y450055D01*
X891309Y448532D01*
X893620Y447575D01*
X894100Y447511D01*
Y454830D01*
D02*
G37*
G36*
X479461Y458659D02*
X478290Y458426D01*
X477298Y457763D01*
X476635Y456771D01*
X476402Y455600D01*
X476635Y454429D01*
X476754Y454251D01*
X477412Y453163D01*
X476749Y452170D01*
X476516Y451000D01*
X476749Y449829D01*
X476833Y449703D01*
X477343Y448700D01*
X476833Y447696D01*
X476749Y447570D01*
X476516Y446400D01*
X476749Y445229D01*
X477412Y444237D01*
X478405Y443574D01*
X479575Y443341D01*
X480746Y443574D01*
X481738Y444237D01*
X482401Y445229D01*
X482634Y446400D01*
X482401Y447570D01*
X482317Y447696D01*
X481808Y448700D01*
X482317Y449703D01*
X482401Y449829D01*
X482634Y451000D01*
X482401Y452170D01*
X482281Y452349D01*
X481624Y453437D01*
X482287Y454429D01*
X482519Y455600D01*
X482287Y456771D01*
X481624Y457763D01*
X480631Y458426D01*
X479461Y458659D01*
D02*
G37*
G36*
X288700Y440749D02*
Y433430D01*
X296019D01*
X295956Y433910D01*
X294998Y436221D01*
X293476Y438205D01*
X291491Y439728D01*
X289180Y440685D01*
X288700Y440749D01*
D02*
G37*
G36*
X284700D02*
X284220Y440685D01*
X281909Y439728D01*
X279925Y438205D01*
X278402Y436221D01*
X277445Y433910D01*
X277382Y433430D01*
X284700D01*
Y440749D01*
D02*
G37*
G36*
X555600Y443959D02*
X554430Y443726D01*
X553437Y443063D01*
X552774Y442071D01*
X552542Y440900D01*
X552774Y439729D01*
X553437Y438737D01*
X554430Y438074D01*
X555600Y437841D01*
X556249Y437970D01*
X557013Y436827D01*
X556774Y436470D01*
X556541Y435300D01*
X556774Y434129D01*
X557437Y433137D01*
X558430Y432474D01*
X559600Y432241D01*
X560771Y432474D01*
X561763Y433137D01*
X562426Y434129D01*
X562659Y435300D01*
X562426Y436470D01*
X561763Y437463D01*
X560771Y438126D01*
X559600Y438359D01*
X558951Y438230D01*
X558188Y439373D01*
X558426Y439729D01*
X558659Y440900D01*
X558426Y442071D01*
X557763Y443063D01*
X556771Y443726D01*
X555600Y443959D01*
D02*
G37*
G36*
X488800Y431759D02*
X487630Y431526D01*
X487504Y431442D01*
X486500Y430932D01*
X485497Y431442D01*
X485371Y431526D01*
X484200Y431759D01*
X483030Y431526D01*
X482037Y430863D01*
X481374Y429870D01*
X481142Y428700D01*
X481374Y427529D01*
X482037Y426537D01*
X483030Y425874D01*
X484200Y425641D01*
X485371Y425874D01*
X485497Y425958D01*
X486500Y426468D01*
X487504Y425958D01*
X487630Y425874D01*
X488800Y425641D01*
X489971Y425874D01*
X490963Y426537D01*
X491626Y427529D01*
X491859Y428700D01*
X491626Y429870D01*
X490963Y430863D01*
X489971Y431526D01*
X488800Y431759D01*
D02*
G37*
G36*
X397100Y439659D02*
X395930Y439426D01*
X394937Y438763D01*
X394274Y437771D01*
X394041Y436600D01*
X394274Y435429D01*
X394574Y434981D01*
X394876Y434188D01*
X394612Y433127D01*
X394374Y432771D01*
X394142Y431600D01*
X394374Y430429D01*
X395037Y429437D01*
X396030Y428774D01*
X397200Y428541D01*
X398371Y428774D01*
X399363Y429437D01*
X400026Y430429D01*
X400259Y431600D01*
X400026Y432771D01*
X399726Y433219D01*
X399425Y434012D01*
X399688Y435073D01*
X399926Y435429D01*
X400159Y436600D01*
X399926Y437771D01*
X399263Y438763D01*
X398271Y439426D01*
X397100Y439659D01*
D02*
G37*
G36*
X371700Y440430D02*
X353700D01*
Y422430D01*
X371700D01*
Y440430D01*
D02*
G37*
G36*
X921500Y440508D02*
X919151Y440198D01*
X916961Y439291D01*
X915081Y437849D01*
X913639Y435969D01*
X912732Y433779D01*
X912423Y431430D01*
X912732Y429081D01*
X913639Y426891D01*
X915081Y425011D01*
X916961Y423568D01*
X919151Y422662D01*
X921500Y422352D01*
X923850Y422662D01*
X926039Y423568D01*
X927919Y425011D01*
X929362Y426891D01*
X930268Y429081D01*
X930578Y431430D01*
X930268Y433779D01*
X929362Y435969D01*
X927919Y437849D01*
X926039Y439291D01*
X923850Y440198D01*
X921500Y440508D01*
D02*
G37*
G36*
X896100D02*
X893751Y440198D01*
X891561Y439291D01*
X889681Y437849D01*
X888239Y435969D01*
X887332Y433779D01*
X887023Y431430D01*
X887332Y429081D01*
X888239Y426891D01*
X889681Y425011D01*
X891561Y423568D01*
X893751Y422662D01*
X896100Y422352D01*
X898450Y422662D01*
X900639Y423568D01*
X902519Y425011D01*
X903962Y426891D01*
X904868Y429081D01*
X905178Y431430D01*
X904868Y433779D01*
X903962Y435969D01*
X902519Y437849D01*
X900639Y439291D01*
X898450Y440198D01*
X896100Y440508D01*
D02*
G37*
G36*
X845300D02*
X842951Y440198D01*
X840761Y439291D01*
X838881Y437849D01*
X837439Y435969D01*
X836532Y433779D01*
X836223Y431430D01*
X836532Y429081D01*
X837439Y426891D01*
X838881Y425011D01*
X840761Y423568D01*
X842951Y422662D01*
X845300Y422352D01*
X847650Y422662D01*
X849839Y423568D01*
X851719Y425011D01*
X853162Y426891D01*
X854069Y429081D01*
X854378Y431430D01*
X854069Y433779D01*
X853162Y435969D01*
X851719Y437849D01*
X849839Y439291D01*
X847650Y440198D01*
X845300Y440508D01*
D02*
G37*
G36*
X312100D02*
X309751Y440198D01*
X307561Y439291D01*
X305681Y437849D01*
X304239Y435969D01*
X303332Y433779D01*
X303023Y431430D01*
X303332Y429081D01*
X304239Y426891D01*
X305681Y425011D01*
X307561Y423568D01*
X309751Y422662D01*
X312100Y422352D01*
X314450Y422662D01*
X316639Y423568D01*
X318519Y425011D01*
X319962Y426891D01*
X320868Y429081D01*
X321178Y431430D01*
X320868Y433779D01*
X319962Y435969D01*
X318519Y437849D01*
X316639Y439291D01*
X314450Y440198D01*
X312100Y440508D01*
D02*
G37*
G36*
X296019Y429430D02*
X288700D01*
Y422111D01*
X289180Y422174D01*
X291491Y423132D01*
X293476Y424655D01*
X294998Y426639D01*
X295956Y428950D01*
X296019Y429430D01*
D02*
G37*
G36*
X284700D02*
X277382D01*
X277445Y428950D01*
X278402Y426639D01*
X279925Y424655D01*
X281909Y423132D01*
X284220Y422174D01*
X284700Y422111D01*
Y429430D01*
D02*
G37*
G36*
X397888Y425359D02*
X396717Y425126D01*
X395725Y424463D01*
X395062Y423470D01*
X394829Y422300D01*
X395062Y421129D01*
X395725Y420137D01*
X396717Y419474D01*
X397888Y419241D01*
X399058Y419474D01*
X400051Y420137D01*
X400714Y421129D01*
X400947Y422300D01*
X400714Y423470D01*
X400051Y424463D01*
X399058Y425126D01*
X397888Y425359D01*
D02*
G37*
G36*
X662800Y421859D02*
X661630Y421626D01*
X660637Y420963D01*
X659974Y419971D01*
X659742Y418800D01*
X659974Y417629D01*
X660637Y416637D01*
X661630Y415974D01*
X662800Y415741D01*
X663971Y415974D01*
X664963Y416637D01*
X665626Y417629D01*
X665859Y418800D01*
X665626Y419971D01*
X664963Y420963D01*
X663971Y421626D01*
X662800Y421859D01*
D02*
G37*
G36*
X783200Y421059D02*
X782030Y420826D01*
X781037Y420163D01*
X780374Y419170D01*
X780142Y418000D01*
X780374Y416829D01*
X781037Y415837D01*
X782030Y415174D01*
X783200Y414941D01*
X784371Y415174D01*
X785363Y415837D01*
X786026Y416829D01*
X786259Y418000D01*
X786026Y419170D01*
X785363Y420163D01*
X784371Y420826D01*
X783200Y421059D01*
D02*
G37*
G36*
X598800Y417559D02*
X597630Y417326D01*
X596637Y416663D01*
X595974Y415671D01*
X595742Y414500D01*
X595974Y413329D01*
X596637Y412337D01*
X597630Y411674D01*
X598800Y411441D01*
X599971Y411674D01*
X600963Y412337D01*
X601626Y413329D01*
X601859Y414500D01*
X601626Y415671D01*
X600963Y416663D01*
X599971Y417326D01*
X598800Y417559D01*
D02*
G37*
G36*
X409493Y418559D02*
X408322Y418326D01*
X407330Y417663D01*
X406667Y416670D01*
X406434Y415500D01*
X406667Y414329D01*
X407330Y413337D01*
X408322Y412674D01*
X409493Y412441D01*
X410429Y412627D01*
X410680Y412668D01*
X412146Y412138D01*
X412347Y411837D01*
X413340Y411174D01*
X414510Y410941D01*
X415681Y411174D01*
X416673Y411837D01*
X417336Y412829D01*
X417569Y414000D01*
X417336Y415171D01*
X416673Y416163D01*
X415681Y416826D01*
X414510Y417059D01*
X413573Y416872D01*
X413322Y416832D01*
X411856Y417362D01*
X411656Y417663D01*
X410663Y418326D01*
X409493Y418559D01*
D02*
G37*
G36*
X401799Y414258D02*
X400629Y414025D01*
X399636Y413362D01*
X398974Y412370D01*
X398741Y411199D01*
X398974Y410029D01*
X399636Y409036D01*
X400629Y408373D01*
X401799Y408140D01*
X402970Y408373D01*
X403962Y409036D01*
X404625Y410029D01*
X404858Y411199D01*
X404625Y412370D01*
X403962Y413362D01*
X402970Y414025D01*
X401799Y414258D01*
D02*
G37*
G36*
X288700Y415349D02*
Y408030D01*
X296019D01*
X295956Y408510D01*
X294998Y410821D01*
X293476Y412805D01*
X291491Y414328D01*
X289180Y415285D01*
X288700Y415349D01*
D02*
G37*
G36*
X284700D02*
X284220Y415285D01*
X281909Y414328D01*
X279925Y412805D01*
X278402Y410821D01*
X277445Y408510D01*
X277382Y408030D01*
X284700D01*
Y415349D01*
D02*
G37*
G36*
X792500Y413958D02*
X791329Y413725D01*
X790337Y413062D01*
X789674Y412070D01*
X789441Y410900D01*
X789674Y409729D01*
X790337Y408737D01*
X791329Y408074D01*
X792500Y407841D01*
X793671Y408074D01*
X794663Y408737D01*
X795326Y409729D01*
X795559Y410900D01*
X795326Y412070D01*
X794663Y413062D01*
X793671Y413725D01*
X792500Y413958D01*
D02*
G37*
G36*
X452191Y431290D02*
X448100D01*
Y407030D01*
X452191D01*
Y431290D01*
D02*
G37*
G36*
X430199Y415458D02*
X429029Y415225D01*
X428036Y414562D01*
X427373Y413570D01*
X427141Y412399D01*
X426000Y412259D01*
X424830Y412026D01*
X423837Y411363D01*
X423174Y410370D01*
X422942Y409200D01*
X423174Y408029D01*
X423837Y407037D01*
X424830Y406374D01*
X426000Y406141D01*
X427171Y406374D01*
X428163Y407037D01*
X428826Y408029D01*
X429059Y409200D01*
X430199Y409340D01*
X431370Y409573D01*
X432362Y410236D01*
X433025Y411229D01*
X433258Y412399D01*
X433025Y413570D01*
X432362Y414562D01*
X431370Y415225D01*
X430199Y415458D01*
D02*
G37*
G36*
X362700Y415108D02*
X360351Y414798D01*
X358161Y413891D01*
X356281Y412449D01*
X354839Y410569D01*
X353932Y408379D01*
X353623Y406030D01*
X353932Y403680D01*
X354839Y401491D01*
X356281Y399611D01*
X358161Y398168D01*
X360351Y397262D01*
X362700Y396952D01*
X365050Y397262D01*
X367239Y398168D01*
X369119Y399611D01*
X370562Y401491D01*
X371469Y403680D01*
X371745Y405784D01*
X372422Y406094D01*
X373026Y406154D01*
X373237Y405837D01*
X374230Y405174D01*
X375400Y404941D01*
X376571Y405174D01*
X377563Y405837D01*
X378226Y406829D01*
X378459Y408000D01*
X378226Y409170D01*
X377563Y410163D01*
X376571Y410826D01*
X375400Y411059D01*
X374230Y410826D01*
X373237Y410163D01*
X372574Y409170D01*
X372555Y409075D01*
X371235Y408945D01*
X370562Y410569D01*
X369119Y412449D01*
X367239Y413891D01*
X365050Y414798D01*
X362700Y415108D01*
D02*
G37*
G36*
X410306Y409859D02*
X409135Y409626D01*
X408143Y408963D01*
X407480Y407971D01*
X407247Y406800D01*
X407480Y405629D01*
X408143Y404637D01*
X409135Y403974D01*
X410306Y403741D01*
X411476Y403974D01*
X412468Y404637D01*
X413131Y405629D01*
X413364Y406800D01*
X413131Y407971D01*
X412468Y408963D01*
X411476Y409626D01*
X410306Y409859D01*
D02*
G37*
G36*
X465400Y409259D02*
X464230Y409026D01*
X463237Y408363D01*
X462574Y407370D01*
X462341Y406200D01*
X462574Y405029D01*
X463237Y404037D01*
X464230Y403374D01*
X465400Y403141D01*
X466571Y403374D01*
X467563Y404037D01*
X468226Y405029D01*
X468459Y406200D01*
X468226Y407370D01*
X467563Y408363D01*
X466571Y409026D01*
X465400Y409259D01*
D02*
G37*
G36*
X547710Y407659D02*
X546539Y407426D01*
X545547Y406763D01*
X544884Y405770D01*
X544651Y404600D01*
X544884Y403429D01*
X545547Y402437D01*
X546539Y401774D01*
X547710Y401541D01*
X548880Y401774D01*
X549873Y402437D01*
X550536Y403429D01*
X550768Y404600D01*
X550536Y405770D01*
X549873Y406763D01*
X548880Y407426D01*
X547710Y407659D01*
D02*
G37*
G36*
X430400Y405708D02*
X429230Y405475D01*
X428237Y404812D01*
X427574Y403820D01*
X427341Y402649D01*
X427574Y401479D01*
X428237Y400486D01*
X429230Y399823D01*
X430400Y399590D01*
X431571Y399823D01*
X432563Y400486D01*
X433226Y401479D01*
X433459Y402649D01*
X433226Y403820D01*
X432563Y404812D01*
X431571Y405475D01*
X430400Y405708D01*
D02*
G37*
G36*
X921500Y415108D02*
X919151Y414798D01*
X916961Y413891D01*
X915081Y412449D01*
X913639Y410569D01*
X912732Y408379D01*
X912423Y406030D01*
X912732Y403680D01*
X913639Y401491D01*
X915081Y399611D01*
X916961Y398168D01*
X919151Y397262D01*
X921500Y396952D01*
X923850Y397262D01*
X926039Y398168D01*
X927919Y399611D01*
X929362Y401491D01*
X930268Y403680D01*
X930578Y406030D01*
X930268Y408379D01*
X929362Y410569D01*
X927919Y412449D01*
X926039Y413891D01*
X923850Y414798D01*
X921500Y415108D01*
D02*
G37*
G36*
X896100D02*
X893751Y414798D01*
X891561Y413891D01*
X889681Y412449D01*
X888239Y410569D01*
X887332Y408379D01*
X887023Y406030D01*
X887332Y403680D01*
X888239Y401491D01*
X889681Y399611D01*
X891561Y398168D01*
X893751Y397262D01*
X896100Y396952D01*
X898450Y397262D01*
X900639Y398168D01*
X902519Y399611D01*
X903962Y401491D01*
X904868Y403680D01*
X905178Y406030D01*
X904868Y408379D01*
X903962Y410569D01*
X902519Y412449D01*
X900639Y413891D01*
X898450Y414798D01*
X896100Y415108D01*
D02*
G37*
G36*
X845300D02*
X842951Y414798D01*
X840761Y413891D01*
X838881Y412449D01*
X837439Y410569D01*
X836532Y408379D01*
X836223Y406030D01*
X836532Y403680D01*
X837439Y401491D01*
X838881Y399611D01*
X840761Y398168D01*
X842951Y397262D01*
X845300Y396952D01*
X847650Y397262D01*
X849839Y398168D01*
X851719Y399611D01*
X853162Y401491D01*
X854069Y403680D01*
X854378Y406030D01*
X854069Y408379D01*
X853162Y410569D01*
X851719Y412449D01*
X849839Y413891D01*
X847650Y414798D01*
X845300Y415108D01*
D02*
G37*
G36*
X312100D02*
X309751Y414798D01*
X307561Y413891D01*
X305681Y412449D01*
X304239Y410569D01*
X303332Y408379D01*
X303023Y406030D01*
X303332Y403680D01*
X304239Y401491D01*
X305681Y399611D01*
X307561Y398168D01*
X309751Y397262D01*
X312100Y396952D01*
X314450Y397262D01*
X316639Y398168D01*
X318519Y399611D01*
X319962Y401491D01*
X320868Y403680D01*
X321178Y406030D01*
X320868Y408379D01*
X319962Y410569D01*
X318519Y412449D01*
X316639Y413891D01*
X314450Y414798D01*
X312100Y415108D01*
D02*
G37*
G36*
X296019Y404030D02*
X288700D01*
Y396711D01*
X289180Y396774D01*
X291491Y397732D01*
X293476Y399254D01*
X294998Y401239D01*
X295956Y403550D01*
X296019Y404030D01*
D02*
G37*
G36*
X284700D02*
X277382D01*
X277445Y403550D01*
X278402Y401239D01*
X279925Y399254D01*
X281909Y397732D01*
X284220Y396774D01*
X284700Y396711D01*
Y404030D01*
D02*
G37*
G36*
X539300Y399359D02*
X538130Y399126D01*
X537137Y398463D01*
X536474Y397471D01*
X536241Y396300D01*
X536474Y395129D01*
X537137Y394137D01*
X538130Y393474D01*
X539300Y393241D01*
X540471Y393474D01*
X541463Y394137D01*
X542126Y395129D01*
X542359Y396300D01*
X542126Y397471D01*
X541463Y398463D01*
X540471Y399126D01*
X539300Y399359D01*
D02*
G37*
G36*
X551704Y398159D02*
X550534Y397926D01*
X549541Y397263D01*
X548878Y396270D01*
X548646Y395100D01*
X548878Y393929D01*
X549541Y392937D01*
X550534Y392274D01*
X551704Y392041D01*
X552875Y392274D01*
X553867Y392937D01*
X554530Y393929D01*
X554763Y395100D01*
X554530Y396270D01*
X553867Y397263D01*
X552875Y397926D01*
X551704Y398159D01*
D02*
G37*
G36*
X415700Y396859D02*
X414530Y396626D01*
X413537Y395963D01*
X412874Y394971D01*
X412641Y393800D01*
X412874Y392629D01*
X413537Y391637D01*
X414530Y390974D01*
X415700Y390741D01*
X416871Y390974D01*
X417863Y391637D01*
X418526Y392629D01*
X418759Y393800D01*
X418526Y394971D01*
X417863Y395963D01*
X416871Y396626D01*
X415700Y396859D01*
D02*
G37*
G36*
X386825Y395508D02*
X385655Y395275D01*
X384662Y394612D01*
X383999Y393619D01*
X383767Y392449D01*
X383999Y391278D01*
X384662Y390286D01*
X385655Y389623D01*
X386825Y389390D01*
X387996Y389623D01*
X388988Y390286D01*
X389651Y391278D01*
X389884Y392449D01*
X389651Y393619D01*
X388988Y394612D01*
X387996Y395275D01*
X386825Y395508D01*
D02*
G37*
G36*
X425000Y390459D02*
X423830Y390226D01*
X422837Y389563D01*
X422174Y388571D01*
X421941Y387400D01*
X422174Y386229D01*
X422837Y385237D01*
X423830Y384574D01*
X425000Y384341D01*
X426171Y384574D01*
X427163Y385237D01*
X427826Y386229D01*
X428059Y387400D01*
X427826Y388571D01*
X427163Y389563D01*
X426171Y390226D01*
X425000Y390459D01*
D02*
G37*
G36*
X288700Y389949D02*
Y382630D01*
X296019D01*
X295956Y383110D01*
X294998Y385421D01*
X293476Y387405D01*
X291491Y388928D01*
X289180Y389885D01*
X288700Y389949D01*
D02*
G37*
G36*
X284700D02*
X284220Y389885D01*
X281909Y388928D01*
X279925Y387405D01*
X278402Y385421D01*
X277445Y383110D01*
X277382Y382630D01*
X284700D01*
Y389949D01*
D02*
G37*
G36*
X539700Y388742D02*
X538530Y388509D01*
X537537Y387846D01*
X536874Y386854D01*
X536642Y385683D01*
X536874Y384513D01*
X537537Y383520D01*
X538530Y382857D01*
X539700Y382625D01*
X540871Y382857D01*
X541863Y383520D01*
X542526Y384513D01*
X542759Y385683D01*
X542526Y386854D01*
X541863Y387846D01*
X540871Y388509D01*
X539700Y388742D01*
D02*
G37*
G36*
X564299Y381858D02*
X563129Y381625D01*
X562136Y380962D01*
X561473Y379970D01*
X561240Y378799D01*
X561473Y377629D01*
X562136Y376636D01*
X563129Y375973D01*
X564299Y375740D01*
X565470Y375973D01*
X566462Y376636D01*
X567125Y377629D01*
X567358Y378799D01*
X567125Y379970D01*
X566462Y380962D01*
X565470Y381625D01*
X564299Y381858D01*
D02*
G37*
G36*
X537798Y378561D02*
X536628Y378328D01*
X535635Y377665D01*
X534972Y376673D01*
X534740Y375502D01*
X534972Y374332D01*
X535635Y373340D01*
X536628Y372677D01*
X537798Y372444D01*
X538969Y372677D01*
X539961Y373340D01*
X540624Y374332D01*
X540857Y375502D01*
X540624Y376673D01*
X539961Y377665D01*
X538969Y378328D01*
X537798Y378561D01*
D02*
G37*
G36*
X921500Y389708D02*
X919151Y389398D01*
X916961Y388491D01*
X915081Y387049D01*
X913639Y385169D01*
X912732Y382979D01*
X912423Y380630D01*
X912732Y378280D01*
X913639Y376091D01*
X915081Y374211D01*
X916961Y372769D01*
X919151Y371862D01*
X921500Y371552D01*
X923850Y371862D01*
X926039Y372769D01*
X927919Y374211D01*
X929362Y376091D01*
X930268Y378280D01*
X930578Y380630D01*
X930268Y382979D01*
X929362Y385169D01*
X927919Y387049D01*
X926039Y388491D01*
X923850Y389398D01*
X921500Y389708D01*
D02*
G37*
G36*
X896100D02*
X893751Y389398D01*
X891561Y388491D01*
X889681Y387049D01*
X888239Y385169D01*
X887332Y382979D01*
X887023Y380630D01*
X887332Y378280D01*
X888239Y376091D01*
X889681Y374211D01*
X891561Y372769D01*
X893751Y371862D01*
X896100Y371552D01*
X898450Y371862D01*
X900639Y372769D01*
X902519Y374211D01*
X903962Y376091D01*
X904868Y378280D01*
X905178Y380630D01*
X904868Y382979D01*
X903962Y385169D01*
X902519Y387049D01*
X900639Y388491D01*
X898450Y389398D01*
X896100Y389708D01*
D02*
G37*
G36*
X845300D02*
X842951Y389398D01*
X840761Y388491D01*
X838881Y387049D01*
X837439Y385169D01*
X836532Y382979D01*
X836223Y380630D01*
X836532Y378280D01*
X837439Y376091D01*
X838881Y374211D01*
X840761Y372769D01*
X842951Y371862D01*
X845300Y371552D01*
X847650Y371862D01*
X849839Y372769D01*
X851719Y374211D01*
X853162Y376091D01*
X854069Y378280D01*
X854378Y380630D01*
X854069Y382979D01*
X853162Y385169D01*
X851719Y387049D01*
X849839Y388491D01*
X847650Y389398D01*
X845300Y389708D01*
D02*
G37*
G36*
X362700D02*
X360351Y389398D01*
X358161Y388491D01*
X356281Y387049D01*
X354839Y385169D01*
X353932Y382979D01*
X353623Y380630D01*
X353932Y378280D01*
X354839Y376091D01*
X356281Y374211D01*
X358161Y372769D01*
X360351Y371862D01*
X362700Y371552D01*
X365050Y371862D01*
X367239Y372769D01*
X369119Y374211D01*
X370562Y376091D01*
X371469Y378280D01*
X371778Y380630D01*
X371469Y382979D01*
X370562Y385169D01*
X369119Y387049D01*
X367239Y388491D01*
X365050Y389398D01*
X362700Y389708D01*
D02*
G37*
G36*
X312100D02*
X309751Y389398D01*
X307561Y388491D01*
X305681Y387049D01*
X304239Y385169D01*
X303332Y382979D01*
X303023Y380630D01*
X303332Y378280D01*
X304239Y376091D01*
X305681Y374211D01*
X307561Y372769D01*
X309751Y371862D01*
X312100Y371552D01*
X314450Y371862D01*
X316639Y372769D01*
X318519Y374211D01*
X319962Y376091D01*
X320868Y378280D01*
X321178Y380630D01*
X320868Y382979D01*
X319962Y385169D01*
X318519Y387049D01*
X316639Y388491D01*
X314450Y389398D01*
X312100Y389708D01*
D02*
G37*
G36*
X296019Y378630D02*
X288700D01*
Y371311D01*
X289180Y371375D01*
X291491Y372332D01*
X293476Y373854D01*
X294998Y375839D01*
X295956Y378150D01*
X296019Y378630D01*
D02*
G37*
G36*
X284700D02*
X277382D01*
X277445Y378150D01*
X278402Y375839D01*
X279925Y373854D01*
X281909Y372332D01*
X284220Y371375D01*
X284700Y371311D01*
Y378630D01*
D02*
G37*
G36*
X545700Y363359D02*
X544530Y363126D01*
X543537Y362463D01*
X542874Y361470D01*
X542641Y360300D01*
X542874Y359129D01*
X543537Y358137D01*
X544530Y357474D01*
X545700Y357241D01*
X546871Y357474D01*
X547863Y358137D01*
X548526Y359129D01*
X548759Y360300D01*
X548526Y361470D01*
X547863Y362463D01*
X546871Y363126D01*
X545700Y363359D01*
D02*
G37*
G36*
X314100Y364549D02*
Y357230D01*
X321419D01*
X321356Y357710D01*
X320398Y360021D01*
X318876Y362005D01*
X316891Y363528D01*
X314580Y364485D01*
X314100Y364549D01*
D02*
G37*
G36*
X288700D02*
Y357230D01*
X296019D01*
X295956Y357710D01*
X294998Y360021D01*
X293476Y362005D01*
X291491Y363528D01*
X289180Y364485D01*
X288700Y364549D01*
D02*
G37*
G36*
X310100D02*
X309620Y364485D01*
X307309Y363528D01*
X305325Y362005D01*
X303802Y360021D01*
X302845Y357710D01*
X302782Y357230D01*
X310100D01*
Y364549D01*
D02*
G37*
G36*
X284700D02*
X284220Y364485D01*
X281909Y363528D01*
X279925Y362005D01*
X278402Y360021D01*
X277445Y357710D01*
X277382Y357230D01*
X284700D01*
Y364549D01*
D02*
G37*
G36*
X589900Y359359D02*
X588730Y359126D01*
X587737Y358463D01*
X587074Y357471D01*
X586842Y356300D01*
X587074Y355129D01*
X587737Y354137D01*
X588730Y353474D01*
X589900Y353241D01*
X591071Y353474D01*
X592063Y354137D01*
X592726Y355129D01*
X592959Y356300D01*
X592726Y357471D01*
X592063Y358463D01*
X591071Y359126D01*
X589900Y359359D01*
D02*
G37*
G36*
X921500Y364308D02*
X919151Y363998D01*
X916961Y363091D01*
X915081Y361649D01*
X913639Y359769D01*
X912732Y357579D01*
X912423Y355230D01*
X912732Y352881D01*
X913639Y350691D01*
X915081Y348811D01*
X916961Y347369D01*
X919151Y346462D01*
X921500Y346152D01*
X923850Y346462D01*
X926039Y347369D01*
X927919Y348811D01*
X929362Y350691D01*
X930268Y352881D01*
X930578Y355230D01*
X930268Y357579D01*
X929362Y359769D01*
X927919Y361649D01*
X926039Y363091D01*
X923850Y363998D01*
X921500Y364308D01*
D02*
G37*
G36*
X896100D02*
X893751Y363998D01*
X891561Y363091D01*
X889681Y361649D01*
X888239Y359769D01*
X887332Y357579D01*
X887023Y355230D01*
X887332Y352881D01*
X888239Y350691D01*
X889681Y348811D01*
X891561Y347369D01*
X893751Y346462D01*
X896100Y346152D01*
X898450Y346462D01*
X900639Y347369D01*
X902519Y348811D01*
X903962Y350691D01*
X904868Y352881D01*
X905178Y355230D01*
X904868Y357579D01*
X903962Y359769D01*
X902519Y361649D01*
X900639Y363091D01*
X898450Y363998D01*
X896100Y364308D01*
D02*
G37*
G36*
X845300D02*
X842951Y363998D01*
X840761Y363091D01*
X838881Y361649D01*
X837439Y359769D01*
X836532Y357579D01*
X836223Y355230D01*
X836532Y352881D01*
X837439Y350691D01*
X838881Y348811D01*
X840761Y347369D01*
X842951Y346462D01*
X845300Y346152D01*
X847650Y346462D01*
X849839Y347369D01*
X851719Y348811D01*
X853162Y350691D01*
X854069Y352881D01*
X854378Y355230D01*
X854069Y357579D01*
X853162Y359769D01*
X851719Y361649D01*
X849839Y363091D01*
X847650Y363998D01*
X845300Y364308D01*
D02*
G37*
G36*
X362700D02*
X360351Y363998D01*
X358161Y363091D01*
X356281Y361649D01*
X354839Y359769D01*
X353932Y357579D01*
X353623Y355230D01*
X353932Y352881D01*
X354839Y350691D01*
X356281Y348811D01*
X358161Y347369D01*
X360351Y346462D01*
X362700Y346152D01*
X365050Y346462D01*
X367239Y347369D01*
X369119Y348811D01*
X370562Y350691D01*
X371469Y352881D01*
X371778Y355230D01*
X371469Y357579D01*
X370562Y359769D01*
X369119Y361649D01*
X367239Y363091D01*
X365050Y363998D01*
X362700Y364308D01*
D02*
G37*
G36*
X321419Y353230D02*
X314100D01*
Y345911D01*
X314580Y345975D01*
X316891Y346932D01*
X318876Y348455D01*
X320398Y350439D01*
X321356Y352750D01*
X321419Y353230D01*
D02*
G37*
G36*
X296019D02*
X288700D01*
Y345911D01*
X289180Y345975D01*
X291491Y346932D01*
X293476Y348455D01*
X294998Y350439D01*
X295956Y352750D01*
X296019Y353230D01*
D02*
G37*
G36*
X284700D02*
X277382D01*
X277445Y352750D01*
X278402Y350439D01*
X279925Y348455D01*
X281909Y346932D01*
X284220Y345975D01*
X284700Y345911D01*
Y353230D01*
D02*
G37*
G36*
X310100D02*
X302782D01*
X302845Y352750D01*
X303802Y350439D01*
X305325Y348455D01*
X307309Y346932D01*
X309620Y345975D01*
X310100Y345911D01*
Y353230D01*
D02*
G37*
G36*
X673599Y346458D02*
X672428Y346225D01*
X671436Y345562D01*
X670773Y344570D01*
X670604Y343719D01*
X669650Y343909D01*
X668480Y343676D01*
X667487Y343013D01*
X667068Y342385D01*
X666069Y341525D01*
X664899Y341758D01*
X663728Y341525D01*
X662736Y340862D01*
X662073Y339870D01*
X661840Y338699D01*
X662073Y337529D01*
X662736Y336536D01*
X663728Y335873D01*
X664899Y335640D01*
X666069Y335873D01*
X667062Y336536D01*
X667725Y337529D01*
X667764Y337728D01*
X668480Y338024D01*
X669650Y337791D01*
X670821Y338024D01*
X671813Y338687D01*
X672476Y339679D01*
X672645Y340530D01*
X673599Y340340D01*
X674769Y340573D01*
X675762Y341236D01*
X676425Y342229D01*
X676658Y343399D01*
X676425Y344570D01*
X675762Y345562D01*
X674769Y346225D01*
X673599Y346458D01*
D02*
G37*
G36*
X586100Y343359D02*
X584930Y343126D01*
X583937Y342463D01*
X583274Y341470D01*
X583041Y340300D01*
X583274Y339129D01*
X583937Y338137D01*
X584930Y337474D01*
X586100Y337241D01*
X587271Y337474D01*
X588263Y338137D01*
X588926Y339129D01*
X589159Y340300D01*
X588926Y341470D01*
X588263Y342463D01*
X587271Y343126D01*
X586100Y343359D01*
D02*
G37*
G36*
X568600Y343159D02*
X567430Y342926D01*
X566437Y342263D01*
X565774Y341270D01*
X565541Y340100D01*
X565774Y338929D01*
X566437Y337937D01*
X567430Y337274D01*
X568600Y337041D01*
X569771Y337274D01*
X570763Y337937D01*
X571426Y338929D01*
X571659Y340100D01*
X571426Y341270D01*
X570763Y342263D01*
X569771Y342926D01*
X568600Y343159D01*
D02*
G37*
G36*
X555200Y342959D02*
X554030Y342726D01*
X553037Y342063D01*
X552374Y341071D01*
X552141Y339900D01*
X552374Y338729D01*
X553037Y337737D01*
X554030Y337074D01*
X555200Y336841D01*
X556371Y337074D01*
X557363Y337737D01*
X558026Y338729D01*
X558259Y339900D01*
X558026Y341071D01*
X557363Y342063D01*
X556371Y342726D01*
X555200Y342959D01*
D02*
G37*
G36*
X314100Y339149D02*
Y331830D01*
X321419D01*
X321356Y332310D01*
X320398Y334621D01*
X318876Y336605D01*
X316891Y338128D01*
X314580Y339085D01*
X314100Y339149D01*
D02*
G37*
G36*
X288700D02*
Y331830D01*
X296019D01*
X295956Y332310D01*
X294998Y334621D01*
X293476Y336605D01*
X291491Y338128D01*
X289180Y339085D01*
X288700Y339149D01*
D02*
G37*
G36*
X310100D02*
X309620Y339085D01*
X307309Y338128D01*
X305325Y336605D01*
X303802Y334621D01*
X302845Y332310D01*
X302782Y331830D01*
X310100D01*
Y339149D01*
D02*
G37*
G36*
X284700D02*
X284220Y339085D01*
X281909Y338128D01*
X279925Y336605D01*
X278402Y334621D01*
X277445Y332310D01*
X277382Y331830D01*
X284700D01*
Y339149D01*
D02*
G37*
G36*
X568700Y330059D02*
X567530Y329826D01*
X566537Y329163D01*
X565874Y328171D01*
X565642Y327000D01*
X565874Y325829D01*
X566537Y324837D01*
X567530Y324174D01*
X568700Y323941D01*
X569871Y324174D01*
X570863Y324837D01*
X571526Y325829D01*
X571759Y327000D01*
X571526Y328171D01*
X570863Y329163D01*
X569871Y329826D01*
X568700Y330059D01*
D02*
G37*
G36*
X586100Y327309D02*
X584930Y327076D01*
X583937Y326413D01*
X583274Y325420D01*
X583041Y324250D01*
X583274Y323079D01*
X583937Y322087D01*
X584930Y321424D01*
X586100Y321191D01*
X587271Y321424D01*
X588263Y322087D01*
X588926Y323079D01*
X589159Y324250D01*
X588926Y325420D01*
X588263Y326413D01*
X587271Y327076D01*
X586100Y327309D01*
D02*
G37*
G36*
X668500Y327159D02*
X667330Y326926D01*
X666337Y326263D01*
X665674Y325271D01*
X665442Y324100D01*
X665674Y322929D01*
X666337Y321937D01*
X667330Y321274D01*
X668500Y321041D01*
X669671Y321274D01*
X670663Y321937D01*
X671326Y322929D01*
X671559Y324100D01*
X671326Y325271D01*
X670663Y326263D01*
X669671Y326926D01*
X668500Y327159D01*
D02*
G37*
G36*
X703230Y327109D02*
X702059Y326876D01*
X701067Y326213D01*
X700404Y325220D01*
X700171Y324050D01*
X700404Y322879D01*
X701067Y321887D01*
X702059Y321224D01*
X703230Y320991D01*
X704400Y321224D01*
X705393Y321887D01*
X706056Y322879D01*
X706289Y324050D01*
X706056Y325220D01*
X705393Y326213D01*
X704400Y326876D01*
X703230Y327109D01*
D02*
G37*
G36*
X921500Y338908D02*
X919151Y338598D01*
X916961Y337691D01*
X915081Y336249D01*
X913639Y334369D01*
X912732Y332179D01*
X912423Y329830D01*
X912732Y327481D01*
X913639Y325291D01*
X915081Y323411D01*
X916961Y321968D01*
X919151Y321062D01*
X921500Y320752D01*
X923850Y321062D01*
X926039Y321968D01*
X927919Y323411D01*
X929362Y325291D01*
X930268Y327481D01*
X930578Y329830D01*
X930268Y332179D01*
X929362Y334369D01*
X927919Y336249D01*
X926039Y337691D01*
X923850Y338598D01*
X921500Y338908D01*
D02*
G37*
G36*
X896100D02*
X893751Y338598D01*
X891561Y337691D01*
X889681Y336249D01*
X888239Y334369D01*
X887332Y332179D01*
X887023Y329830D01*
X887332Y327481D01*
X888239Y325291D01*
X889681Y323411D01*
X891561Y321968D01*
X893751Y321062D01*
X896100Y320752D01*
X898450Y321062D01*
X900639Y321968D01*
X902519Y323411D01*
X903962Y325291D01*
X904868Y327481D01*
X905178Y329830D01*
X904868Y332179D01*
X903962Y334369D01*
X902519Y336249D01*
X900639Y337691D01*
X898450Y338598D01*
X896100Y338908D01*
D02*
G37*
G36*
X845300D02*
X842951Y338598D01*
X840761Y337691D01*
X838881Y336249D01*
X837439Y334369D01*
X836532Y332179D01*
X836223Y329830D01*
X836532Y327481D01*
X837439Y325291D01*
X838881Y323411D01*
X840761Y321968D01*
X842951Y321062D01*
X845300Y320752D01*
X847650Y321062D01*
X849839Y321968D01*
X851719Y323411D01*
X853162Y325291D01*
X854069Y327481D01*
X854378Y329830D01*
X854069Y332179D01*
X853162Y334369D01*
X851719Y336249D01*
X849839Y337691D01*
X847650Y338598D01*
X845300Y338908D01*
D02*
G37*
G36*
X362700D02*
X360351Y338598D01*
X358161Y337691D01*
X356281Y336249D01*
X354839Y334369D01*
X353932Y332179D01*
X353623Y329830D01*
X353932Y327481D01*
X354839Y325291D01*
X356281Y323411D01*
X358161Y321968D01*
X360351Y321062D01*
X362700Y320752D01*
X365050Y321062D01*
X367239Y321968D01*
X369119Y323411D01*
X370562Y325291D01*
X371469Y327481D01*
X371778Y329830D01*
X371469Y332179D01*
X370562Y334369D01*
X369119Y336249D01*
X367239Y337691D01*
X365050Y338598D01*
X362700Y338908D01*
D02*
G37*
G36*
X321419Y327830D02*
X314100D01*
Y320511D01*
X314580Y320574D01*
X316891Y321532D01*
X318876Y323055D01*
X320398Y325039D01*
X321356Y327350D01*
X321419Y327830D01*
D02*
G37*
G36*
X296019D02*
X288700D01*
Y320511D01*
X289180Y320574D01*
X291491Y321532D01*
X293476Y323055D01*
X294998Y325039D01*
X295956Y327350D01*
X296019Y327830D01*
D02*
G37*
G36*
X284700D02*
X277382D01*
X277445Y327350D01*
X278402Y325039D01*
X279925Y323055D01*
X281909Y321532D01*
X284220Y320574D01*
X284700Y320511D01*
Y327830D01*
D02*
G37*
G36*
X310100D02*
X302782D01*
X302845Y327350D01*
X303802Y325039D01*
X305325Y323055D01*
X307309Y321532D01*
X309620Y320574D01*
X310100Y320511D01*
Y327830D01*
D02*
G37*
G36*
X514100Y318959D02*
X512930Y318726D01*
X511937Y318063D01*
X511274Y317071D01*
X511273Y317065D01*
X510800Y317159D01*
X509630Y316926D01*
X508637Y316263D01*
X507974Y315271D01*
X507742Y314100D01*
X507974Y312929D01*
X508637Y311937D01*
X509630Y311274D01*
X510800Y311041D01*
X511350Y311151D01*
X511374Y311029D01*
X512037Y310037D01*
X513030Y309374D01*
X514200Y309141D01*
X515371Y309374D01*
X516363Y310037D01*
X517026Y311029D01*
X517259Y312200D01*
X517026Y313370D01*
X516522Y314125D01*
X516926Y314729D01*
X517159Y315900D01*
X516926Y317071D01*
X516263Y318063D01*
X515271Y318726D01*
X514100Y318959D01*
D02*
G37*
G36*
X314100Y313749D02*
Y306430D01*
X321419D01*
X321356Y306910D01*
X320398Y309221D01*
X318876Y311205D01*
X316891Y312728D01*
X314580Y313685D01*
X314100Y313749D01*
D02*
G37*
G36*
X288700D02*
Y306430D01*
X296019D01*
X295956Y306910D01*
X294998Y309221D01*
X293476Y311205D01*
X291491Y312728D01*
X289180Y313685D01*
X288700Y313749D01*
D02*
G37*
G36*
X310100D02*
X309620Y313685D01*
X307309Y312728D01*
X305325Y311205D01*
X303802Y309221D01*
X302845Y306910D01*
X302782Y306430D01*
X310100D01*
Y313749D01*
D02*
G37*
G36*
X284700D02*
X284220Y313685D01*
X281909Y312728D01*
X279925Y311205D01*
X278402Y309221D01*
X277445Y306910D01*
X277382Y306430D01*
X284700D01*
Y313749D01*
D02*
G37*
G36*
X570500Y311159D02*
X569330Y310926D01*
X568337Y310263D01*
X567674Y309270D01*
X567441Y308100D01*
X567674Y306929D01*
X568337Y305937D01*
X569330Y305274D01*
X570500Y305041D01*
X571671Y305274D01*
X572663Y305937D01*
X573326Y306929D01*
X573559Y308100D01*
X573326Y309270D01*
X572663Y310263D01*
X571671Y310926D01*
X570500Y311159D01*
D02*
G37*
G36*
Y303259D02*
X569330Y303026D01*
X568337Y302363D01*
X567674Y301371D01*
X567441Y300200D01*
X567674Y299029D01*
X568337Y298037D01*
X569330Y297374D01*
X570500Y297141D01*
X571671Y297374D01*
X572663Y298037D01*
X573326Y299029D01*
X573559Y300200D01*
X573326Y301371D01*
X572663Y302363D01*
X571671Y303026D01*
X570500Y303259D01*
D02*
G37*
G36*
X854300Y313430D02*
X836300D01*
Y295430D01*
X854300D01*
Y313430D01*
D02*
G37*
G36*
X921500Y313508D02*
X919151Y313198D01*
X916961Y312291D01*
X915081Y310849D01*
X913639Y308969D01*
X912732Y306779D01*
X912423Y304430D01*
X912732Y302080D01*
X913639Y299891D01*
X915081Y298011D01*
X916961Y296569D01*
X919151Y295662D01*
X921500Y295352D01*
X923850Y295662D01*
X926039Y296569D01*
X927919Y298011D01*
X929362Y299891D01*
X930268Y302080D01*
X930578Y304430D01*
X930268Y306779D01*
X929362Y308969D01*
X927919Y310849D01*
X926039Y312291D01*
X923850Y313198D01*
X921500Y313508D01*
D02*
G37*
G36*
X896100D02*
X893751Y313198D01*
X891561Y312291D01*
X889681Y310849D01*
X888239Y308969D01*
X887332Y306779D01*
X887023Y304430D01*
X887332Y302080D01*
X888239Y299891D01*
X889681Y298011D01*
X891561Y296569D01*
X893751Y295662D01*
X896100Y295352D01*
X898450Y295662D01*
X900639Y296569D01*
X902519Y298011D01*
X903962Y299891D01*
X904868Y302080D01*
X905178Y304430D01*
X904868Y306779D01*
X903962Y308969D01*
X902519Y310849D01*
X900639Y312291D01*
X898450Y313198D01*
X896100Y313508D01*
D02*
G37*
G36*
X362700D02*
X360351Y313198D01*
X358161Y312291D01*
X356281Y310849D01*
X354839Y308969D01*
X353932Y306779D01*
X353623Y304430D01*
X353932Y302080D01*
X354839Y299891D01*
X356281Y298011D01*
X358161Y296569D01*
X360351Y295662D01*
X362700Y295352D01*
X365050Y295662D01*
X367239Y296569D01*
X369119Y298011D01*
X370562Y299891D01*
X371469Y302080D01*
X371778Y304430D01*
X371469Y306779D01*
X370562Y308969D01*
X369119Y310849D01*
X367239Y312291D01*
X365050Y313198D01*
X362700Y313508D01*
D02*
G37*
G36*
X321419Y302430D02*
X314100D01*
Y295111D01*
X314580Y295175D01*
X316891Y296132D01*
X318876Y297654D01*
X320398Y299639D01*
X321356Y301950D01*
X321419Y302430D01*
D02*
G37*
G36*
X296019D02*
X288700D01*
Y295111D01*
X289180Y295175D01*
X291491Y296132D01*
X293476Y297654D01*
X294998Y299639D01*
X295956Y301950D01*
X296019Y302430D01*
D02*
G37*
G36*
X284700D02*
X277382D01*
X277445Y301950D01*
X278402Y299639D01*
X279925Y297654D01*
X281909Y296132D01*
X284220Y295175D01*
X284700Y295111D01*
Y302430D01*
D02*
G37*
G36*
X310100D02*
X302782D01*
X302845Y301950D01*
X303802Y299639D01*
X305325Y297654D01*
X307309Y296132D01*
X309620Y295175D01*
X310100Y295111D01*
Y302430D01*
D02*
G37*
G36*
X570527Y295259D02*
X569356Y295026D01*
X568364Y294363D01*
X567701Y293371D01*
X567468Y292200D01*
X567701Y291030D01*
X568364Y290037D01*
X569356Y289374D01*
X570527Y289141D01*
X571698Y289374D01*
X572690Y290037D01*
X573353Y291030D01*
X573586Y292200D01*
X573353Y293371D01*
X572690Y294363D01*
X571698Y295026D01*
X570527Y295259D01*
D02*
G37*
G36*
X694700Y372103D02*
X679700Y370200D01*
Y358200D01*
X698347Y356663D01*
X702326Y356293D01*
X705968Y355189D01*
X709400Y353300D01*
X712160Y351067D01*
X720800Y342437D01*
X722850Y339901D01*
X724500Y336813D01*
X725516Y333463D01*
X725849Y330082D01*
X725835Y309400D01*
X725300Y283200D01*
X727300Y281200D01*
X739846D01*
X740576Y281502D01*
X741135Y282061D01*
X741437Y282792D01*
Y305200D01*
X740965Y309400D01*
X741002Y329979D01*
X740596Y335141D01*
X739387Y340177D01*
X737405Y344961D01*
X734699Y349377D01*
X731310Y353289D01*
X722971Y361687D01*
X718848Y365208D01*
X714100Y368100D01*
X709216Y370115D01*
X703944Y371381D01*
X694700Y372103D01*
D02*
G37*
G36*
X734700Y445765D02*
X732742Y445507D01*
X730918Y444751D01*
X729351Y443549D01*
X728149Y441982D01*
X727632Y440733D01*
X727135Y419610D01*
X727098Y397620D01*
X727505Y392457D01*
X728714Y387421D01*
X730695Y382637D01*
X733401Y378222D01*
X736765Y374284D01*
X761547Y349554D01*
X771581Y340081D01*
X776912Y334750D01*
X779149Y332061D01*
X780800Y328973D01*
X781816Y325623D01*
X782149Y322242D01*
X782136Y309500D01*
X782100D01*
X782100Y281000D01*
X797265Y281000D01*
X797265Y305097D01*
X797265Y305097D01*
X797265Y305607D01*
X797265Y305607D01*
Y322266D01*
X796896Y327301D01*
X795687Y332337D01*
X793320Y337749D01*
X787244Y345815D01*
X761953Y370544D01*
X747200Y385300D01*
X745251Y387698D01*
X743601Y390785D01*
X742584Y394135D01*
X742251Y397517D01*
X741769Y440733D01*
X741252Y441982D01*
X740049Y443549D01*
X738483Y444751D01*
X736658Y445507D01*
X734700Y445765D01*
D02*
G37*
%LPD*%
D11*
X699800Y933500D02*
D03*
D134*
X362700Y533200D02*
D03*
Y507800D02*
D03*
X845300Y675270D02*
D03*
X286700Y736230D02*
D03*
Y634630D02*
D03*
Y609230D02*
D03*
Y583830D02*
D03*
Y558430D02*
D03*
Y533030D02*
D03*
Y507630D02*
D03*
Y482230D02*
D03*
Y456830D02*
D03*
Y431430D02*
D03*
Y406030D02*
D03*
Y380630D02*
D03*
Y355230D02*
D03*
X312100D02*
D03*
X286700Y329830D02*
D03*
X312100D02*
D03*
X286700Y304430D02*
D03*
X312100D02*
D03*
X608700Y997200D02*
D03*
X896100Y456830D02*
D03*
D136*
X745540Y1016700D02*
D03*
X665660D02*
D03*
X930640D02*
D03*
X850760D02*
D03*
D137*
X748800Y1010500D02*
D03*
X662400D02*
D03*
X933900D02*
D03*
X847500D02*
D03*
D141*
X837030Y443220D02*
D03*
X837220Y469640D02*
D03*
X703160Y689230D02*
D03*
X436430Y461740D02*
D03*
Y456660D02*
D03*
X440240Y459200D02*
D03*
X728240Y887603D02*
D03*
X723160Y882523D02*
D03*
X728240D02*
D03*
X723200Y887603D02*
D03*
X890419Y840802D02*
D03*
Y828102D02*
D03*
Y834452D02*
D03*
X898039Y840802D02*
D03*
Y828102D02*
D03*
Y834452D02*
D03*
X871030Y335710D02*
D03*
X445300Y414100D02*
D03*
X511100Y863410D02*
D03*
X511660Y835490D02*
D03*
X737440Y359990D02*
D03*
X941550Y897680D02*
D03*
X934210Y897790D02*
D03*
X562360Y472690D02*
D03*
X562910Y460170D02*
D03*
X569850Y708640D02*
D03*
X471370Y732690D02*
D03*
X616540Y772900D02*
D03*
X523060Y785130D02*
D03*
X434670Y758480D02*
D03*
X451810Y808090D02*
D03*
X448680Y897920D02*
D03*
X494020Y1009030D02*
D03*
X825030Y725260D02*
D03*
X865400Y724770D02*
D03*
X568930Y1016660D02*
D03*
X591980Y1027480D02*
D03*
X661120Y898040D02*
D03*
X660761Y934437D02*
D03*
X688090Y749390D02*
D03*
X684530Y791310D02*
D03*
X872420Y424670D02*
D03*
X871630Y298830D02*
D03*
X871040Y354380D02*
D03*
X796250Y557550D02*
D03*
X659320Y480760D02*
D03*
X603700Y479660D02*
D03*
X662130Y616890D02*
D03*
X604480Y616310D02*
D03*
X351620Y685220D02*
D03*
X422280Y681510D02*
D03*
X358730Y736260D02*
D03*
X345650Y831880D02*
D03*
X295050Y853940D02*
D03*
X295350Y810020D02*
D03*
X387850Y895820D02*
D03*
X320950Y895950D02*
D03*
X339870Y952280D02*
D03*
X446410Y951730D02*
D03*
X411900Y1013170D02*
D03*
X386800Y1012840D02*
D03*
X798880Y609790D02*
D03*
X801850Y606597D02*
D03*
X905670Y945600D02*
D03*
X837800Y926640D02*
D03*
X875320Y963770D02*
D03*
X854950Y958730D02*
D03*
X837880Y958610D02*
D03*
X689910Y890970D02*
D03*
X690250Y941560D02*
D03*
X703280Y844540D02*
D03*
X792560Y882940D02*
D03*
X788430Y882960D02*
D03*
X792560Y879040D02*
D03*
X788350Y879060D02*
D03*
X766430Y1043850D02*
D03*
X766460Y1007970D02*
D03*
X798500Y966950D02*
D03*
X798720Y1008740D02*
D03*
Y1042970D02*
D03*
X861790Y995960D02*
D03*
X854052D02*
D03*
X906820Y996670D02*
D03*
X916740D02*
D03*
X864220Y1029650D02*
D03*
X877180Y1029740D02*
D03*
X863130Y1011980D02*
D03*
X918790Y1011950D02*
D03*
X917870Y1029950D02*
D03*
X900540D02*
D03*
X715440D02*
D03*
X732770D02*
D03*
X733690Y1011950D02*
D03*
X678030Y1011980D02*
D03*
X692080Y1029740D02*
D03*
X679120Y1029650D02*
D03*
X731640Y996670D02*
D03*
X721720D02*
D03*
X668951Y995960D02*
D03*
X676690D02*
D03*
X538320Y435520D02*
D03*
X700180Y731130D02*
D03*
X691360Y704870D02*
D03*
X668660Y726520D02*
D03*
X642260Y690760D02*
D03*
X638510Y712350D02*
D03*
X625670Y690700D02*
D03*
X788400Y778680D02*
D03*
X547540Y1046920D02*
D03*
X544100Y894240D02*
D03*
X536670Y966590D02*
D03*
X502910Y941530D02*
D03*
X567760Y850970D02*
D03*
X572020Y400370D02*
D03*
X565850Y355160D02*
D03*
X509770Y516270D02*
D03*
X299660Y980420D02*
D03*
X272260Y979470D02*
D03*
X442720Y633040D02*
D03*
X416370Y633140D02*
D03*
X472700Y634560D02*
D03*
X403500Y591280D02*
D03*
X482450Y437450D02*
D03*
X400440Y427020D02*
D03*
X581583Y382300D02*
D03*
X812500Y360900D02*
D03*
Y350900D02*
D03*
X802500D02*
D03*
Y360900D02*
D03*
Y390900D02*
D03*
Y380900D02*
D03*
Y370900D02*
D03*
X792500Y360900D02*
D03*
X782500Y370900D02*
D03*
X792500D02*
D03*
Y380900D02*
D03*
X782500D02*
D03*
X772500D02*
D03*
Y390900D02*
D03*
X762500D02*
D03*
X782500D02*
D03*
X792500D02*
D03*
X772500Y400900D02*
D03*
X762500D02*
D03*
X752500D02*
D03*
X782500D02*
D03*
X792500D02*
D03*
X782500Y410900D02*
D03*
X772500D02*
D03*
X762500D02*
D03*
X752500D02*
D03*
X812000Y327900D02*
D03*
X821900D02*
D03*
Y337900D02*
D03*
X812000D02*
D03*
Y317900D02*
D03*
X822000D02*
D03*
Y307900D02*
D03*
X812000D02*
D03*
X832000D02*
D03*
Y297900D02*
D03*
Y287900D02*
D03*
X812000D02*
D03*
X822000D02*
D03*
Y297900D02*
D03*
X812000D02*
D03*
X711000Y338400D02*
D03*
X701300Y343500D02*
D03*
X753200Y340000D02*
D03*
X712000Y327900D02*
D03*
X752000D02*
D03*
X772000D02*
D03*
X762000D02*
D03*
X712000Y317900D02*
D03*
X702000D02*
D03*
X752000D02*
D03*
X772000D02*
D03*
X762000D02*
D03*
X712000Y307900D02*
D03*
X702000D02*
D03*
X752000D02*
D03*
X772000D02*
D03*
X762000D02*
D03*
X712000Y297900D02*
D03*
X702000D02*
D03*
X762000D02*
D03*
X712000Y287900D02*
D03*
X702000D02*
D03*
X762000D02*
D03*
X357701Y1074700D02*
D03*
X385900Y1074700D02*
D03*
X347701Y1074700D02*
D03*
X327701D02*
D03*
X337701D02*
D03*
X412100Y1074700D02*
D03*
X827701Y1074700D02*
D03*
X787701D02*
D03*
X777701D02*
D03*
X807701D02*
D03*
X797701D02*
D03*
X817701D02*
D03*
X767701D02*
D03*
X637701D02*
D03*
X627701D02*
D03*
X647701D02*
D03*
X587701D02*
D03*
X577701D02*
D03*
X607701D02*
D03*
X597701D02*
D03*
X617701D02*
D03*
X567701D02*
D03*
X547701D02*
D03*
X557701D02*
D03*
X527701D02*
D03*
X537701D02*
D03*
X437701D02*
D03*
X457701D02*
D03*
X447701D02*
D03*
X467701D02*
D03*
X517701D02*
D03*
X497701D02*
D03*
X507701D02*
D03*
X477701D02*
D03*
X487701D02*
D03*
X262800Y283500D02*
D03*
X372001Y277900D02*
D03*
X352001D02*
D03*
X362001D02*
D03*
X332001D02*
D03*
X342001D02*
D03*
X312001D02*
D03*
X322001D02*
D03*
X292001D02*
D03*
X302001D02*
D03*
X272001D02*
D03*
X282001D02*
D03*
X258300Y883999D02*
D03*
Y913999D02*
D03*
Y933999D02*
D03*
Y923999D02*
D03*
Y953999D02*
D03*
Y943999D02*
D03*
Y903999D02*
D03*
Y893999D02*
D03*
Y783999D02*
D03*
Y863999D02*
D03*
Y873999D02*
D03*
Y813999D02*
D03*
Y833999D02*
D03*
Y823999D02*
D03*
Y853999D02*
D03*
Y843999D02*
D03*
Y803999D02*
D03*
Y793999D02*
D03*
Y683999D02*
D03*
Y763999D02*
D03*
Y773999D02*
D03*
Y713999D02*
D03*
Y733999D02*
D03*
Y723999D02*
D03*
Y753999D02*
D03*
Y743999D02*
D03*
Y703999D02*
D03*
Y693999D02*
D03*
Y583999D02*
D03*
Y663999D02*
D03*
Y673999D02*
D03*
Y613999D02*
D03*
Y633999D02*
D03*
Y623999D02*
D03*
Y653999D02*
D03*
Y643999D02*
D03*
Y603999D02*
D03*
Y593999D02*
D03*
Y484000D02*
D03*
Y563999D02*
D03*
Y573999D02*
D03*
Y513999D02*
D03*
Y533999D02*
D03*
Y523999D02*
D03*
Y553999D02*
D03*
Y543999D02*
D03*
Y503999D02*
D03*
Y493999D02*
D03*
Y394000D02*
D03*
Y404000D02*
D03*
Y444000D02*
D03*
Y454000D02*
D03*
Y424000D02*
D03*
Y434000D02*
D03*
Y414000D02*
D03*
Y474000D02*
D03*
Y464000D02*
D03*
Y374000D02*
D03*
Y384000D02*
D03*
Y324000D02*
D03*
Y344000D02*
D03*
Y334000D02*
D03*
Y364000D02*
D03*
Y354000D02*
D03*
Y294000D02*
D03*
Y314000D02*
D03*
Y304000D02*
D03*
X949700Y1047798D02*
D03*
Y1057798D02*
D03*
Y1037798D02*
D03*
Y967799D02*
D03*
Y977799D02*
D03*
Y947799D02*
D03*
Y957799D02*
D03*
Y937799D02*
D03*
Y987798D02*
D03*
Y1007798D02*
D03*
Y997798D02*
D03*
Y1027798D02*
D03*
Y1017798D02*
D03*
Y877799D02*
D03*
Y887799D02*
D03*
Y907799D02*
D03*
Y897799D02*
D03*
Y927799D02*
D03*
Y917799D02*
D03*
Y767799D02*
D03*
Y777799D02*
D03*
Y747799D02*
D03*
Y757799D02*
D03*
Y737799D02*
D03*
Y787799D02*
D03*
Y807799D02*
D03*
Y797799D02*
D03*
Y827799D02*
D03*
Y817799D02*
D03*
Y717799D02*
D03*
Y727799D02*
D03*
Y697799D02*
D03*
Y707799D02*
D03*
Y687799D02*
D03*
X942200Y280700D02*
D03*
X949700Y637799D02*
D03*
Y657799D02*
D03*
Y647799D02*
D03*
Y677799D02*
D03*
Y667799D02*
D03*
Y587799D02*
D03*
Y607799D02*
D03*
Y597799D02*
D03*
Y627799D02*
D03*
Y617799D02*
D03*
Y537799D02*
D03*
Y557799D02*
D03*
Y547799D02*
D03*
Y577799D02*
D03*
Y567799D02*
D03*
Y487799D02*
D03*
Y507799D02*
D03*
Y497799D02*
D03*
Y527799D02*
D03*
Y517799D02*
D03*
Y437800D02*
D03*
Y457800D02*
D03*
Y447800D02*
D03*
Y477800D02*
D03*
Y467800D02*
D03*
Y387800D02*
D03*
Y407800D02*
D03*
Y397800D02*
D03*
Y427800D02*
D03*
Y417800D02*
D03*
Y337800D02*
D03*
Y357800D02*
D03*
Y347800D02*
D03*
Y377800D02*
D03*
Y367800D02*
D03*
X949100Y288100D02*
D03*
X949700Y307800D02*
D03*
Y297800D02*
D03*
Y327800D02*
D03*
Y317800D02*
D03*
X932000Y277900D02*
D03*
X882000D02*
D03*
X902000D02*
D03*
X892000D02*
D03*
X922000D02*
D03*
X912000D02*
D03*
X862000D02*
D03*
X872000D02*
D03*
X842000D02*
D03*
X852000D02*
D03*
X822000D02*
D03*
X832000D02*
D03*
X802000D02*
D03*
X812000D02*
D03*
X782000D02*
D03*
X792000D02*
D03*
X762000D02*
D03*
X772000D02*
D03*
X742000D02*
D03*
X752000D02*
D03*
X732000D02*
D03*
X692000D02*
D03*
X702000D02*
D03*
X712000D02*
D03*
X722000D02*
D03*
Y267900D02*
D03*
X712000D02*
D03*
X702000D02*
D03*
X692000D02*
D03*
Y257900D02*
D03*
X702000D02*
D03*
X712000D02*
D03*
X570500Y316036D02*
D03*
X656200Y321600D02*
D03*
Y330700D02*
D03*
X646200Y340700D02*
D03*
Y330700D02*
D03*
Y321600D02*
D03*
X636200D02*
D03*
Y330700D02*
D03*
Y340700D02*
D03*
Y350700D02*
D03*
X626200Y360700D02*
D03*
Y350700D02*
D03*
Y340700D02*
D03*
Y330700D02*
D03*
Y321600D02*
D03*
X616200D02*
D03*
X596200D02*
D03*
X606200D02*
D03*
X616200Y330700D02*
D03*
X596200D02*
D03*
X606200D02*
D03*
X616200Y340700D02*
D03*
X596200D02*
D03*
X606200D02*
D03*
X616200Y350700D02*
D03*
X596200D02*
D03*
X606200D02*
D03*
Y360700D02*
D03*
X596200D02*
D03*
X616200D02*
D03*
Y370700D02*
D03*
X662500Y370900D02*
D03*
X652500D02*
D03*
X596200Y370700D02*
D03*
X606200D02*
D03*
X615500Y380700D02*
D03*
X606200D02*
D03*
X596200D02*
D03*
X672500Y350900D02*
D03*
X662500Y360900D02*
D03*
X672500D02*
D03*
Y370900D02*
D03*
X632500Y390900D02*
D03*
X622500Y400900D02*
D03*
X632500D02*
D03*
X692500Y410900D02*
D03*
X682500D02*
D03*
X672500D02*
D03*
X662500D02*
D03*
X652500D02*
D03*
X702500D02*
D03*
X712500D02*
D03*
Y400900D02*
D03*
X702500D02*
D03*
X642500D02*
D03*
X652500D02*
D03*
X662500D02*
D03*
X672500D02*
D03*
X682500D02*
D03*
X692500D02*
D03*
Y390900D02*
D03*
X682500D02*
D03*
X672500D02*
D03*
X662500D02*
D03*
X652500D02*
D03*
X642500D02*
D03*
X702500D02*
D03*
X712500D02*
D03*
Y380900D02*
D03*
X702500D02*
D03*
X642500D02*
D03*
X652500D02*
D03*
X662500D02*
D03*
X672500D02*
D03*
X682500D02*
D03*
X692500D02*
D03*
X503700Y365800D02*
D03*
X503696Y335800D02*
D03*
X503700Y345800D02*
D03*
Y355800D02*
D03*
X573800Y266000D02*
D03*
Y276000D02*
D03*
Y257800D02*
D03*
X563800D02*
D03*
Y276000D02*
D03*
Y266000D02*
D03*
Y286000D02*
D03*
Y296000D02*
D03*
X553800Y306000D02*
D03*
Y296000D02*
D03*
Y286000D02*
D03*
Y266000D02*
D03*
Y276000D02*
D03*
Y257800D02*
D03*
X543800Y306000D02*
D03*
Y296000D02*
D03*
Y286000D02*
D03*
Y266000D02*
D03*
Y276000D02*
D03*
Y257800D02*
D03*
X533800Y306000D02*
D03*
Y296000D02*
D03*
Y286000D02*
D03*
Y266000D02*
D03*
Y276000D02*
D03*
Y257800D02*
D03*
X523800Y306000D02*
D03*
Y296000D02*
D03*
Y286000D02*
D03*
Y266000D02*
D03*
Y276000D02*
D03*
Y257800D02*
D03*
X513800D02*
D03*
Y276000D02*
D03*
Y266000D02*
D03*
Y286000D02*
D03*
Y296000D02*
D03*
Y306000D02*
D03*
X503800Y325800D02*
D03*
Y316036D02*
D03*
Y306000D02*
D03*
Y296000D02*
D03*
Y286000D02*
D03*
Y266000D02*
D03*
Y276000D02*
D03*
Y257800D02*
D03*
X383704Y366200D02*
D03*
X393704D02*
D03*
X403704D02*
D03*
X423704D02*
D03*
X433600Y376400D02*
D03*
Y366400D02*
D03*
X383693Y276200D02*
D03*
Y266200D02*
D03*
X383697Y286200D02*
D03*
Y296200D02*
D03*
X383700Y306200D02*
D03*
Y316200D02*
D03*
X496704Y355800D02*
D03*
Y345800D02*
D03*
X496700Y335800D02*
D03*
Y325800D02*
D03*
X496704Y365800D02*
D03*
Y385800D02*
D03*
X486704Y355900D02*
D03*
Y345900D02*
D03*
X486700Y335900D02*
D03*
Y325800D02*
D03*
X486704Y365900D02*
D03*
Y375900D02*
D03*
Y385900D02*
D03*
X476704Y356000D02*
D03*
Y346000D02*
D03*
X476700Y336000D02*
D03*
Y326000D02*
D03*
X476704Y366000D02*
D03*
Y376000D02*
D03*
Y386000D02*
D03*
X466704Y386100D02*
D03*
Y376100D02*
D03*
X466700Y326100D02*
D03*
X466704Y346100D02*
D03*
Y356100D02*
D03*
X383704Y356200D02*
D03*
Y346200D02*
D03*
X383700Y336200D02*
D03*
Y326200D02*
D03*
X393704Y356200D02*
D03*
Y346200D02*
D03*
X393700Y336200D02*
D03*
Y326200D02*
D03*
X403704Y356200D02*
D03*
Y346200D02*
D03*
X403700Y336200D02*
D03*
Y326200D02*
D03*
X413704Y356200D02*
D03*
Y346200D02*
D03*
X413700Y336200D02*
D03*
Y326200D02*
D03*
X423704Y356200D02*
D03*
Y346200D02*
D03*
X423700Y336200D02*
D03*
Y326200D02*
D03*
X433700D02*
D03*
Y336200D02*
D03*
X433704Y346200D02*
D03*
Y356200D02*
D03*
X741700Y338200D02*
D03*
X737700Y348200D02*
D03*
X722410Y336602D02*
D03*
X778700Y328326D02*
D03*
X798700Y327200D02*
D03*
X780700Y308200D02*
D03*
X798700D02*
D03*
X440700Y402337D02*
D03*
X387530Y510900D02*
D03*
X411113Y531638D02*
D03*
X450200Y522000D02*
D03*
X704300Y966800D02*
D03*
X314900Y1066398D02*
D03*
X746213Y911200D02*
D03*
X774468Y360200D02*
D03*
X784700Y351200D02*
D03*
X796700Y334816D02*
D03*
X798700Y318200D02*
D03*
X720950Y964683D02*
D03*
X704300Y987900D02*
D03*
X889700Y964900D02*
D03*
Y987900D02*
D03*
X859700Y944107D02*
D03*
X856000Y944100D02*
D03*
X857800Y947407D02*
D03*
Y940607D02*
D03*
X716850Y1009500D02*
D03*
X719400Y1013930D02*
D03*
X692000Y1009600D02*
D03*
X694300Y1013900D02*
D03*
X918800Y946000D02*
D03*
X925600D02*
D03*
X922293Y947800D02*
D03*
X922300Y944100D02*
D03*
X877050Y1009900D02*
D03*
X904400Y1013900D02*
D03*
X901900Y1009700D02*
D03*
X879400Y1013400D02*
D03*
X456700Y416200D02*
D03*
Y406200D02*
D03*
Y396199D02*
D03*
Y386199D02*
D03*
Y376200D02*
D03*
Y356200D02*
D03*
Y346200D02*
D03*
Y326200D02*
D03*
X443704Y386200D02*
D03*
X443700Y376199D02*
D03*
Y366199D02*
D03*
X443704Y356200D02*
D03*
Y346200D02*
D03*
X443700Y336200D02*
D03*
Y326200D02*
D03*
X760700Y374200D02*
D03*
X752700Y382200D02*
D03*
X745700Y390809D02*
D03*
X743700Y402337D02*
D03*
X725700Y413200D02*
D03*
X726100Y445200D02*
D03*
X742700Y445353D02*
D03*
X734700Y450200D02*
D03*
X743700Y414200D02*
D03*
X725700Y402680D02*
D03*
X725961Y392449D02*
D03*
X729700Y380200D02*
D03*
X737700Y371200D02*
D03*
X746700Y361660D02*
D03*
X755700Y352200D02*
D03*
X764749Y344200D02*
D03*
X773075Y336442D02*
D03*
X780700Y318200D02*
D03*
X709320Y371705D02*
D03*
X697776Y355207D02*
D03*
X707700Y352200D02*
D03*
X715700Y345430D02*
D03*
X723700Y327958D02*
D03*
Y318200D02*
D03*
Y308200D02*
D03*
X697776Y373255D02*
D03*
X719700Y366981D02*
D03*
X728700Y358200D02*
D03*
X742700Y328200D02*
D03*
Y318200D02*
D03*
Y308200D02*
D03*
D143*
X922200Y946300D02*
Y950486D01*
X889500Y983186D02*
Y1011600D01*
Y983186D02*
X922200Y950486D01*
D145*
X901900Y1011600D02*
X903200D01*
X878900D02*
X901900D01*
X740893Y944107D02*
X859700D01*
X704600Y1011100D02*
X704600Y987900D01*
X693600Y1011700D02*
X718200D01*
X704600Y980400D02*
X740893Y944107D01*
X704600Y980400D02*
Y987900D01*
M02*
