M48
;Layer_Color=9474304
;FILE_FORMAT=4:4
METRIC,LZ
;TYPE=PLATED
T1F00S00C0.1500
T3F00S00C0.6500
T5F00S00C0.9000
;TYPE=NON_PLATED
T7F00S00C0.6000
T8F00S00C0.7000
T9F00S00C0.9000
T10F00S00C3.2000
%
T01
X002628Y002835
X00272001Y002779
X00282001
X00292001
X00302001
X00312001
X00322001
X00332001
X00342001
X00352001
X00362001
X00372001
X00383693Y002762
Y002662
X00383697Y002862
Y002962
X003837Y003062
Y003162
Y003262
X003937
Y003362
X003837
X00383704Y003462
X00393704
Y003562
X00383704
Y003662
X00393704
X00386825Y00392449
X002583Y00394
Y00384
Y00374
Y00364
Y00354
Y00344
Y00334
Y00324
Y00314
Y00304
Y00294
X004037Y003262
X004137
X004237
X004337
X004437
Y003362
X004337
X004237
X004137
X004037
X00403704Y003462
X00413704
X00423704
X00433704
X00443704
Y003562
X00433704
X00423704
X00413704
X00403704
Y003662
X00423704
X004336Y003664
Y003764
X004437Y00376199
Y00366199
X00443704Y003862
X004567Y00386199
Y003762
X00466704Y003761
Y003861
X00476704Y00386
Y00376
Y00366
Y00356
Y00346
X004767Y00336
Y00326
X004667Y003261
X004567Y003262
Y003462
Y003562
X00466704Y003561
Y003461
X00486704Y003459
Y003559
Y003659
Y003759
Y003859
X00496704Y003858
Y003658
X005037
Y003558
X00496704
Y003458
X005037
X00503696Y003358
X004967
Y003258
X005038
Y00316036
X005108Y003141
X005141Y003159
X005142Y003122
X005138Y00306
X005238
X005338
X005438
X005538
Y00296
X005638
Y00286
Y00276
X005738
Y00266
Y002578
X005638
Y00266
X005538
Y002578
X005438
Y00266
X005338
Y002578
X005238
Y00266
X005138
Y002578
X005038
Y00266
Y00276
X005138
X005238
X005338
X005438
X005538
Y00286
X005438
X005338
X005238
X005138
X005038
Y00296
X005138
X005238
X005338
X005438
X00570527Y002922
X005705Y003002
Y003081
Y00316036
X005687Y00327
X005686Y003401
X005552Y003399
X0056585Y0035516
X005899Y003563
X005962Y003607
X006062
Y003507
X005962
Y003407
X006062
Y003307
Y003216
X005962
Y003307
X005861Y0032425
Y003403
X006162Y003407
X006262
X006362
X006462
Y003307
Y003216
X006562
Y003307
X00664899Y00338699
X0066965Y0034085
X00673599Y00343399
X006725Y003509
Y003609
Y003709
Y003809
Y003909
X006825
Y003809
X006925
Y003909
X007025
Y003809
X007125
Y003909
X00725961Y00392449
X007297Y003802
X007377Y003712
X0073744Y0035999
X007287Y003582
X007197Y00366981
X0070932Y00371705
X00697776Y00373255
Y00355207
X007077Y003522
X007157Y0034543
X00711Y003384
X00712Y003279
Y003179
X00702
X0070323Y0032405
X00702Y003079
X00712
Y002979
X00702
Y002879
X00712
Y002779
X00702
X00692
Y002679
X00702
X00712
X00722
Y002779
X00732
X00742
X00752
X00762
X00772
X00782
X00792
X00762Y002879
Y002979
Y003079
X00752
X007427Y003082
Y003182
X00752Y003179
X00762
X00772
X007807Y003182
Y003082
X00772Y003079
Y003279
X007787Y00328326
X00773075Y00336442
X00764749Y003442
X007532Y0034
X00752Y003279
X007427Y003282
X007417Y003382
X007377Y003482
X007557Y003522
X007467Y0036166
X007607Y003742
X007527Y003822
X007457Y00390809
X007625Y003909
X007725
Y003809
X007825
Y003709
X007925
Y003609
X007847Y003512
X00774468Y003602
X007825Y003909
X007925
Y003809
X00762Y003279
X007237Y00327958
Y003182
Y003082
X0072241Y00336602
X007013Y003435
X006685Y003241
X006362Y003216
Y003307
X006262
Y003216
X006162
Y003307
Y003507
X006262
X006362
X006262Y003607
X006162
Y003707
X006062
X005962
Y003807
X006062
X006155
X006325Y003909
X006425
Y003809
X006525
Y003909
X006625
Y003809
Y003709
Y003609
X006525Y003709
X00581583Y003823
X00564299Y00378799
X00551704Y003951
X005393Y003963
X005397Y00385683
X00537798Y00375502
X005457Y003603
X004867Y003359
Y003258
X005038Y00306
X004567Y00396199
X00425Y003874
X004157Y003938
X00692Y002579
X00702
X00712
X00802Y002779
X00812
X00822
X00832
X00842
X00852
X00862
X00872
X00882
X00892
X00902
X00912
X00922
X00932
X009422Y002807
X009491Y002881
X009497Y002978
Y003078
Y003178
Y003278
Y003378
Y003478
Y003578
Y003678
Y003778
Y003878
X0087104Y0035438
X0087103Y0033571
X0087163Y0029883
X00832Y002979
X00822
X00812
Y003079
X00822
X00832
X00822Y003179
X00812
Y003279
X008219
Y003379
X00812
X008125Y003509
Y003609
X008025
Y003509
Y003709
Y003809
Y003909
X007967Y00334816
X007987Y003272
Y003182
Y003082
X00812Y002879
X00822
X00832
X0083703Y0044322
X0083722Y0046964
X00812021Y004741
Y00478
X00807619
Y004741
X00802Y005078
X0079625Y0055755
X008027Y005677
X00801Y00589
X008046Y005936
X00801Y005985
X0080185Y00606597
X0079888Y0060979
X008171Y005791
X00815853Y006827
X007987Y006986
Y00704346
X008116Y007198
X0082503Y0072526
X008654Y0072477
X009497Y00727799
Y00737799
Y00747799
Y00757799
Y00767799
Y00777799
Y00787799
Y00717799
Y00707799
Y00697799
Y00687799
Y00677799
Y00667799
Y00657799
Y00647799
Y00637799
Y00627799
Y00617799
Y00607799
Y00597799
Y00587799
Y00577799
Y00567799
Y00557799
Y00547799
Y00537799
Y00527799
Y00517799
Y00507799
Y00497799
Y00487799
Y004778
Y004678
Y004578
Y004478
Y004378
Y004278
Y004178
Y004078
Y003978
X0087242Y0042467
X008106Y007767
X007884Y0077868
X007576Y007835
X007575Y007612
X007576Y007575
X007542Y007594
X007216Y0078155
X007215Y0078505
X007179
Y0078145
X0071065Y007478
X007068Y007441
X0070018Y0073113
X007003Y007256
X006942Y007179
X0068525Y00723233
X0066866Y0072652
X006756Y00700276
X0069136Y0070487
X006916Y00694
X0068571Y0068915
X0068499Y0068371
X006679Y006827
X0064226Y0069076
X006429Y00700276
X0063851Y0071235
X006306Y007178
X006217Y007231
X0061Y007297
X006101Y007001
X006006Y0070433
X0056985Y0070864
X005659Y007297
X005653Y007419
X00563699Y00687299
X005324Y00692
X005237
X005345Y006461
Y006312
X00510263Y00647287
X005019Y006534
X004976Y006492
X00490499Y00667117
X004727Y0063456
X0044272Y0063304
X0041637Y0063314
X004154Y006584
X0042478Y0066293
X0042228Y0068151
X004304Y007421
X0043467Y0075848
X004909Y007532
X0047137Y0073269
X0052306Y0078513
X0061654Y007729
X0068453Y0079131
X0068809Y0074939
X00702199Y00700276
X0070316Y0068923
X0062567Y006907
X0060448Y0061631
X005637Y006162
X0066213Y0061689
X007409Y0058
X0075693Y0057127
X00751899Y00527999
X00753051Y005234
X007529Y005185
X007436Y005196
X007427Y00445353
X007347Y004502
X007261Y004452
X007257Y004132
Y0040268
X007125Y004009
Y004109
X007025
Y004009
X006925
Y004109
X006825
Y004009
X006725
Y004109
X006625
X006628Y004188
X006625Y004009
X006525
Y004109
X006425Y004009
X006325
X006225
X005988Y004145
X006009Y004473
X005964Y004472
X006055Y00447285
X0061Y004473
X006037Y0047966
X00586Y004662
X005814Y004645
X005772Y004617
X0056291Y0046017
X0056236Y0047269
X00567399Y00477599
X005674Y004821
X005655Y004946
X005636Y00500463
X005637Y005052
X005244Y00514
X0050977Y0051627
X005101Y005233
X005063Y005263
X004992Y00548762
X004776Y00549506
X004744Y00526
X004652Y00525199
X004603Y0052527
X004502Y00522
Y005004
X004552
X004452
X004401Y005005
X00435305Y005004
X004203Y005031
X00415
X00398625Y0050849
X00411113Y00531638
X00408112Y00551299
X004341Y005471
X004035Y0059128
X003971Y004366
X003972Y004316
X0040044Y0042702
X00397888Y004223
X00401799Y00411199
X00409493Y004155
X0041451Y00414
X00410306Y004068
X00426Y004092
X00430199Y00412399
X004304Y00402649
X004407Y00402337
X004453Y004141
X004567Y004162
Y004062
X004654Y004062
X004842Y004287
X004888
X0048245Y0043745
X00479575Y004464
Y00451
X00479461Y004556
X0044024Y004592
X0043643Y0046174
Y0045666
X00478721Y005009
X00491347Y004925
X0053832Y0043552
X005596Y004353
X005556Y004409
X0054771Y004046
X0057202Y0040037
X0065932Y0048076
X007437Y004142
Y00402337
X007525Y004009
Y004109
X007625
Y004009
X007725
Y004109
X007825
X007832Y00418
X007925Y004109
Y004009
X007825
X003754Y00408
X003944Y004566
X003964Y004718
X003847Y004755
X0038753Y005109
X00339801Y00540502
X00339935Y005656
X003815Y006044
X00386313Y00602657
X0035162Y0068522
X003141Y006726
X002583Y00673999
Y00683999
Y00693999
Y00703999
Y00713999
Y00723999
Y00733999
Y00743999
Y00753999
Y00763999
Y00773999
Y00783999
Y00663999
Y00653999
Y00643999
Y00633999
Y00623999
Y00613999
Y00603999
Y00593999
Y00583999
Y00573999
Y00563999
Y00553999
Y00543999
Y00533999
Y00523999
Y00513999
Y00503999
Y00493999
Y00484
Y00474
Y00464
Y00454
Y00444
Y00434
Y00424
Y00414
Y00404
X0035129Y004645
X003255Y004935
X003228Y004974
X002683Y005913
X00268408Y005963
X0035873Y0073626
X0034565Y0083188
X003528Y008754
X003674
X0036Y008872
X0038785Y0089582
X0038695Y00933062
X0033987Y0095228
X003151Y009537
X00307911Y00937346
X003021Y00967489
X0029966Y0098042
X0027226Y0097947
X002632Y00967503
X002583Y00953999
Y00943999
Y00933999
Y00923999
Y00913999
Y00903999
Y00893999
Y00883999
Y00873999
Y00863999
Y00853999
Y00843999
Y00833999
Y00823999
Y00813999
Y00803999
Y00793999
X0029535Y0081002
X0029505Y0085394
X002947Y00873354
X00287094Y008773
X003096Y008735
X00330894Y008773
X0032095Y0089595
X002904Y009572
X002772Y010056
X002722
X002669
X003149Y01066398
X00327701Y010747
X00337701
X00347701
X00357701
X003859Y010747
X003868Y0101284
X004119Y0101317
X004121Y010747
X00437701Y010747
X00447701
X00457701
X00467701
X00477701
X00487701
X00497701
X00507701
X00517701
X00527701
X00537701
X00547701
X00557701
X00567701
X00577701
X00587701
X00597701
X00607701
X00617701
X00627701
X00637701
X00647701
X00613121Y010347
X0059198Y0102748
X0056893Y0101666
X005325Y01015
X0049402Y0100903
X0050291Y0094153
X005097Y009252
X004977Y00912
Y009023
X005292Y009119
X005441Y0089424
X005602Y009023
X005577Y009371
X005728Y009366
X0057771
X005826Y009399
X005527Y00953
X005477Y009529
X0053667Y0096659
X0054754Y0104692
X0067912Y0102965
X0069208Y0102974
X006993Y010264
X007044
X0071544Y0102995
X0073277
X0073369Y0101195
X007194Y0101393
X0071685Y010095
X0072172Y0099667
X0073164
X007136Y009889
X007043Y009879
X006894Y00992
X0067669Y0099596
X00668951
X0067803Y0101198
X00692Y010096
X006943Y010139
X007043Y009668
X0072095Y00964683
X007292Y009416
X007067Y009435
X00702199Y00943598
X0069025Y0094156
X00660761Y00934437
X0066112Y0089804
X006308Y008969
X006347Y009151
X006338Y009472
X006656Y00868121
X00665715Y00842721
X0070328Y0084454
X007247Y008518
X007226Y008607
Y008646
X007187
Y008607
X0072316Y00882523
X0072824
Y00887603
X007232
X007449Y00887603
X007386Y008985
X007321Y00904843
X00746213Y009112
X007462Y00922
X007582Y008996
X0078843Y0088296
X0078835Y0087906
X0079256Y0087904
Y0088294
X00736Y008499
X006973Y00885
X0068991Y0089097
X005825Y008834
X0056776Y0085097
X005111Y0086341
X0051166Y0083549
X0045181Y0080809
X0044868Y0089792
X00427Y00911103
X004179Y009172
X00409999Y00926898
X004227Y00933062
X0044641Y0095173
X003974Y008727
X00772256Y008066
X00776
Y008029
X007722
X007561Y009627
X0076646Y0100797
X0076643Y0104385
X00767701Y010747
X00777701
X00787701
X00797701
X00807701
X00817701
X00827701
X0079872Y0104297
Y0100874
X007985Y0096695
X0083788Y0095861
X0085495Y0095873
X008578Y00947407
X00856Y009441
X008597Y00944107
X008578Y00940607
X008378Y0092664
X008224Y00922025
X008911Y008987
X008947
X008948Y008952
X008911Y008951
X0093421Y0089779
X0094155Y0089768
X009497Y00897799
Y00887799
Y00877799
X009422Y0085785
X009386
Y0085425
X009423Y0085435
X009497Y00827799
Y00817799
Y00807799
Y00797799
X00935598Y00824098
X00898039Y00828102
Y00834452
Y00840802
X00890419
Y00834452
Y00828102
X008896Y009471
Y009516
X008897Y009649
X0087532Y0096377
X008802Y009931
X008897Y009879
X008978Y009862
X0090682Y0099667
X0091674
X0091879Y0101195
X009044Y010139
X009019Y010097
X0090054Y0102995
X0088943Y010266
X008844
X0087718Y0102974
X0086422Y0102965
X0086313Y0101198
X0087705Y010099
X008794Y010134
X0086179Y0099596
X00854052
X009497Y00997798
Y00987798
Y00977799
Y00967799
Y00957799
Y00947799
Y00937799
Y00927799
Y00917799
Y00907799
X009256Y00946
X00922293Y009478
X009223Y009441
X009188Y00946
X0090567Y009456
X0091787Y0102995
X009497Y01027798
Y01037798
Y01047798
Y01057798
Y01017798
Y01007798
T03
X006998Y009335
X007125
T05
X002867Y0030443
Y0032983
Y0035523
Y0038063
X003121
Y0035523
Y0032983
Y0030443
X003627
Y0032983
Y0035523
Y0038063
X008453
Y0035523
Y0032983
Y0030443
X008961
X009215
Y0032983
X008961
Y0035523
X009215
Y0038063
X008961
Y0040603
X009215
Y0043143
X008961
Y0045683
X009215
Y0048223
X008961
Y0050763
X009215
Y0053303
X008961
Y0055843
X009215
Y0058383
X008961
Y0060923
X009215
Y0063463
X008961
Y0066003
X009215
Y0068543
X008961
Y0071083
X009215
Y0073623
X008961
Y0076163
X009215
Y0078703
X008961
X008453Y0075147
Y0072607
Y0070067
Y0067527
Y0064987
Y0062447
Y0059907
Y0057367
Y0054827
Y0052287
X008453Y0048223
Y0045683
Y0043143
Y0040603
X003627
Y0043143
X003121
Y0045683
Y0048223
Y0050763
Y0053303
Y0055843
Y0058383
Y0060923
Y0063463
Y0066003
Y0068543
Y0071083
Y0073623
Y0076163
Y0078703
X002867
Y0076163
Y0073623
Y0071083
Y0068543
Y0066003
Y0063463
Y0060923
Y0058383
Y0055843
Y0053303
Y0050763
Y0048223
Y0045683
Y0043143
Y0040603
X003121
X003627Y004824
Y005078
Y005332
Y005586
Y00584
Y006094
Y006348
Y006602
X006257Y00842721
Y00868121
X006087Y009972
X005833
X005579
X005325
T07
X007416Y010305
X009267
T08
X003531Y00969814
T09
X004431Y01052814
T10
X004135Y0027903
X008453Y0078703
X003627Y0079973
M30
