M48
;Layer_Color=9474304
;FILE_FORMAT=4:4
METRIC,LZ
;TYPE=PLATED
T2F00S00C0.6000
T4F00S00C0.7000
;TYPE=NON_PLATED
T6F00S00C0.5000
%
G90
G05
T02
G00X006624Y01017
M15
G01Y01004
M16
G00X007488Y01017
M15
G01Y01004
M16
G00X008475Y01017
M15
G01Y01004
M16
G00X009339Y01017
M15
G01Y01004
M16
T04
G00X0066841Y010167
M15
G01X0066291
M16
G00X006624Y010675
M15
G01Y010545
M16
G00X007488Y010675
M15
G01Y010545
M16
G00X0074279Y010167
M15
G01X0074829
M16
G00X0085351Y010167
M15
G01X0084801
M16
G00X008475Y010675
M15
G01Y010545
M16
G00X009339Y010675
M15
G01Y010545
M16
G00X0092789Y010167
M15
G01X0093339
M16
T06
G00X0066785Y0102985
M15
G01X0067135
M16
G00X0085295Y0102985
M15
G01X0085645
M16
M17
M30
